M48
;DRILL file {Pcbnew (2013-07-07 BZR 4022)-stable} date 11/25/2014 3:29:24 PM
;FORMAT={-:-/ absolute / inch / decimal}
FMAT,2
INCH,TZ
T1C0.025
T2C0.031
T3C0.032
T4C0.040
T5C0.049
T6C0.157
T7C0.236
%
G90
G05
M72
T1
X3.22Y-5.625
X4.1646Y-3.839
X4.165Y-5.35
X4.1909Y-3.6374
X4.245Y-4.505
X4.5866Y-4.1594
X4.73Y-5.63
X4.815Y-4.2559
X4.9547Y-4.4419
X5.1152Y-4.4449
X5.4665Y-4.4518
X5.6014Y-4.44
X5.6244Y-5.761
X5.6555Y-4.2618
X5.6614Y-4.1614
X6.0453Y-4.1575
X6.15Y-5.32
X6.5165Y-3.5728
X6.7201Y-4.3504
X6.9917Y-4.0413
X7.2098Y-4.3469
X7.4445Y-4.3469
X7.6083Y-4.1535
X7.66Y-5.69
X8.5Y-5.84
X8.605Y-5.615
X8.9425Y-4.515
X8.98Y-5.68
X9.9596Y-3.7008
X10.1606Y-4.3504
X10.21Y-5.32
X10.38Y-5.33
X10.5929Y-4.3339
X10.69Y-5.62
X10.99Y-5.62
X11.0079Y-3.7028
X11.4744Y-3.6722
X11.5642Y-3.8012
X11.637Y-4.0079
X12.5197Y-4.0496
X12.628Y-4.0354
X12.8921Y-4.5209
X12.97Y-5.79
X13.1073Y-4.1516
X13.1476Y-4.2539
X13.17Y-5.67
X13.6693Y-4.1535
T2
X2.7295Y-4.0059
X2.7295Y-5.5059
X2.8295Y-4.0059
X2.8295Y-5.5059
X2.9295Y-4.0059
X2.9295Y-5.5059
X3.0295Y-4.0059
X3.0295Y-5.5059
X3.1295Y-4.0059
X3.1295Y-5.5059
X3.2295Y-4.0059
X3.2295Y-5.5059
X3.3295Y-4.0059
X3.3295Y-5.5059
X4.2335Y-4.0059
X4.2335Y-5.5059
X4.3335Y-4.0059
X4.3335Y-5.5059
X4.4335Y-4.0059
X4.4335Y-5.5059
X4.5335Y-4.0059
X4.5335Y-5.5059
X4.6335Y-4.0059
X4.6335Y-5.5059
X4.7335Y-4.0059
X4.7335Y-5.5059
X4.8335Y-4.0059
X4.8335Y-5.5059
X5.7394Y-4.0059
X5.7394Y-5.5059
X5.8394Y-4.0059
X5.8394Y-5.5059
X5.9394Y-4.0059
X5.9394Y-5.5059
X6.0394Y-4.0059
X6.0394Y-5.5059
X6.1394Y-4.0059
X6.1394Y-5.5059
X6.2394Y-4.0059
X6.2394Y-5.5059
X6.3394Y-4.0059
X6.3394Y-5.5059
X7.2453Y-4.0059
X7.2453Y-5.5059
X7.3453Y-4.0059
X7.3453Y-5.5059
X7.4453Y-4.0059
X7.4453Y-5.5059
X7.5453Y-4.0059
X7.5453Y-5.5059
X7.6453Y-4.0059
X7.6453Y-5.5059
X7.7453Y-4.0059
X7.7453Y-5.5059
X7.8453Y-4.0059
X7.8453Y-5.5059
X8.7512Y-4.0059
X8.7512Y-5.5059
X8.8512Y-4.0059
X8.8512Y-5.5059
X8.9512Y-4.0059
X8.9512Y-5.5059
X9.0512Y-4.0059
X9.0512Y-5.5059
X9.1512Y-4.0059
X9.1512Y-5.5059
X9.2512Y-4.0059
X9.2512Y-5.5059
X9.3512Y-4.0059
X9.3512Y-5.5059
X10.2591Y-4.0059
X10.2591Y-5.5059
X10.3591Y-4.0059
X10.3591Y-5.5059
X10.4591Y-4.0059
X10.4591Y-5.5059
X10.5591Y-4.0059
X10.5591Y-5.5059
X10.6591Y-4.0059
X10.6591Y-5.5059
X10.7591Y-4.0059
X10.7591Y-5.5059
X10.8591Y-4.0059
X10.8591Y-5.5059
X11.765Y-4.0059
X11.765Y-5.5059
X11.865Y-4.0059
X11.865Y-5.5059
X11.965Y-4.0059
X11.965Y-5.5059
X12.065Y-4.0059
X12.065Y-5.5059
X12.165Y-4.0059
X12.165Y-5.5059
X12.265Y-4.0059
X12.265Y-5.5059
X12.365Y-4.0059
X12.365Y-5.5059
X13.2709Y-4.0059
X13.2709Y-5.5059
X13.3709Y-4.0059
X13.3709Y-5.5059
X13.4709Y-4.0059
X13.4709Y-5.5059
X13.5709Y-4.0059
X13.5709Y-5.5059
X13.6709Y-4.0059
X13.6709Y-5.5059
X13.7709Y-4.0059
X13.7709Y-5.5059
X13.8709Y-4.0059
X13.8709Y-5.5059
T3
X2.5563Y-4.7457
X2.5563Y-5.1457
X2.7476Y-4.8366
X2.7476Y-5.2366
X2.9331Y-4.7457
X2.9331Y-5.1457
X3.1394Y-4.8433
X3.1394Y-5.2433
X3.4476Y-4.5409
X3.4476Y-4.6409
X3.4476Y-4.7409
X3.4476Y-4.8409
X3.4476Y-4.9409
X3.4476Y-5.0409
X3.4476Y-5.1409
X3.4476Y-5.2409
X3.56Y-5.5475
X3.56Y-5.9475
X4.1358Y-3.3504
X4.2358Y-3.3504
X4.3358Y-3.3504
X4.4358Y-3.3504
X4.5358Y-3.3504
X4.6358Y-3.3504
X4.7358Y-3.3504
X4.8358Y-3.3504
X4.9358Y-3.3504
X5.0358Y-3.3504
X5.1358Y-3.3504
X5.2358Y-3.3504
X5.3358Y-3.3504
X5.4358Y-3.3504
X5.5358Y-3.3504
X5.6358Y-3.3504
X5.7358Y-3.3504
X5.8358Y-3.3504
X5.9358Y-3.3504
X6.0358Y-3.3504
X6.1358Y-3.3504
X6.2358Y-3.3504
X6.3358Y-3.3504
X6.4358Y-3.3504
X8.2252Y-4.0457
X8.2252Y-4.4457
X8.4976Y-4.9433
X8.4976Y-5.3433
X10.1634Y-3.3484
X10.2634Y-3.3484
X10.3634Y-3.3484
X10.4634Y-3.3484
X10.5634Y-3.3484
X10.6634Y-3.3484
X10.7634Y-3.3484
X10.8634Y-3.3484
X10.9634Y-3.3484
X11.0634Y-3.3484
X11.1634Y-3.3484
X11.2634Y-3.3484
X11.3634Y-3.3484
X11.4634Y-3.3484
X11.5634Y-3.3484
X11.6634Y-3.3484
X11.7634Y-3.3484
X11.8634Y-3.3484
X11.9634Y-3.3484
X12.0634Y-3.3484
X12.1634Y-3.3484
X12.2634Y-3.3484
X12.3634Y-3.3484
X12.4634Y-3.3484
X13.5748Y-4.5409
X13.5748Y-4.6409
X13.5748Y-4.7409
X13.5748Y-4.8409
X13.5748Y-4.9409
X13.5748Y-5.0409
X13.5748Y-5.1409
X13.5748Y-5.2409
X13.6748Y-4.5409
X13.6748Y-4.6409
X13.6748Y-4.7409
X13.6748Y-4.8409
X13.6748Y-4.9409
X13.6748Y-5.0409
X13.6748Y-5.1409
X13.6748Y-5.2409
X14.1083Y-4.5406
X14.1083Y-4.6406
X14.1083Y-4.7406
X14.1083Y-4.8406
X14.1083Y-4.9406
X14.1083Y-5.0406
X14.1083Y-5.1406
X14.1083Y-5.2406
T4
X2.5543Y-5.4043
X2.5543Y-5.5043
X2.5543Y-5.6043
X2.8488Y-4.3197
X2.8488Y-4.4197
X2.8488Y-4.5197
X3.1441Y-4.3146
X3.1441Y-4.4146
X3.1441Y-4.5146
X3.16Y-5.95
X3.16Y-6.05
X3.16Y-6.15
X3.765Y-5.95
X3.765Y-6.05
X3.765Y-6.15
X8.2252Y-3.4551
X8.2252Y-3.5551
X8.2252Y-3.6551
X8.64Y-6.12
X8.64Y-6.22
X8.64Y-6.32
T5
X2.5925Y-3.5161
X2.5925Y-3.7161
X2.5925Y-5.9551
X2.5925Y-6.1551
T6
X2.5Y-6.4
X2.54Y-3.18
X8.22Y-3.18
X8.22Y-6.32
X14.08Y-6.32
X14.12Y-3.16
T7
X4.08Y-6.08
X6.3825Y-6.0775
X10.11Y-6.0875
X12.4075Y-6.0775
T0
M30
