G04 (created by PCBNEW (2013-07-07 BZR 4022)-stable) date 3/3/2015 12:04:11 PM*
%MOIN*%
G04 Gerber Fmt 3.4, Leading zero omitted, Abs format*
%FSLAX34Y34*%
G01*
G70*
G90*
G04 APERTURE LIST*
%ADD10C,0.00590551*%
%ADD11C,0.012*%
%ADD12C,0.011811*%
%ADD13C,0.0393701*%
%ADD14C,0.015*%
%ADD15C,0.0107*%
%ADD16C,0.01*%
G04 APERTURE END LIST*
G54D10*
G54D11*
X40858Y-34003D02*
X40858Y-33003D01*
X40858Y-33003D02*
X65000Y-33003D01*
X65031Y-33003D02*
X65031Y-34003D01*
X65000Y-34003D02*
X40858Y-34003D01*
X41858Y-33003D02*
X41858Y-34003D01*
X101133Y-33984D02*
X101133Y-32984D01*
X101133Y-32984D02*
X125275Y-32984D01*
X125307Y-32984D02*
X125307Y-33984D01*
X125275Y-33984D02*
X101133Y-33984D01*
X102133Y-32984D02*
X102133Y-33984D01*
G54D12*
X114468Y-57992D02*
X113208Y-56732D01*
X113208Y-56889D02*
X114311Y-57992D01*
X113208Y-57834D02*
X113366Y-57992D01*
X113523Y-57992D02*
X113208Y-57677D01*
X113208Y-57519D02*
X113681Y-57992D01*
X113838Y-57992D02*
X113208Y-57362D01*
X113208Y-57047D02*
X114153Y-57992D01*
X113996Y-57992D02*
X113208Y-57204D01*
X128129Y-57992D02*
X128129Y-53818D01*
X128129Y-49645D02*
X128129Y-45472D01*
X128129Y-41299D02*
X128129Y-37125D01*
X113602Y-45472D02*
X113602Y-41259D01*
X113602Y-53858D02*
X113602Y-49645D01*
X113208Y-45511D02*
X113602Y-45472D01*
X113208Y-45511D02*
X113208Y-49606D01*
X113208Y-49606D02*
X113602Y-49645D01*
X113208Y-53897D02*
X113602Y-53858D01*
X113208Y-53897D02*
X113208Y-57992D01*
X113208Y-37125D02*
X113208Y-41220D01*
X113208Y-41220D02*
X113602Y-41259D01*
X128129Y-49645D02*
X128523Y-49685D01*
X128129Y-45472D02*
X128523Y-45433D01*
X128129Y-41299D02*
X128523Y-41338D01*
X128523Y-41338D02*
X128523Y-45433D01*
X128523Y-49685D02*
X128523Y-53779D01*
X128129Y-53818D02*
X128523Y-53779D01*
G54D13*
X115437Y-56559D02*
G75*
G03X115437Y-56559I-787J0D01*
G74*
G01*
X115082Y-56559D02*
G75*
G03X115082Y-56559I-433J0D01*
G74*
G01*
X114728Y-56559D02*
G75*
G03X114728Y-56559I-78J0D01*
G74*
G01*
X117728Y-56559D02*
G75*
G03X117728Y-56559I-78J0D01*
G74*
G01*
X118082Y-56559D02*
G75*
G03X118082Y-56559I-433J0D01*
G74*
G01*
X118437Y-56559D02*
G75*
G03X118437Y-56559I-787J0D01*
G74*
G01*
X126728Y-56559D02*
G75*
G03X126728Y-56559I-78J0D01*
G74*
G01*
X127082Y-56559D02*
G75*
G03X127082Y-56559I-433J0D01*
G74*
G01*
X127437Y-56559D02*
G75*
G03X127437Y-56559I-787J0D01*
G74*
G01*
X124437Y-56559D02*
G75*
G03X124437Y-56559I-787J0D01*
G74*
G01*
X124082Y-56559D02*
G75*
G03X124082Y-56559I-433J0D01*
G74*
G01*
X123728Y-56559D02*
G75*
G03X123728Y-56559I-78J0D01*
G74*
G01*
X120728Y-56559D02*
G75*
G03X120728Y-56559I-78J0D01*
G74*
G01*
X121082Y-56559D02*
G75*
G03X121082Y-56559I-433J0D01*
G74*
G01*
X121437Y-56559D02*
G75*
G03X121437Y-56559I-787J0D01*
G74*
G01*
X115437Y-53559D02*
G75*
G03X115437Y-53559I-787J0D01*
G74*
G01*
X115082Y-53559D02*
G75*
G03X115082Y-53559I-433J0D01*
G74*
G01*
X114728Y-53559D02*
G75*
G03X114728Y-53559I-78J0D01*
G74*
G01*
X117728Y-53559D02*
G75*
G03X117728Y-53559I-78J0D01*
G74*
G01*
X118082Y-53559D02*
G75*
G03X118082Y-53559I-433J0D01*
G74*
G01*
X118437Y-53559D02*
G75*
G03X118437Y-53559I-787J0D01*
G74*
G01*
X126728Y-53559D02*
G75*
G03X126728Y-53559I-78J0D01*
G74*
G01*
X127082Y-53559D02*
G75*
G03X127082Y-53559I-433J0D01*
G74*
G01*
X127437Y-53559D02*
G75*
G03X127437Y-53559I-787J0D01*
G74*
G01*
X124437Y-53559D02*
G75*
G03X124437Y-53559I-787J0D01*
G74*
G01*
X124082Y-53559D02*
G75*
G03X124082Y-53559I-433J0D01*
G74*
G01*
X123728Y-53559D02*
G75*
G03X123728Y-53559I-78J0D01*
G74*
G01*
X120728Y-53559D02*
G75*
G03X120728Y-53559I-78J0D01*
G74*
G01*
X121082Y-53559D02*
G75*
G03X121082Y-53559I-433J0D01*
G74*
G01*
X121437Y-53559D02*
G75*
G03X121437Y-53559I-787J0D01*
G74*
G01*
X121437Y-50559D02*
G75*
G03X121437Y-50559I-787J0D01*
G74*
G01*
X121082Y-50559D02*
G75*
G03X121082Y-50559I-433J0D01*
G74*
G01*
X120728Y-50559D02*
G75*
G03X120728Y-50559I-78J0D01*
G74*
G01*
X123728Y-50559D02*
G75*
G03X123728Y-50559I-78J0D01*
G74*
G01*
X124082Y-50559D02*
G75*
G03X124082Y-50559I-433J0D01*
G74*
G01*
X124437Y-50559D02*
G75*
G03X124437Y-50559I-787J0D01*
G74*
G01*
X127437Y-50559D02*
G75*
G03X127437Y-50559I-787J0D01*
G74*
G01*
X127082Y-50559D02*
G75*
G03X127082Y-50559I-433J0D01*
G74*
G01*
X126728Y-50559D02*
G75*
G03X126728Y-50559I-78J0D01*
G74*
G01*
X118437Y-50559D02*
G75*
G03X118437Y-50559I-787J0D01*
G74*
G01*
X118082Y-50559D02*
G75*
G03X118082Y-50559I-433J0D01*
G74*
G01*
X117728Y-50559D02*
G75*
G03X117728Y-50559I-78J0D01*
G74*
G01*
X114728Y-50559D02*
G75*
G03X114728Y-50559I-78J0D01*
G74*
G01*
X115082Y-50559D02*
G75*
G03X115082Y-50559I-433J0D01*
G74*
G01*
X115437Y-50559D02*
G75*
G03X115437Y-50559I-787J0D01*
G74*
G01*
X121437Y-38559D02*
G75*
G03X121437Y-38559I-787J0D01*
G74*
G01*
X121082Y-38559D02*
G75*
G03X121082Y-38559I-433J0D01*
G74*
G01*
X120728Y-38559D02*
G75*
G03X120728Y-38559I-78J0D01*
G74*
G01*
X123728Y-38559D02*
G75*
G03X123728Y-38559I-78J0D01*
G74*
G01*
X124082Y-38559D02*
G75*
G03X124082Y-38559I-433J0D01*
G74*
G01*
X124437Y-38559D02*
G75*
G03X124437Y-38559I-787J0D01*
G74*
G01*
X127437Y-38559D02*
G75*
G03X127437Y-38559I-787J0D01*
G74*
G01*
X127082Y-38559D02*
G75*
G03X127082Y-38559I-433J0D01*
G74*
G01*
X126728Y-38559D02*
G75*
G03X126728Y-38559I-78J0D01*
G74*
G01*
X118437Y-38559D02*
G75*
G03X118437Y-38559I-787J0D01*
G74*
G01*
X118082Y-38559D02*
G75*
G03X118082Y-38559I-433J0D01*
G74*
G01*
X117728Y-38559D02*
G75*
G03X117728Y-38559I-78J0D01*
G74*
G01*
X114728Y-38559D02*
G75*
G03X114728Y-38559I-78J0D01*
G74*
G01*
X115082Y-38559D02*
G75*
G03X115082Y-38559I-433J0D01*
G74*
G01*
X115437Y-38559D02*
G75*
G03X115437Y-38559I-787J0D01*
G74*
G01*
X121437Y-41559D02*
G75*
G03X121437Y-41559I-787J0D01*
G74*
G01*
X121082Y-41559D02*
G75*
G03X121082Y-41559I-433J0D01*
G74*
G01*
X120728Y-41559D02*
G75*
G03X120728Y-41559I-78J0D01*
G74*
G01*
X123728Y-41559D02*
G75*
G03X123728Y-41559I-78J0D01*
G74*
G01*
X124082Y-41559D02*
G75*
G03X124082Y-41559I-433J0D01*
G74*
G01*
X124437Y-41559D02*
G75*
G03X124437Y-41559I-787J0D01*
G74*
G01*
X127437Y-41559D02*
G75*
G03X127437Y-41559I-787J0D01*
G74*
G01*
X127082Y-41559D02*
G75*
G03X127082Y-41559I-433J0D01*
G74*
G01*
X126728Y-41559D02*
G75*
G03X126728Y-41559I-78J0D01*
G74*
G01*
X118437Y-41559D02*
G75*
G03X118437Y-41559I-787J0D01*
G74*
G01*
X118082Y-41559D02*
G75*
G03X118082Y-41559I-433J0D01*
G74*
G01*
X117728Y-41559D02*
G75*
G03X117728Y-41559I-78J0D01*
G74*
G01*
X114728Y-41559D02*
G75*
G03X114728Y-41559I-78J0D01*
G74*
G01*
X115082Y-41559D02*
G75*
G03X115082Y-41559I-433J0D01*
G74*
G01*
X115437Y-41559D02*
G75*
G03X115437Y-41559I-787J0D01*
G74*
G01*
X121437Y-44559D02*
G75*
G03X121437Y-44559I-787J0D01*
G74*
G01*
X121082Y-44559D02*
G75*
G03X121082Y-44559I-433J0D01*
G74*
G01*
X120728Y-44559D02*
G75*
G03X120728Y-44559I-78J0D01*
G74*
G01*
X123728Y-44559D02*
G75*
G03X123728Y-44559I-78J0D01*
G74*
G01*
X124082Y-44559D02*
G75*
G03X124082Y-44559I-433J0D01*
G74*
G01*
X124437Y-44559D02*
G75*
G03X124437Y-44559I-787J0D01*
G74*
G01*
X127437Y-44559D02*
G75*
G03X127437Y-44559I-787J0D01*
G74*
G01*
X127082Y-44559D02*
G75*
G03X127082Y-44559I-433J0D01*
G74*
G01*
X126728Y-44559D02*
G75*
G03X126728Y-44559I-78J0D01*
G74*
G01*
X118437Y-44559D02*
G75*
G03X118437Y-44559I-787J0D01*
G74*
G01*
X118082Y-44559D02*
G75*
G03X118082Y-44559I-433J0D01*
G74*
G01*
X117728Y-44559D02*
G75*
G03X117728Y-44559I-78J0D01*
G74*
G01*
X114728Y-44559D02*
G75*
G03X114728Y-44559I-78J0D01*
G74*
G01*
X115082Y-44559D02*
G75*
G03X115082Y-44559I-433J0D01*
G74*
G01*
X115437Y-44559D02*
G75*
G03X115437Y-44559I-787J0D01*
G74*
G01*
X115437Y-47559D02*
G75*
G03X115437Y-47559I-787J0D01*
G74*
G01*
X115082Y-47559D02*
G75*
G03X115082Y-47559I-433J0D01*
G74*
G01*
X114728Y-47559D02*
G75*
G03X114728Y-47559I-78J0D01*
G74*
G01*
X117728Y-47559D02*
G75*
G03X117728Y-47559I-78J0D01*
G74*
G01*
X118082Y-47559D02*
G75*
G03X118082Y-47559I-433J0D01*
G74*
G01*
X118437Y-47559D02*
G75*
G03X118437Y-47559I-787J0D01*
G74*
G01*
X126728Y-47559D02*
G75*
G03X126728Y-47559I-78J0D01*
G74*
G01*
X127082Y-47559D02*
G75*
G03X127082Y-47559I-433J0D01*
G74*
G01*
X127437Y-47559D02*
G75*
G03X127437Y-47559I-787J0D01*
G74*
G01*
X124437Y-47559D02*
G75*
G03X124437Y-47559I-787J0D01*
G74*
G01*
X124082Y-47559D02*
G75*
G03X124082Y-47559I-433J0D01*
G74*
G01*
X123728Y-47559D02*
G75*
G03X123728Y-47559I-78J0D01*
G74*
G01*
X120728Y-47559D02*
G75*
G03X120728Y-47559I-78J0D01*
G74*
G01*
X121082Y-47559D02*
G75*
G03X121082Y-47559I-433J0D01*
G74*
G01*
X121437Y-47559D02*
G75*
G03X121437Y-47559I-787J0D01*
G74*
G01*
G54D12*
X113208Y-57992D02*
X128090Y-57992D01*
X128090Y-37125D02*
X113208Y-37125D01*
X39153Y-57992D02*
X37893Y-56732D01*
X37893Y-56889D02*
X38996Y-57992D01*
X37893Y-57834D02*
X38051Y-57992D01*
X38208Y-57992D02*
X37893Y-57677D01*
X37893Y-57519D02*
X38366Y-57992D01*
X38523Y-57992D02*
X37893Y-57362D01*
X37893Y-57047D02*
X38838Y-57992D01*
X38681Y-57992D02*
X37893Y-57204D01*
X52814Y-57992D02*
X52814Y-53818D01*
X52814Y-49645D02*
X52814Y-45472D01*
X52814Y-41299D02*
X52814Y-37125D01*
X38287Y-45472D02*
X38287Y-41259D01*
X38287Y-53858D02*
X38287Y-49645D01*
X37893Y-45511D02*
X38287Y-45472D01*
X37893Y-45511D02*
X37893Y-49606D01*
X37893Y-49606D02*
X38287Y-49645D01*
X37893Y-53897D02*
X38287Y-53858D01*
X37893Y-53897D02*
X37893Y-57992D01*
X37893Y-37125D02*
X37893Y-41220D01*
X37893Y-41220D02*
X38287Y-41259D01*
X52814Y-49645D02*
X53208Y-49685D01*
X52814Y-45472D02*
X53208Y-45433D01*
X52814Y-41299D02*
X53208Y-41338D01*
X53208Y-41338D02*
X53208Y-45433D01*
X53208Y-49685D02*
X53208Y-53779D01*
X52814Y-53818D02*
X53208Y-53779D01*
G54D13*
X40122Y-56559D02*
G75*
G03X40122Y-56559I-787J0D01*
G74*
G01*
X39767Y-56559D02*
G75*
G03X39767Y-56559I-433J0D01*
G74*
G01*
X39413Y-56559D02*
G75*
G03X39413Y-56559I-78J0D01*
G74*
G01*
X42413Y-56559D02*
G75*
G03X42413Y-56559I-78J0D01*
G74*
G01*
X42767Y-56559D02*
G75*
G03X42767Y-56559I-433J0D01*
G74*
G01*
X43122Y-56559D02*
G75*
G03X43122Y-56559I-787J0D01*
G74*
G01*
X51413Y-56559D02*
G75*
G03X51413Y-56559I-78J0D01*
G74*
G01*
X51767Y-56559D02*
G75*
G03X51767Y-56559I-433J0D01*
G74*
G01*
X52122Y-56559D02*
G75*
G03X52122Y-56559I-787J0D01*
G74*
G01*
X49122Y-56559D02*
G75*
G03X49122Y-56559I-787J0D01*
G74*
G01*
X48767Y-56559D02*
G75*
G03X48767Y-56559I-433J0D01*
G74*
G01*
X48413Y-56559D02*
G75*
G03X48413Y-56559I-78J0D01*
G74*
G01*
X45413Y-56559D02*
G75*
G03X45413Y-56559I-78J0D01*
G74*
G01*
X45767Y-56559D02*
G75*
G03X45767Y-56559I-433J0D01*
G74*
G01*
X46122Y-56559D02*
G75*
G03X46122Y-56559I-787J0D01*
G74*
G01*
X40122Y-53559D02*
G75*
G03X40122Y-53559I-787J0D01*
G74*
G01*
X39767Y-53559D02*
G75*
G03X39767Y-53559I-433J0D01*
G74*
G01*
X39413Y-53559D02*
G75*
G03X39413Y-53559I-78J0D01*
G74*
G01*
X42413Y-53559D02*
G75*
G03X42413Y-53559I-78J0D01*
G74*
G01*
X42767Y-53559D02*
G75*
G03X42767Y-53559I-433J0D01*
G74*
G01*
X43122Y-53559D02*
G75*
G03X43122Y-53559I-787J0D01*
G74*
G01*
X51413Y-53559D02*
G75*
G03X51413Y-53559I-78J0D01*
G74*
G01*
X51767Y-53559D02*
G75*
G03X51767Y-53559I-433J0D01*
G74*
G01*
X52122Y-53559D02*
G75*
G03X52122Y-53559I-787J0D01*
G74*
G01*
X49122Y-53559D02*
G75*
G03X49122Y-53559I-787J0D01*
G74*
G01*
X48767Y-53559D02*
G75*
G03X48767Y-53559I-433J0D01*
G74*
G01*
X48413Y-53559D02*
G75*
G03X48413Y-53559I-78J0D01*
G74*
G01*
X45413Y-53559D02*
G75*
G03X45413Y-53559I-78J0D01*
G74*
G01*
X45767Y-53559D02*
G75*
G03X45767Y-53559I-433J0D01*
G74*
G01*
X46122Y-53559D02*
G75*
G03X46122Y-53559I-787J0D01*
G74*
G01*
X46122Y-50559D02*
G75*
G03X46122Y-50559I-787J0D01*
G74*
G01*
X45767Y-50559D02*
G75*
G03X45767Y-50559I-433J0D01*
G74*
G01*
X45413Y-50559D02*
G75*
G03X45413Y-50559I-78J0D01*
G74*
G01*
X48413Y-50559D02*
G75*
G03X48413Y-50559I-78J0D01*
G74*
G01*
X48767Y-50559D02*
G75*
G03X48767Y-50559I-433J0D01*
G74*
G01*
X49122Y-50559D02*
G75*
G03X49122Y-50559I-787J0D01*
G74*
G01*
X52122Y-50559D02*
G75*
G03X52122Y-50559I-787J0D01*
G74*
G01*
X51767Y-50559D02*
G75*
G03X51767Y-50559I-433J0D01*
G74*
G01*
X51413Y-50559D02*
G75*
G03X51413Y-50559I-78J0D01*
G74*
G01*
X43122Y-50559D02*
G75*
G03X43122Y-50559I-787J0D01*
G74*
G01*
X42767Y-50559D02*
G75*
G03X42767Y-50559I-433J0D01*
G74*
G01*
X42413Y-50559D02*
G75*
G03X42413Y-50559I-78J0D01*
G74*
G01*
X39413Y-50559D02*
G75*
G03X39413Y-50559I-78J0D01*
G74*
G01*
X39767Y-50559D02*
G75*
G03X39767Y-50559I-433J0D01*
G74*
G01*
X40122Y-50559D02*
G75*
G03X40122Y-50559I-787J0D01*
G74*
G01*
X46122Y-38559D02*
G75*
G03X46122Y-38559I-787J0D01*
G74*
G01*
X45767Y-38559D02*
G75*
G03X45767Y-38559I-433J0D01*
G74*
G01*
X45413Y-38559D02*
G75*
G03X45413Y-38559I-78J0D01*
G74*
G01*
X48413Y-38559D02*
G75*
G03X48413Y-38559I-78J0D01*
G74*
G01*
X48767Y-38559D02*
G75*
G03X48767Y-38559I-433J0D01*
G74*
G01*
X49122Y-38559D02*
G75*
G03X49122Y-38559I-787J0D01*
G74*
G01*
X52122Y-38559D02*
G75*
G03X52122Y-38559I-787J0D01*
G74*
G01*
X51767Y-38559D02*
G75*
G03X51767Y-38559I-433J0D01*
G74*
G01*
X51413Y-38559D02*
G75*
G03X51413Y-38559I-78J0D01*
G74*
G01*
X43122Y-38559D02*
G75*
G03X43122Y-38559I-787J0D01*
G74*
G01*
X42767Y-38559D02*
G75*
G03X42767Y-38559I-433J0D01*
G74*
G01*
X42413Y-38559D02*
G75*
G03X42413Y-38559I-78J0D01*
G74*
G01*
X39413Y-38559D02*
G75*
G03X39413Y-38559I-78J0D01*
G74*
G01*
X39767Y-38559D02*
G75*
G03X39767Y-38559I-433J0D01*
G74*
G01*
X40122Y-38559D02*
G75*
G03X40122Y-38559I-787J0D01*
G74*
G01*
X46122Y-41559D02*
G75*
G03X46122Y-41559I-787J0D01*
G74*
G01*
X45767Y-41559D02*
G75*
G03X45767Y-41559I-433J0D01*
G74*
G01*
X45413Y-41559D02*
G75*
G03X45413Y-41559I-78J0D01*
G74*
G01*
X48413Y-41559D02*
G75*
G03X48413Y-41559I-78J0D01*
G74*
G01*
X48767Y-41559D02*
G75*
G03X48767Y-41559I-433J0D01*
G74*
G01*
X49122Y-41559D02*
G75*
G03X49122Y-41559I-787J0D01*
G74*
G01*
X52122Y-41559D02*
G75*
G03X52122Y-41559I-787J0D01*
G74*
G01*
X51767Y-41559D02*
G75*
G03X51767Y-41559I-433J0D01*
G74*
G01*
X51413Y-41559D02*
G75*
G03X51413Y-41559I-78J0D01*
G74*
G01*
X43122Y-41559D02*
G75*
G03X43122Y-41559I-787J0D01*
G74*
G01*
X42767Y-41559D02*
G75*
G03X42767Y-41559I-433J0D01*
G74*
G01*
X42413Y-41559D02*
G75*
G03X42413Y-41559I-78J0D01*
G74*
G01*
X39413Y-41559D02*
G75*
G03X39413Y-41559I-78J0D01*
G74*
G01*
X39767Y-41559D02*
G75*
G03X39767Y-41559I-433J0D01*
G74*
G01*
X40122Y-41559D02*
G75*
G03X40122Y-41559I-787J0D01*
G74*
G01*
X46122Y-44559D02*
G75*
G03X46122Y-44559I-787J0D01*
G74*
G01*
X45767Y-44559D02*
G75*
G03X45767Y-44559I-433J0D01*
G74*
G01*
X45413Y-44559D02*
G75*
G03X45413Y-44559I-78J0D01*
G74*
G01*
X48413Y-44559D02*
G75*
G03X48413Y-44559I-78J0D01*
G74*
G01*
X48767Y-44559D02*
G75*
G03X48767Y-44559I-433J0D01*
G74*
G01*
X49122Y-44559D02*
G75*
G03X49122Y-44559I-787J0D01*
G74*
G01*
X52122Y-44559D02*
G75*
G03X52122Y-44559I-787J0D01*
G74*
G01*
X51767Y-44559D02*
G75*
G03X51767Y-44559I-433J0D01*
G74*
G01*
X51413Y-44559D02*
G75*
G03X51413Y-44559I-78J0D01*
G74*
G01*
X43122Y-44559D02*
G75*
G03X43122Y-44559I-787J0D01*
G74*
G01*
X42767Y-44559D02*
G75*
G03X42767Y-44559I-433J0D01*
G74*
G01*
X42413Y-44559D02*
G75*
G03X42413Y-44559I-78J0D01*
G74*
G01*
X39413Y-44559D02*
G75*
G03X39413Y-44559I-78J0D01*
G74*
G01*
X39767Y-44559D02*
G75*
G03X39767Y-44559I-433J0D01*
G74*
G01*
X40122Y-44559D02*
G75*
G03X40122Y-44559I-787J0D01*
G74*
G01*
X40122Y-47559D02*
G75*
G03X40122Y-47559I-787J0D01*
G74*
G01*
X39767Y-47559D02*
G75*
G03X39767Y-47559I-433J0D01*
G74*
G01*
X39413Y-47559D02*
G75*
G03X39413Y-47559I-78J0D01*
G74*
G01*
X42413Y-47559D02*
G75*
G03X42413Y-47559I-78J0D01*
G74*
G01*
X42767Y-47559D02*
G75*
G03X42767Y-47559I-433J0D01*
G74*
G01*
X43122Y-47559D02*
G75*
G03X43122Y-47559I-787J0D01*
G74*
G01*
X51413Y-47559D02*
G75*
G03X51413Y-47559I-78J0D01*
G74*
G01*
X51767Y-47559D02*
G75*
G03X51767Y-47559I-433J0D01*
G74*
G01*
X52122Y-47559D02*
G75*
G03X52122Y-47559I-787J0D01*
G74*
G01*
X49122Y-47559D02*
G75*
G03X49122Y-47559I-787J0D01*
G74*
G01*
X48767Y-47559D02*
G75*
G03X48767Y-47559I-433J0D01*
G74*
G01*
X48413Y-47559D02*
G75*
G03X48413Y-47559I-78J0D01*
G74*
G01*
X45413Y-47559D02*
G75*
G03X45413Y-47559I-78J0D01*
G74*
G01*
X45767Y-47559D02*
G75*
G03X45767Y-47559I-433J0D01*
G74*
G01*
X46122Y-47559D02*
G75*
G03X46122Y-47559I-787J0D01*
G74*
G01*
G54D12*
X37893Y-57992D02*
X52775Y-57992D01*
X52775Y-37125D02*
X37893Y-37125D01*
X69271Y-57992D02*
X68011Y-56732D01*
X68011Y-56889D02*
X69114Y-57992D01*
X68011Y-57834D02*
X68169Y-57992D01*
X68326Y-57992D02*
X68011Y-57677D01*
X68011Y-57519D02*
X68484Y-57992D01*
X68641Y-57992D02*
X68011Y-57362D01*
X68011Y-57047D02*
X68956Y-57992D01*
X68799Y-57992D02*
X68011Y-57204D01*
X82933Y-57992D02*
X82933Y-53818D01*
X82933Y-49645D02*
X82933Y-45472D01*
X82933Y-41299D02*
X82933Y-37125D01*
X68405Y-45472D02*
X68405Y-41259D01*
X68405Y-53858D02*
X68405Y-49645D01*
X68011Y-45511D02*
X68405Y-45472D01*
X68011Y-45511D02*
X68011Y-49606D01*
X68011Y-49606D02*
X68405Y-49645D01*
X68011Y-53897D02*
X68405Y-53858D01*
X68011Y-53897D02*
X68011Y-57992D01*
X68011Y-37125D02*
X68011Y-41220D01*
X68011Y-41220D02*
X68405Y-41259D01*
X82933Y-49645D02*
X83326Y-49685D01*
X82933Y-45472D02*
X83326Y-45433D01*
X82933Y-41299D02*
X83326Y-41338D01*
X83326Y-41338D02*
X83326Y-45433D01*
X83326Y-49685D02*
X83326Y-53779D01*
X82933Y-53818D02*
X83326Y-53779D01*
G54D13*
X70240Y-56559D02*
G75*
G03X70240Y-56559I-787J0D01*
G74*
G01*
X69885Y-56559D02*
G75*
G03X69885Y-56559I-433J0D01*
G74*
G01*
X69531Y-56559D02*
G75*
G03X69531Y-56559I-78J0D01*
G74*
G01*
X72531Y-56559D02*
G75*
G03X72531Y-56559I-78J0D01*
G74*
G01*
X72885Y-56559D02*
G75*
G03X72885Y-56559I-433J0D01*
G74*
G01*
X73240Y-56559D02*
G75*
G03X73240Y-56559I-787J0D01*
G74*
G01*
X81531Y-56559D02*
G75*
G03X81531Y-56559I-78J0D01*
G74*
G01*
X81885Y-56559D02*
G75*
G03X81885Y-56559I-433J0D01*
G74*
G01*
X82240Y-56559D02*
G75*
G03X82240Y-56559I-787J0D01*
G74*
G01*
X79240Y-56559D02*
G75*
G03X79240Y-56559I-787J0D01*
G74*
G01*
X78885Y-56559D02*
G75*
G03X78885Y-56559I-433J0D01*
G74*
G01*
X78531Y-56559D02*
G75*
G03X78531Y-56559I-78J0D01*
G74*
G01*
X75531Y-56559D02*
G75*
G03X75531Y-56559I-78J0D01*
G74*
G01*
X75885Y-56559D02*
G75*
G03X75885Y-56559I-433J0D01*
G74*
G01*
X76240Y-56559D02*
G75*
G03X76240Y-56559I-787J0D01*
G74*
G01*
X70240Y-53559D02*
G75*
G03X70240Y-53559I-787J0D01*
G74*
G01*
X69885Y-53559D02*
G75*
G03X69885Y-53559I-433J0D01*
G74*
G01*
X69531Y-53559D02*
G75*
G03X69531Y-53559I-78J0D01*
G74*
G01*
X72531Y-53559D02*
G75*
G03X72531Y-53559I-78J0D01*
G74*
G01*
X72885Y-53559D02*
G75*
G03X72885Y-53559I-433J0D01*
G74*
G01*
X73240Y-53559D02*
G75*
G03X73240Y-53559I-787J0D01*
G74*
G01*
X81531Y-53559D02*
G75*
G03X81531Y-53559I-78J0D01*
G74*
G01*
X81885Y-53559D02*
G75*
G03X81885Y-53559I-433J0D01*
G74*
G01*
X82240Y-53559D02*
G75*
G03X82240Y-53559I-787J0D01*
G74*
G01*
X79240Y-53559D02*
G75*
G03X79240Y-53559I-787J0D01*
G74*
G01*
X78885Y-53559D02*
G75*
G03X78885Y-53559I-433J0D01*
G74*
G01*
X78531Y-53559D02*
G75*
G03X78531Y-53559I-78J0D01*
G74*
G01*
X75531Y-53559D02*
G75*
G03X75531Y-53559I-78J0D01*
G74*
G01*
X75885Y-53559D02*
G75*
G03X75885Y-53559I-433J0D01*
G74*
G01*
X76240Y-53559D02*
G75*
G03X76240Y-53559I-787J0D01*
G74*
G01*
X76240Y-50559D02*
G75*
G03X76240Y-50559I-787J0D01*
G74*
G01*
X75885Y-50559D02*
G75*
G03X75885Y-50559I-433J0D01*
G74*
G01*
X75531Y-50559D02*
G75*
G03X75531Y-50559I-78J0D01*
G74*
G01*
X78531Y-50559D02*
G75*
G03X78531Y-50559I-78J0D01*
G74*
G01*
X78885Y-50559D02*
G75*
G03X78885Y-50559I-433J0D01*
G74*
G01*
X79240Y-50559D02*
G75*
G03X79240Y-50559I-787J0D01*
G74*
G01*
X82240Y-50559D02*
G75*
G03X82240Y-50559I-787J0D01*
G74*
G01*
X81885Y-50559D02*
G75*
G03X81885Y-50559I-433J0D01*
G74*
G01*
X81531Y-50559D02*
G75*
G03X81531Y-50559I-78J0D01*
G74*
G01*
X73240Y-50559D02*
G75*
G03X73240Y-50559I-787J0D01*
G74*
G01*
X72885Y-50559D02*
G75*
G03X72885Y-50559I-433J0D01*
G74*
G01*
X72531Y-50559D02*
G75*
G03X72531Y-50559I-78J0D01*
G74*
G01*
X69531Y-50559D02*
G75*
G03X69531Y-50559I-78J0D01*
G74*
G01*
X69885Y-50559D02*
G75*
G03X69885Y-50559I-433J0D01*
G74*
G01*
X70240Y-50559D02*
G75*
G03X70240Y-50559I-787J0D01*
G74*
G01*
X76240Y-38559D02*
G75*
G03X76240Y-38559I-787J0D01*
G74*
G01*
X75885Y-38559D02*
G75*
G03X75885Y-38559I-433J0D01*
G74*
G01*
X75531Y-38559D02*
G75*
G03X75531Y-38559I-78J0D01*
G74*
G01*
X78531Y-38559D02*
G75*
G03X78531Y-38559I-78J0D01*
G74*
G01*
X78885Y-38559D02*
G75*
G03X78885Y-38559I-433J0D01*
G74*
G01*
X79240Y-38559D02*
G75*
G03X79240Y-38559I-787J0D01*
G74*
G01*
X82240Y-38559D02*
G75*
G03X82240Y-38559I-787J0D01*
G74*
G01*
X81885Y-38559D02*
G75*
G03X81885Y-38559I-433J0D01*
G74*
G01*
X81531Y-38559D02*
G75*
G03X81531Y-38559I-78J0D01*
G74*
G01*
X73240Y-38559D02*
G75*
G03X73240Y-38559I-787J0D01*
G74*
G01*
X72885Y-38559D02*
G75*
G03X72885Y-38559I-433J0D01*
G74*
G01*
X72531Y-38559D02*
G75*
G03X72531Y-38559I-78J0D01*
G74*
G01*
X69531Y-38559D02*
G75*
G03X69531Y-38559I-78J0D01*
G74*
G01*
X69885Y-38559D02*
G75*
G03X69885Y-38559I-433J0D01*
G74*
G01*
X70240Y-38559D02*
G75*
G03X70240Y-38559I-787J0D01*
G74*
G01*
X76240Y-41559D02*
G75*
G03X76240Y-41559I-787J0D01*
G74*
G01*
X75885Y-41559D02*
G75*
G03X75885Y-41559I-433J0D01*
G74*
G01*
X75531Y-41559D02*
G75*
G03X75531Y-41559I-78J0D01*
G74*
G01*
X78531Y-41559D02*
G75*
G03X78531Y-41559I-78J0D01*
G74*
G01*
X78885Y-41559D02*
G75*
G03X78885Y-41559I-433J0D01*
G74*
G01*
X79240Y-41559D02*
G75*
G03X79240Y-41559I-787J0D01*
G74*
G01*
X82240Y-41559D02*
G75*
G03X82240Y-41559I-787J0D01*
G74*
G01*
X81885Y-41559D02*
G75*
G03X81885Y-41559I-433J0D01*
G74*
G01*
X81531Y-41559D02*
G75*
G03X81531Y-41559I-78J0D01*
G74*
G01*
X73240Y-41559D02*
G75*
G03X73240Y-41559I-787J0D01*
G74*
G01*
X72885Y-41559D02*
G75*
G03X72885Y-41559I-433J0D01*
G74*
G01*
X72531Y-41559D02*
G75*
G03X72531Y-41559I-78J0D01*
G74*
G01*
X69531Y-41559D02*
G75*
G03X69531Y-41559I-78J0D01*
G74*
G01*
X69885Y-41559D02*
G75*
G03X69885Y-41559I-433J0D01*
G74*
G01*
X70240Y-41559D02*
G75*
G03X70240Y-41559I-787J0D01*
G74*
G01*
X76240Y-44559D02*
G75*
G03X76240Y-44559I-787J0D01*
G74*
G01*
X75885Y-44559D02*
G75*
G03X75885Y-44559I-433J0D01*
G74*
G01*
X75531Y-44559D02*
G75*
G03X75531Y-44559I-78J0D01*
G74*
G01*
X78531Y-44559D02*
G75*
G03X78531Y-44559I-78J0D01*
G74*
G01*
X78885Y-44559D02*
G75*
G03X78885Y-44559I-433J0D01*
G74*
G01*
X79240Y-44559D02*
G75*
G03X79240Y-44559I-787J0D01*
G74*
G01*
X82240Y-44559D02*
G75*
G03X82240Y-44559I-787J0D01*
G74*
G01*
X81885Y-44559D02*
G75*
G03X81885Y-44559I-433J0D01*
G74*
G01*
X81531Y-44559D02*
G75*
G03X81531Y-44559I-78J0D01*
G74*
G01*
X73240Y-44559D02*
G75*
G03X73240Y-44559I-787J0D01*
G74*
G01*
X72885Y-44559D02*
G75*
G03X72885Y-44559I-433J0D01*
G74*
G01*
X72531Y-44559D02*
G75*
G03X72531Y-44559I-78J0D01*
G74*
G01*
X69531Y-44559D02*
G75*
G03X69531Y-44559I-78J0D01*
G74*
G01*
X69885Y-44559D02*
G75*
G03X69885Y-44559I-433J0D01*
G74*
G01*
X70240Y-44559D02*
G75*
G03X70240Y-44559I-787J0D01*
G74*
G01*
X70240Y-47559D02*
G75*
G03X70240Y-47559I-787J0D01*
G74*
G01*
X69885Y-47559D02*
G75*
G03X69885Y-47559I-433J0D01*
G74*
G01*
X69531Y-47559D02*
G75*
G03X69531Y-47559I-78J0D01*
G74*
G01*
X72531Y-47559D02*
G75*
G03X72531Y-47559I-78J0D01*
G74*
G01*
X72885Y-47559D02*
G75*
G03X72885Y-47559I-433J0D01*
G74*
G01*
X73240Y-47559D02*
G75*
G03X73240Y-47559I-787J0D01*
G74*
G01*
X81531Y-47559D02*
G75*
G03X81531Y-47559I-78J0D01*
G74*
G01*
X81885Y-47559D02*
G75*
G03X81885Y-47559I-433J0D01*
G74*
G01*
X82240Y-47559D02*
G75*
G03X82240Y-47559I-787J0D01*
G74*
G01*
X79240Y-47559D02*
G75*
G03X79240Y-47559I-787J0D01*
G74*
G01*
X78885Y-47559D02*
G75*
G03X78885Y-47559I-433J0D01*
G74*
G01*
X78531Y-47559D02*
G75*
G03X78531Y-47559I-78J0D01*
G74*
G01*
X75531Y-47559D02*
G75*
G03X75531Y-47559I-78J0D01*
G74*
G01*
X75885Y-47559D02*
G75*
G03X75885Y-47559I-433J0D01*
G74*
G01*
X76240Y-47559D02*
G75*
G03X76240Y-47559I-787J0D01*
G74*
G01*
G54D12*
X68011Y-57992D02*
X82893Y-57992D01*
X82893Y-37125D02*
X68011Y-37125D01*
X99409Y-57992D02*
X98149Y-56732D01*
X98149Y-56889D02*
X99251Y-57992D01*
X98149Y-57834D02*
X98307Y-57992D01*
X98464Y-57992D02*
X98149Y-57677D01*
X98149Y-57519D02*
X98622Y-57992D01*
X98779Y-57992D02*
X98149Y-57362D01*
X98149Y-57047D02*
X99094Y-57992D01*
X98937Y-57992D02*
X98149Y-57204D01*
X113070Y-57992D02*
X113070Y-53818D01*
X113070Y-49645D02*
X113070Y-45472D01*
X113070Y-41299D02*
X113070Y-37125D01*
X98543Y-45472D02*
X98543Y-41259D01*
X98543Y-53858D02*
X98543Y-49645D01*
X98149Y-45511D02*
X98543Y-45472D01*
X98149Y-45511D02*
X98149Y-49606D01*
X98149Y-49606D02*
X98543Y-49645D01*
X98149Y-53897D02*
X98543Y-53858D01*
X98149Y-53897D02*
X98149Y-57992D01*
X98149Y-37125D02*
X98149Y-41220D01*
X98149Y-41220D02*
X98543Y-41259D01*
X113070Y-49645D02*
X113464Y-49685D01*
X113070Y-45472D02*
X113464Y-45433D01*
X113070Y-41299D02*
X113464Y-41338D01*
X113464Y-41338D02*
X113464Y-45433D01*
X113464Y-49685D02*
X113464Y-53779D01*
X113070Y-53818D02*
X113464Y-53779D01*
G54D13*
X100377Y-56559D02*
G75*
G03X100377Y-56559I-787J0D01*
G74*
G01*
X100023Y-56559D02*
G75*
G03X100023Y-56559I-433J0D01*
G74*
G01*
X99669Y-56559D02*
G75*
G03X99669Y-56559I-78J0D01*
G74*
G01*
X102669Y-56559D02*
G75*
G03X102669Y-56559I-78J0D01*
G74*
G01*
X103023Y-56559D02*
G75*
G03X103023Y-56559I-433J0D01*
G74*
G01*
X103377Y-56559D02*
G75*
G03X103377Y-56559I-787J0D01*
G74*
G01*
X111669Y-56559D02*
G75*
G03X111669Y-56559I-78J0D01*
G74*
G01*
X112023Y-56559D02*
G75*
G03X112023Y-56559I-433J0D01*
G74*
G01*
X112377Y-56559D02*
G75*
G03X112377Y-56559I-787J0D01*
G74*
G01*
X109377Y-56559D02*
G75*
G03X109377Y-56559I-787J0D01*
G74*
G01*
X109023Y-56559D02*
G75*
G03X109023Y-56559I-433J0D01*
G74*
G01*
X108669Y-56559D02*
G75*
G03X108669Y-56559I-78J0D01*
G74*
G01*
X105669Y-56559D02*
G75*
G03X105669Y-56559I-78J0D01*
G74*
G01*
X106023Y-56559D02*
G75*
G03X106023Y-56559I-433J0D01*
G74*
G01*
X106377Y-56559D02*
G75*
G03X106377Y-56559I-787J0D01*
G74*
G01*
X100377Y-53559D02*
G75*
G03X100377Y-53559I-787J0D01*
G74*
G01*
X100023Y-53559D02*
G75*
G03X100023Y-53559I-433J0D01*
G74*
G01*
X99669Y-53559D02*
G75*
G03X99669Y-53559I-78J0D01*
G74*
G01*
X102669Y-53559D02*
G75*
G03X102669Y-53559I-78J0D01*
G74*
G01*
X103023Y-53559D02*
G75*
G03X103023Y-53559I-433J0D01*
G74*
G01*
X103377Y-53559D02*
G75*
G03X103377Y-53559I-787J0D01*
G74*
G01*
X111669Y-53559D02*
G75*
G03X111669Y-53559I-78J0D01*
G74*
G01*
X112023Y-53559D02*
G75*
G03X112023Y-53559I-433J0D01*
G74*
G01*
X112377Y-53559D02*
G75*
G03X112377Y-53559I-787J0D01*
G74*
G01*
X109377Y-53559D02*
G75*
G03X109377Y-53559I-787J0D01*
G74*
G01*
X109023Y-53559D02*
G75*
G03X109023Y-53559I-433J0D01*
G74*
G01*
X108669Y-53559D02*
G75*
G03X108669Y-53559I-78J0D01*
G74*
G01*
X105669Y-53559D02*
G75*
G03X105669Y-53559I-78J0D01*
G74*
G01*
X106023Y-53559D02*
G75*
G03X106023Y-53559I-433J0D01*
G74*
G01*
X106377Y-53559D02*
G75*
G03X106377Y-53559I-787J0D01*
G74*
G01*
X106377Y-50559D02*
G75*
G03X106377Y-50559I-787J0D01*
G74*
G01*
X106023Y-50559D02*
G75*
G03X106023Y-50559I-433J0D01*
G74*
G01*
X105669Y-50559D02*
G75*
G03X105669Y-50559I-78J0D01*
G74*
G01*
X108669Y-50559D02*
G75*
G03X108669Y-50559I-78J0D01*
G74*
G01*
X109023Y-50559D02*
G75*
G03X109023Y-50559I-433J0D01*
G74*
G01*
X109377Y-50559D02*
G75*
G03X109377Y-50559I-787J0D01*
G74*
G01*
X112377Y-50559D02*
G75*
G03X112377Y-50559I-787J0D01*
G74*
G01*
X112023Y-50559D02*
G75*
G03X112023Y-50559I-433J0D01*
G74*
G01*
X111669Y-50559D02*
G75*
G03X111669Y-50559I-78J0D01*
G74*
G01*
X103377Y-50559D02*
G75*
G03X103377Y-50559I-787J0D01*
G74*
G01*
X103023Y-50559D02*
G75*
G03X103023Y-50559I-433J0D01*
G74*
G01*
X102669Y-50559D02*
G75*
G03X102669Y-50559I-78J0D01*
G74*
G01*
X99669Y-50559D02*
G75*
G03X99669Y-50559I-78J0D01*
G74*
G01*
X100023Y-50559D02*
G75*
G03X100023Y-50559I-433J0D01*
G74*
G01*
X100377Y-50559D02*
G75*
G03X100377Y-50559I-787J0D01*
G74*
G01*
X106377Y-38559D02*
G75*
G03X106377Y-38559I-787J0D01*
G74*
G01*
X106023Y-38559D02*
G75*
G03X106023Y-38559I-433J0D01*
G74*
G01*
X105669Y-38559D02*
G75*
G03X105669Y-38559I-78J0D01*
G74*
G01*
X108669Y-38559D02*
G75*
G03X108669Y-38559I-78J0D01*
G74*
G01*
X109023Y-38559D02*
G75*
G03X109023Y-38559I-433J0D01*
G74*
G01*
X109377Y-38559D02*
G75*
G03X109377Y-38559I-787J0D01*
G74*
G01*
X112377Y-38559D02*
G75*
G03X112377Y-38559I-787J0D01*
G74*
G01*
X112023Y-38559D02*
G75*
G03X112023Y-38559I-433J0D01*
G74*
G01*
X111669Y-38559D02*
G75*
G03X111669Y-38559I-78J0D01*
G74*
G01*
X103377Y-38559D02*
G75*
G03X103377Y-38559I-787J0D01*
G74*
G01*
X103023Y-38559D02*
G75*
G03X103023Y-38559I-433J0D01*
G74*
G01*
X102669Y-38559D02*
G75*
G03X102669Y-38559I-78J0D01*
G74*
G01*
X99669Y-38559D02*
G75*
G03X99669Y-38559I-78J0D01*
G74*
G01*
X100023Y-38559D02*
G75*
G03X100023Y-38559I-433J0D01*
G74*
G01*
X100377Y-38559D02*
G75*
G03X100377Y-38559I-787J0D01*
G74*
G01*
X106377Y-41559D02*
G75*
G03X106377Y-41559I-787J0D01*
G74*
G01*
X106023Y-41559D02*
G75*
G03X106023Y-41559I-433J0D01*
G74*
G01*
X105669Y-41559D02*
G75*
G03X105669Y-41559I-78J0D01*
G74*
G01*
X108669Y-41559D02*
G75*
G03X108669Y-41559I-78J0D01*
G74*
G01*
X109023Y-41559D02*
G75*
G03X109023Y-41559I-433J0D01*
G74*
G01*
X109377Y-41559D02*
G75*
G03X109377Y-41559I-787J0D01*
G74*
G01*
X112377Y-41559D02*
G75*
G03X112377Y-41559I-787J0D01*
G74*
G01*
X112023Y-41559D02*
G75*
G03X112023Y-41559I-433J0D01*
G74*
G01*
X111669Y-41559D02*
G75*
G03X111669Y-41559I-78J0D01*
G74*
G01*
X103377Y-41559D02*
G75*
G03X103377Y-41559I-787J0D01*
G74*
G01*
X103023Y-41559D02*
G75*
G03X103023Y-41559I-433J0D01*
G74*
G01*
X102669Y-41559D02*
G75*
G03X102669Y-41559I-78J0D01*
G74*
G01*
X99669Y-41559D02*
G75*
G03X99669Y-41559I-78J0D01*
G74*
G01*
X100023Y-41559D02*
G75*
G03X100023Y-41559I-433J0D01*
G74*
G01*
X100377Y-41559D02*
G75*
G03X100377Y-41559I-787J0D01*
G74*
G01*
X106377Y-44559D02*
G75*
G03X106377Y-44559I-787J0D01*
G74*
G01*
X106023Y-44559D02*
G75*
G03X106023Y-44559I-433J0D01*
G74*
G01*
X105669Y-44559D02*
G75*
G03X105669Y-44559I-78J0D01*
G74*
G01*
X108669Y-44559D02*
G75*
G03X108669Y-44559I-78J0D01*
G74*
G01*
X109023Y-44559D02*
G75*
G03X109023Y-44559I-433J0D01*
G74*
G01*
X109377Y-44559D02*
G75*
G03X109377Y-44559I-787J0D01*
G74*
G01*
X112377Y-44559D02*
G75*
G03X112377Y-44559I-787J0D01*
G74*
G01*
X112023Y-44559D02*
G75*
G03X112023Y-44559I-433J0D01*
G74*
G01*
X111669Y-44559D02*
G75*
G03X111669Y-44559I-78J0D01*
G74*
G01*
X103377Y-44559D02*
G75*
G03X103377Y-44559I-787J0D01*
G74*
G01*
X103023Y-44559D02*
G75*
G03X103023Y-44559I-433J0D01*
G74*
G01*
X102669Y-44559D02*
G75*
G03X102669Y-44559I-78J0D01*
G74*
G01*
X99669Y-44559D02*
G75*
G03X99669Y-44559I-78J0D01*
G74*
G01*
X100023Y-44559D02*
G75*
G03X100023Y-44559I-433J0D01*
G74*
G01*
X100377Y-44559D02*
G75*
G03X100377Y-44559I-787J0D01*
G74*
G01*
X100377Y-47559D02*
G75*
G03X100377Y-47559I-787J0D01*
G74*
G01*
X100023Y-47559D02*
G75*
G03X100023Y-47559I-433J0D01*
G74*
G01*
X99669Y-47559D02*
G75*
G03X99669Y-47559I-78J0D01*
G74*
G01*
X102669Y-47559D02*
G75*
G03X102669Y-47559I-78J0D01*
G74*
G01*
X103023Y-47559D02*
G75*
G03X103023Y-47559I-433J0D01*
G74*
G01*
X103377Y-47559D02*
G75*
G03X103377Y-47559I-787J0D01*
G74*
G01*
X111669Y-47559D02*
G75*
G03X111669Y-47559I-78J0D01*
G74*
G01*
X112023Y-47559D02*
G75*
G03X112023Y-47559I-433J0D01*
G74*
G01*
X112377Y-47559D02*
G75*
G03X112377Y-47559I-787J0D01*
G74*
G01*
X109377Y-47559D02*
G75*
G03X109377Y-47559I-787J0D01*
G74*
G01*
X109023Y-47559D02*
G75*
G03X109023Y-47559I-433J0D01*
G74*
G01*
X108669Y-47559D02*
G75*
G03X108669Y-47559I-78J0D01*
G74*
G01*
X105669Y-47559D02*
G75*
G03X105669Y-47559I-78J0D01*
G74*
G01*
X106023Y-47559D02*
G75*
G03X106023Y-47559I-433J0D01*
G74*
G01*
X106377Y-47559D02*
G75*
G03X106377Y-47559I-787J0D01*
G74*
G01*
G54D12*
X98149Y-57992D02*
X113031Y-57992D01*
X113031Y-37125D02*
X98149Y-37125D01*
X84330Y-57992D02*
X83070Y-56732D01*
X83070Y-56889D02*
X84173Y-57992D01*
X83070Y-57834D02*
X83228Y-57992D01*
X83385Y-57992D02*
X83070Y-57677D01*
X83070Y-57519D02*
X83543Y-57992D01*
X83700Y-57992D02*
X83070Y-57362D01*
X83070Y-57047D02*
X84015Y-57992D01*
X83858Y-57992D02*
X83070Y-57204D01*
X97992Y-57992D02*
X97992Y-53818D01*
X97992Y-49645D02*
X97992Y-45472D01*
X97992Y-41299D02*
X97992Y-37125D01*
X83464Y-45472D02*
X83464Y-41259D01*
X83464Y-53858D02*
X83464Y-49645D01*
X83070Y-45511D02*
X83464Y-45472D01*
X83070Y-45511D02*
X83070Y-49606D01*
X83070Y-49606D02*
X83464Y-49645D01*
X83070Y-53897D02*
X83464Y-53858D01*
X83070Y-53897D02*
X83070Y-57992D01*
X83070Y-37125D02*
X83070Y-41220D01*
X83070Y-41220D02*
X83464Y-41259D01*
X97992Y-49645D02*
X98385Y-49685D01*
X97992Y-45472D02*
X98385Y-45433D01*
X97992Y-41299D02*
X98385Y-41338D01*
X98385Y-41338D02*
X98385Y-45433D01*
X98385Y-49685D02*
X98385Y-53779D01*
X97992Y-53818D02*
X98385Y-53779D01*
G54D13*
X85299Y-56559D02*
G75*
G03X85299Y-56559I-787J0D01*
G74*
G01*
X84944Y-56559D02*
G75*
G03X84944Y-56559I-433J0D01*
G74*
G01*
X84590Y-56559D02*
G75*
G03X84590Y-56559I-78J0D01*
G74*
G01*
X87590Y-56559D02*
G75*
G03X87590Y-56559I-78J0D01*
G74*
G01*
X87944Y-56559D02*
G75*
G03X87944Y-56559I-433J0D01*
G74*
G01*
X88299Y-56559D02*
G75*
G03X88299Y-56559I-787J0D01*
G74*
G01*
X96590Y-56559D02*
G75*
G03X96590Y-56559I-78J0D01*
G74*
G01*
X96944Y-56559D02*
G75*
G03X96944Y-56559I-433J0D01*
G74*
G01*
X97299Y-56559D02*
G75*
G03X97299Y-56559I-787J0D01*
G74*
G01*
X94299Y-56559D02*
G75*
G03X94299Y-56559I-787J0D01*
G74*
G01*
X93944Y-56559D02*
G75*
G03X93944Y-56559I-433J0D01*
G74*
G01*
X93590Y-56559D02*
G75*
G03X93590Y-56559I-78J0D01*
G74*
G01*
X90590Y-56559D02*
G75*
G03X90590Y-56559I-78J0D01*
G74*
G01*
X90944Y-56559D02*
G75*
G03X90944Y-56559I-433J0D01*
G74*
G01*
X91299Y-56559D02*
G75*
G03X91299Y-56559I-787J0D01*
G74*
G01*
X85299Y-53559D02*
G75*
G03X85299Y-53559I-787J0D01*
G74*
G01*
X84944Y-53559D02*
G75*
G03X84944Y-53559I-433J0D01*
G74*
G01*
X84590Y-53559D02*
G75*
G03X84590Y-53559I-78J0D01*
G74*
G01*
X87590Y-53559D02*
G75*
G03X87590Y-53559I-78J0D01*
G74*
G01*
X87944Y-53559D02*
G75*
G03X87944Y-53559I-433J0D01*
G74*
G01*
X88299Y-53559D02*
G75*
G03X88299Y-53559I-787J0D01*
G74*
G01*
X96590Y-53559D02*
G75*
G03X96590Y-53559I-78J0D01*
G74*
G01*
X96944Y-53559D02*
G75*
G03X96944Y-53559I-433J0D01*
G74*
G01*
X97299Y-53559D02*
G75*
G03X97299Y-53559I-787J0D01*
G74*
G01*
X94299Y-53559D02*
G75*
G03X94299Y-53559I-787J0D01*
G74*
G01*
X93944Y-53559D02*
G75*
G03X93944Y-53559I-433J0D01*
G74*
G01*
X93590Y-53559D02*
G75*
G03X93590Y-53559I-78J0D01*
G74*
G01*
X90590Y-53559D02*
G75*
G03X90590Y-53559I-78J0D01*
G74*
G01*
X90944Y-53559D02*
G75*
G03X90944Y-53559I-433J0D01*
G74*
G01*
X91299Y-53559D02*
G75*
G03X91299Y-53559I-787J0D01*
G74*
G01*
X91299Y-50559D02*
G75*
G03X91299Y-50559I-787J0D01*
G74*
G01*
X90944Y-50559D02*
G75*
G03X90944Y-50559I-433J0D01*
G74*
G01*
X90590Y-50559D02*
G75*
G03X90590Y-50559I-78J0D01*
G74*
G01*
X93590Y-50559D02*
G75*
G03X93590Y-50559I-78J0D01*
G74*
G01*
X93944Y-50559D02*
G75*
G03X93944Y-50559I-433J0D01*
G74*
G01*
X94299Y-50559D02*
G75*
G03X94299Y-50559I-787J0D01*
G74*
G01*
X97299Y-50559D02*
G75*
G03X97299Y-50559I-787J0D01*
G74*
G01*
X96944Y-50559D02*
G75*
G03X96944Y-50559I-433J0D01*
G74*
G01*
X96590Y-50559D02*
G75*
G03X96590Y-50559I-78J0D01*
G74*
G01*
X88299Y-50559D02*
G75*
G03X88299Y-50559I-787J0D01*
G74*
G01*
X87944Y-50559D02*
G75*
G03X87944Y-50559I-433J0D01*
G74*
G01*
X87590Y-50559D02*
G75*
G03X87590Y-50559I-78J0D01*
G74*
G01*
X84590Y-50559D02*
G75*
G03X84590Y-50559I-78J0D01*
G74*
G01*
X84944Y-50559D02*
G75*
G03X84944Y-50559I-433J0D01*
G74*
G01*
X85299Y-50559D02*
G75*
G03X85299Y-50559I-787J0D01*
G74*
G01*
X91299Y-38559D02*
G75*
G03X91299Y-38559I-787J0D01*
G74*
G01*
X90944Y-38559D02*
G75*
G03X90944Y-38559I-433J0D01*
G74*
G01*
X90590Y-38559D02*
G75*
G03X90590Y-38559I-78J0D01*
G74*
G01*
X93590Y-38559D02*
G75*
G03X93590Y-38559I-78J0D01*
G74*
G01*
X93944Y-38559D02*
G75*
G03X93944Y-38559I-433J0D01*
G74*
G01*
X94299Y-38559D02*
G75*
G03X94299Y-38559I-787J0D01*
G74*
G01*
X97299Y-38559D02*
G75*
G03X97299Y-38559I-787J0D01*
G74*
G01*
X96944Y-38559D02*
G75*
G03X96944Y-38559I-433J0D01*
G74*
G01*
X96590Y-38559D02*
G75*
G03X96590Y-38559I-78J0D01*
G74*
G01*
X88299Y-38559D02*
G75*
G03X88299Y-38559I-787J0D01*
G74*
G01*
X87944Y-38559D02*
G75*
G03X87944Y-38559I-433J0D01*
G74*
G01*
X87590Y-38559D02*
G75*
G03X87590Y-38559I-78J0D01*
G74*
G01*
X84590Y-38559D02*
G75*
G03X84590Y-38559I-78J0D01*
G74*
G01*
X84944Y-38559D02*
G75*
G03X84944Y-38559I-433J0D01*
G74*
G01*
X85299Y-38559D02*
G75*
G03X85299Y-38559I-787J0D01*
G74*
G01*
X91299Y-41559D02*
G75*
G03X91299Y-41559I-787J0D01*
G74*
G01*
X90944Y-41559D02*
G75*
G03X90944Y-41559I-433J0D01*
G74*
G01*
X90590Y-41559D02*
G75*
G03X90590Y-41559I-78J0D01*
G74*
G01*
X93590Y-41559D02*
G75*
G03X93590Y-41559I-78J0D01*
G74*
G01*
X93944Y-41559D02*
G75*
G03X93944Y-41559I-433J0D01*
G74*
G01*
X94299Y-41559D02*
G75*
G03X94299Y-41559I-787J0D01*
G74*
G01*
X97299Y-41559D02*
G75*
G03X97299Y-41559I-787J0D01*
G74*
G01*
X96944Y-41559D02*
G75*
G03X96944Y-41559I-433J0D01*
G74*
G01*
X96590Y-41559D02*
G75*
G03X96590Y-41559I-78J0D01*
G74*
G01*
X88299Y-41559D02*
G75*
G03X88299Y-41559I-787J0D01*
G74*
G01*
X87944Y-41559D02*
G75*
G03X87944Y-41559I-433J0D01*
G74*
G01*
X87590Y-41559D02*
G75*
G03X87590Y-41559I-78J0D01*
G74*
G01*
X84590Y-41559D02*
G75*
G03X84590Y-41559I-78J0D01*
G74*
G01*
X84944Y-41559D02*
G75*
G03X84944Y-41559I-433J0D01*
G74*
G01*
X85299Y-41559D02*
G75*
G03X85299Y-41559I-787J0D01*
G74*
G01*
X91299Y-44559D02*
G75*
G03X91299Y-44559I-787J0D01*
G74*
G01*
X90944Y-44559D02*
G75*
G03X90944Y-44559I-433J0D01*
G74*
G01*
X90590Y-44559D02*
G75*
G03X90590Y-44559I-78J0D01*
G74*
G01*
X93590Y-44559D02*
G75*
G03X93590Y-44559I-78J0D01*
G74*
G01*
X93944Y-44559D02*
G75*
G03X93944Y-44559I-433J0D01*
G74*
G01*
X94299Y-44559D02*
G75*
G03X94299Y-44559I-787J0D01*
G74*
G01*
X97299Y-44559D02*
G75*
G03X97299Y-44559I-787J0D01*
G74*
G01*
X96944Y-44559D02*
G75*
G03X96944Y-44559I-433J0D01*
G74*
G01*
X96590Y-44559D02*
G75*
G03X96590Y-44559I-78J0D01*
G74*
G01*
X88299Y-44559D02*
G75*
G03X88299Y-44559I-787J0D01*
G74*
G01*
X87944Y-44559D02*
G75*
G03X87944Y-44559I-433J0D01*
G74*
G01*
X87590Y-44559D02*
G75*
G03X87590Y-44559I-78J0D01*
G74*
G01*
X84590Y-44559D02*
G75*
G03X84590Y-44559I-78J0D01*
G74*
G01*
X84944Y-44559D02*
G75*
G03X84944Y-44559I-433J0D01*
G74*
G01*
X85299Y-44559D02*
G75*
G03X85299Y-44559I-787J0D01*
G74*
G01*
X85299Y-47559D02*
G75*
G03X85299Y-47559I-787J0D01*
G74*
G01*
X84944Y-47559D02*
G75*
G03X84944Y-47559I-433J0D01*
G74*
G01*
X84590Y-47559D02*
G75*
G03X84590Y-47559I-78J0D01*
G74*
G01*
X87590Y-47559D02*
G75*
G03X87590Y-47559I-78J0D01*
G74*
G01*
X87944Y-47559D02*
G75*
G03X87944Y-47559I-433J0D01*
G74*
G01*
X88299Y-47559D02*
G75*
G03X88299Y-47559I-787J0D01*
G74*
G01*
X96590Y-47559D02*
G75*
G03X96590Y-47559I-78J0D01*
G74*
G01*
X96944Y-47559D02*
G75*
G03X96944Y-47559I-433J0D01*
G74*
G01*
X97299Y-47559D02*
G75*
G03X97299Y-47559I-787J0D01*
G74*
G01*
X94299Y-47559D02*
G75*
G03X94299Y-47559I-787J0D01*
G74*
G01*
X93944Y-47559D02*
G75*
G03X93944Y-47559I-433J0D01*
G74*
G01*
X93590Y-47559D02*
G75*
G03X93590Y-47559I-78J0D01*
G74*
G01*
X90590Y-47559D02*
G75*
G03X90590Y-47559I-78J0D01*
G74*
G01*
X90944Y-47559D02*
G75*
G03X90944Y-47559I-433J0D01*
G74*
G01*
X91299Y-47559D02*
G75*
G03X91299Y-47559I-787J0D01*
G74*
G01*
G54D12*
X83070Y-57992D02*
X97952Y-57992D01*
X97952Y-37125D02*
X83070Y-37125D01*
X54212Y-57992D02*
X52952Y-56732D01*
X52952Y-56889D02*
X54055Y-57992D01*
X52952Y-57834D02*
X53110Y-57992D01*
X53267Y-57992D02*
X52952Y-57677D01*
X52952Y-57519D02*
X53425Y-57992D01*
X53582Y-57992D02*
X52952Y-57362D01*
X52952Y-57047D02*
X53897Y-57992D01*
X53740Y-57992D02*
X52952Y-57204D01*
X67874Y-57992D02*
X67874Y-53818D01*
X67874Y-49645D02*
X67874Y-45472D01*
X67874Y-41299D02*
X67874Y-37125D01*
X53346Y-45472D02*
X53346Y-41259D01*
X53346Y-53858D02*
X53346Y-49645D01*
X52952Y-45511D02*
X53346Y-45472D01*
X52952Y-45511D02*
X52952Y-49606D01*
X52952Y-49606D02*
X53346Y-49645D01*
X52952Y-53897D02*
X53346Y-53858D01*
X52952Y-53897D02*
X52952Y-57992D01*
X52952Y-37125D02*
X52952Y-41220D01*
X52952Y-41220D02*
X53346Y-41259D01*
X67874Y-49645D02*
X68267Y-49685D01*
X67874Y-45472D02*
X68267Y-45433D01*
X67874Y-41299D02*
X68267Y-41338D01*
X68267Y-41338D02*
X68267Y-45433D01*
X68267Y-49685D02*
X68267Y-53779D01*
X67874Y-53818D02*
X68267Y-53779D01*
G54D13*
X55181Y-56559D02*
G75*
G03X55181Y-56559I-787J0D01*
G74*
G01*
X54826Y-56559D02*
G75*
G03X54826Y-56559I-433J0D01*
G74*
G01*
X54472Y-56559D02*
G75*
G03X54472Y-56559I-78J0D01*
G74*
G01*
X57472Y-56559D02*
G75*
G03X57472Y-56559I-78J0D01*
G74*
G01*
X57826Y-56559D02*
G75*
G03X57826Y-56559I-433J0D01*
G74*
G01*
X58181Y-56559D02*
G75*
G03X58181Y-56559I-787J0D01*
G74*
G01*
X66472Y-56559D02*
G75*
G03X66472Y-56559I-78J0D01*
G74*
G01*
X66826Y-56559D02*
G75*
G03X66826Y-56559I-433J0D01*
G74*
G01*
X67181Y-56559D02*
G75*
G03X67181Y-56559I-787J0D01*
G74*
G01*
X64181Y-56559D02*
G75*
G03X64181Y-56559I-787J0D01*
G74*
G01*
X63826Y-56559D02*
G75*
G03X63826Y-56559I-433J0D01*
G74*
G01*
X63472Y-56559D02*
G75*
G03X63472Y-56559I-78J0D01*
G74*
G01*
X60472Y-56559D02*
G75*
G03X60472Y-56559I-78J0D01*
G74*
G01*
X60826Y-56559D02*
G75*
G03X60826Y-56559I-433J0D01*
G74*
G01*
X61181Y-56559D02*
G75*
G03X61181Y-56559I-787J0D01*
G74*
G01*
X55181Y-53559D02*
G75*
G03X55181Y-53559I-787J0D01*
G74*
G01*
X54826Y-53559D02*
G75*
G03X54826Y-53559I-433J0D01*
G74*
G01*
X54472Y-53559D02*
G75*
G03X54472Y-53559I-78J0D01*
G74*
G01*
X57472Y-53559D02*
G75*
G03X57472Y-53559I-78J0D01*
G74*
G01*
X57826Y-53559D02*
G75*
G03X57826Y-53559I-433J0D01*
G74*
G01*
X58181Y-53559D02*
G75*
G03X58181Y-53559I-787J0D01*
G74*
G01*
X66472Y-53559D02*
G75*
G03X66472Y-53559I-78J0D01*
G74*
G01*
X66826Y-53559D02*
G75*
G03X66826Y-53559I-433J0D01*
G74*
G01*
X67181Y-53559D02*
G75*
G03X67181Y-53559I-787J0D01*
G74*
G01*
X64181Y-53559D02*
G75*
G03X64181Y-53559I-787J0D01*
G74*
G01*
X63826Y-53559D02*
G75*
G03X63826Y-53559I-433J0D01*
G74*
G01*
X63472Y-53559D02*
G75*
G03X63472Y-53559I-78J0D01*
G74*
G01*
X60472Y-53559D02*
G75*
G03X60472Y-53559I-78J0D01*
G74*
G01*
X60826Y-53559D02*
G75*
G03X60826Y-53559I-433J0D01*
G74*
G01*
X61181Y-53559D02*
G75*
G03X61181Y-53559I-787J0D01*
G74*
G01*
X61181Y-50559D02*
G75*
G03X61181Y-50559I-787J0D01*
G74*
G01*
X60826Y-50559D02*
G75*
G03X60826Y-50559I-433J0D01*
G74*
G01*
X60472Y-50559D02*
G75*
G03X60472Y-50559I-78J0D01*
G74*
G01*
X63472Y-50559D02*
G75*
G03X63472Y-50559I-78J0D01*
G74*
G01*
X63826Y-50559D02*
G75*
G03X63826Y-50559I-433J0D01*
G74*
G01*
X64181Y-50559D02*
G75*
G03X64181Y-50559I-787J0D01*
G74*
G01*
X67181Y-50559D02*
G75*
G03X67181Y-50559I-787J0D01*
G74*
G01*
X66826Y-50559D02*
G75*
G03X66826Y-50559I-433J0D01*
G74*
G01*
X66472Y-50559D02*
G75*
G03X66472Y-50559I-78J0D01*
G74*
G01*
X58181Y-50559D02*
G75*
G03X58181Y-50559I-787J0D01*
G74*
G01*
X57826Y-50559D02*
G75*
G03X57826Y-50559I-433J0D01*
G74*
G01*
X57472Y-50559D02*
G75*
G03X57472Y-50559I-78J0D01*
G74*
G01*
X54472Y-50559D02*
G75*
G03X54472Y-50559I-78J0D01*
G74*
G01*
X54826Y-50559D02*
G75*
G03X54826Y-50559I-433J0D01*
G74*
G01*
X55181Y-50559D02*
G75*
G03X55181Y-50559I-787J0D01*
G74*
G01*
X61181Y-38559D02*
G75*
G03X61181Y-38559I-787J0D01*
G74*
G01*
X60826Y-38559D02*
G75*
G03X60826Y-38559I-433J0D01*
G74*
G01*
X60472Y-38559D02*
G75*
G03X60472Y-38559I-78J0D01*
G74*
G01*
X63472Y-38559D02*
G75*
G03X63472Y-38559I-78J0D01*
G74*
G01*
X63826Y-38559D02*
G75*
G03X63826Y-38559I-433J0D01*
G74*
G01*
X64181Y-38559D02*
G75*
G03X64181Y-38559I-787J0D01*
G74*
G01*
X67181Y-38559D02*
G75*
G03X67181Y-38559I-787J0D01*
G74*
G01*
X66826Y-38559D02*
G75*
G03X66826Y-38559I-433J0D01*
G74*
G01*
X66472Y-38559D02*
G75*
G03X66472Y-38559I-78J0D01*
G74*
G01*
X58181Y-38559D02*
G75*
G03X58181Y-38559I-787J0D01*
G74*
G01*
X57826Y-38559D02*
G75*
G03X57826Y-38559I-433J0D01*
G74*
G01*
X57472Y-38559D02*
G75*
G03X57472Y-38559I-78J0D01*
G74*
G01*
X54472Y-38559D02*
G75*
G03X54472Y-38559I-78J0D01*
G74*
G01*
X54826Y-38559D02*
G75*
G03X54826Y-38559I-433J0D01*
G74*
G01*
X55181Y-38559D02*
G75*
G03X55181Y-38559I-787J0D01*
G74*
G01*
X61181Y-41559D02*
G75*
G03X61181Y-41559I-787J0D01*
G74*
G01*
X60826Y-41559D02*
G75*
G03X60826Y-41559I-433J0D01*
G74*
G01*
X60472Y-41559D02*
G75*
G03X60472Y-41559I-78J0D01*
G74*
G01*
X63472Y-41559D02*
G75*
G03X63472Y-41559I-78J0D01*
G74*
G01*
X63826Y-41559D02*
G75*
G03X63826Y-41559I-433J0D01*
G74*
G01*
X64181Y-41559D02*
G75*
G03X64181Y-41559I-787J0D01*
G74*
G01*
X67181Y-41559D02*
G75*
G03X67181Y-41559I-787J0D01*
G74*
G01*
X66826Y-41559D02*
G75*
G03X66826Y-41559I-433J0D01*
G74*
G01*
X66472Y-41559D02*
G75*
G03X66472Y-41559I-78J0D01*
G74*
G01*
X58181Y-41559D02*
G75*
G03X58181Y-41559I-787J0D01*
G74*
G01*
X57826Y-41559D02*
G75*
G03X57826Y-41559I-433J0D01*
G74*
G01*
X57472Y-41559D02*
G75*
G03X57472Y-41559I-78J0D01*
G74*
G01*
X54472Y-41559D02*
G75*
G03X54472Y-41559I-78J0D01*
G74*
G01*
X54826Y-41559D02*
G75*
G03X54826Y-41559I-433J0D01*
G74*
G01*
X55181Y-41559D02*
G75*
G03X55181Y-41559I-787J0D01*
G74*
G01*
X61181Y-44559D02*
G75*
G03X61181Y-44559I-787J0D01*
G74*
G01*
X60826Y-44559D02*
G75*
G03X60826Y-44559I-433J0D01*
G74*
G01*
X60472Y-44559D02*
G75*
G03X60472Y-44559I-78J0D01*
G74*
G01*
X63472Y-44559D02*
G75*
G03X63472Y-44559I-78J0D01*
G74*
G01*
X63826Y-44559D02*
G75*
G03X63826Y-44559I-433J0D01*
G74*
G01*
X64181Y-44559D02*
G75*
G03X64181Y-44559I-787J0D01*
G74*
G01*
X67181Y-44559D02*
G75*
G03X67181Y-44559I-787J0D01*
G74*
G01*
X66826Y-44559D02*
G75*
G03X66826Y-44559I-433J0D01*
G74*
G01*
X66472Y-44559D02*
G75*
G03X66472Y-44559I-78J0D01*
G74*
G01*
X58181Y-44559D02*
G75*
G03X58181Y-44559I-787J0D01*
G74*
G01*
X57826Y-44559D02*
G75*
G03X57826Y-44559I-433J0D01*
G74*
G01*
X57472Y-44559D02*
G75*
G03X57472Y-44559I-78J0D01*
G74*
G01*
X54472Y-44559D02*
G75*
G03X54472Y-44559I-78J0D01*
G74*
G01*
X54826Y-44559D02*
G75*
G03X54826Y-44559I-433J0D01*
G74*
G01*
X55181Y-44559D02*
G75*
G03X55181Y-44559I-787J0D01*
G74*
G01*
X55181Y-47559D02*
G75*
G03X55181Y-47559I-787J0D01*
G74*
G01*
X54826Y-47559D02*
G75*
G03X54826Y-47559I-433J0D01*
G74*
G01*
X54472Y-47559D02*
G75*
G03X54472Y-47559I-78J0D01*
G74*
G01*
X57472Y-47559D02*
G75*
G03X57472Y-47559I-78J0D01*
G74*
G01*
X57826Y-47559D02*
G75*
G03X57826Y-47559I-433J0D01*
G74*
G01*
X58181Y-47559D02*
G75*
G03X58181Y-47559I-787J0D01*
G74*
G01*
X66472Y-47559D02*
G75*
G03X66472Y-47559I-78J0D01*
G74*
G01*
X66826Y-47559D02*
G75*
G03X66826Y-47559I-433J0D01*
G74*
G01*
X67181Y-47559D02*
G75*
G03X67181Y-47559I-787J0D01*
G74*
G01*
X64181Y-47559D02*
G75*
G03X64181Y-47559I-787J0D01*
G74*
G01*
X63826Y-47559D02*
G75*
G03X63826Y-47559I-433J0D01*
G74*
G01*
X63472Y-47559D02*
G75*
G03X63472Y-47559I-78J0D01*
G74*
G01*
X60472Y-47559D02*
G75*
G03X60472Y-47559I-78J0D01*
G74*
G01*
X60826Y-47559D02*
G75*
G03X60826Y-47559I-433J0D01*
G74*
G01*
X61181Y-47559D02*
G75*
G03X61181Y-47559I-787J0D01*
G74*
G01*
G54D12*
X52952Y-57992D02*
X67834Y-57992D01*
X67834Y-37125D02*
X52952Y-37125D01*
X24114Y-57992D02*
X22854Y-56732D01*
X22854Y-56889D02*
X23956Y-57992D01*
X22854Y-57834D02*
X23011Y-57992D01*
X23169Y-57992D02*
X22854Y-57677D01*
X22854Y-57519D02*
X23326Y-57992D01*
X23484Y-57992D02*
X22854Y-57362D01*
X22854Y-57047D02*
X23799Y-57992D01*
X23641Y-57992D02*
X22854Y-57204D01*
X37775Y-57992D02*
X37775Y-53818D01*
X37775Y-49645D02*
X37775Y-45472D01*
X37775Y-41299D02*
X37775Y-37125D01*
X23248Y-45472D02*
X23248Y-41259D01*
X23248Y-53858D02*
X23248Y-49645D01*
X22854Y-45511D02*
X23248Y-45472D01*
X22854Y-45511D02*
X22854Y-49606D01*
X22854Y-49606D02*
X23248Y-49645D01*
X22854Y-53897D02*
X23248Y-53858D01*
X22854Y-53897D02*
X22854Y-57992D01*
X22854Y-37125D02*
X22854Y-41220D01*
X22854Y-41220D02*
X23248Y-41259D01*
X37775Y-49645D02*
X38169Y-49685D01*
X37775Y-45472D02*
X38169Y-45433D01*
X37775Y-41299D02*
X38169Y-41338D01*
X38169Y-41338D02*
X38169Y-45433D01*
X38169Y-49685D02*
X38169Y-53779D01*
X37775Y-53818D02*
X38169Y-53779D01*
G54D13*
X25082Y-56559D02*
G75*
G03X25082Y-56559I-787J0D01*
G74*
G01*
X24728Y-56559D02*
G75*
G03X24728Y-56559I-433J0D01*
G74*
G01*
X24374Y-56559D02*
G75*
G03X24374Y-56559I-78J0D01*
G74*
G01*
X27374Y-56559D02*
G75*
G03X27374Y-56559I-78J0D01*
G74*
G01*
X27728Y-56559D02*
G75*
G03X27728Y-56559I-433J0D01*
G74*
G01*
X28082Y-56559D02*
G75*
G03X28082Y-56559I-787J0D01*
G74*
G01*
X36374Y-56559D02*
G75*
G03X36374Y-56559I-78J0D01*
G74*
G01*
X36728Y-56559D02*
G75*
G03X36728Y-56559I-433J0D01*
G74*
G01*
X37082Y-56559D02*
G75*
G03X37082Y-56559I-787J0D01*
G74*
G01*
X34082Y-56559D02*
G75*
G03X34082Y-56559I-787J0D01*
G74*
G01*
X33728Y-56559D02*
G75*
G03X33728Y-56559I-433J0D01*
G74*
G01*
X33374Y-56559D02*
G75*
G03X33374Y-56559I-78J0D01*
G74*
G01*
X30374Y-56559D02*
G75*
G03X30374Y-56559I-78J0D01*
G74*
G01*
X30728Y-56559D02*
G75*
G03X30728Y-56559I-433J0D01*
G74*
G01*
X31082Y-56559D02*
G75*
G03X31082Y-56559I-787J0D01*
G74*
G01*
X25082Y-53559D02*
G75*
G03X25082Y-53559I-787J0D01*
G74*
G01*
X24728Y-53559D02*
G75*
G03X24728Y-53559I-433J0D01*
G74*
G01*
X24374Y-53559D02*
G75*
G03X24374Y-53559I-78J0D01*
G74*
G01*
X27374Y-53559D02*
G75*
G03X27374Y-53559I-78J0D01*
G74*
G01*
X27728Y-53559D02*
G75*
G03X27728Y-53559I-433J0D01*
G74*
G01*
X28082Y-53559D02*
G75*
G03X28082Y-53559I-787J0D01*
G74*
G01*
X36374Y-53559D02*
G75*
G03X36374Y-53559I-78J0D01*
G74*
G01*
X36728Y-53559D02*
G75*
G03X36728Y-53559I-433J0D01*
G74*
G01*
X37082Y-53559D02*
G75*
G03X37082Y-53559I-787J0D01*
G74*
G01*
X34082Y-53559D02*
G75*
G03X34082Y-53559I-787J0D01*
G74*
G01*
X33728Y-53559D02*
G75*
G03X33728Y-53559I-433J0D01*
G74*
G01*
X33374Y-53559D02*
G75*
G03X33374Y-53559I-78J0D01*
G74*
G01*
X30374Y-53559D02*
G75*
G03X30374Y-53559I-78J0D01*
G74*
G01*
X30728Y-53559D02*
G75*
G03X30728Y-53559I-433J0D01*
G74*
G01*
X31082Y-53559D02*
G75*
G03X31082Y-53559I-787J0D01*
G74*
G01*
X31082Y-50559D02*
G75*
G03X31082Y-50559I-787J0D01*
G74*
G01*
X30728Y-50559D02*
G75*
G03X30728Y-50559I-433J0D01*
G74*
G01*
X30374Y-50559D02*
G75*
G03X30374Y-50559I-78J0D01*
G74*
G01*
X33374Y-50559D02*
G75*
G03X33374Y-50559I-78J0D01*
G74*
G01*
X33728Y-50559D02*
G75*
G03X33728Y-50559I-433J0D01*
G74*
G01*
X34082Y-50559D02*
G75*
G03X34082Y-50559I-787J0D01*
G74*
G01*
X37082Y-50559D02*
G75*
G03X37082Y-50559I-787J0D01*
G74*
G01*
X36728Y-50559D02*
G75*
G03X36728Y-50559I-433J0D01*
G74*
G01*
X36374Y-50559D02*
G75*
G03X36374Y-50559I-78J0D01*
G74*
G01*
X28082Y-50559D02*
G75*
G03X28082Y-50559I-787J0D01*
G74*
G01*
X27728Y-50559D02*
G75*
G03X27728Y-50559I-433J0D01*
G74*
G01*
X27374Y-50559D02*
G75*
G03X27374Y-50559I-78J0D01*
G74*
G01*
X24374Y-50559D02*
G75*
G03X24374Y-50559I-78J0D01*
G74*
G01*
X24728Y-50559D02*
G75*
G03X24728Y-50559I-433J0D01*
G74*
G01*
X25082Y-50559D02*
G75*
G03X25082Y-50559I-787J0D01*
G74*
G01*
X31082Y-38559D02*
G75*
G03X31082Y-38559I-787J0D01*
G74*
G01*
X30728Y-38559D02*
G75*
G03X30728Y-38559I-433J0D01*
G74*
G01*
X30374Y-38559D02*
G75*
G03X30374Y-38559I-78J0D01*
G74*
G01*
X33374Y-38559D02*
G75*
G03X33374Y-38559I-78J0D01*
G74*
G01*
X33728Y-38559D02*
G75*
G03X33728Y-38559I-433J0D01*
G74*
G01*
X34082Y-38559D02*
G75*
G03X34082Y-38559I-787J0D01*
G74*
G01*
X37082Y-38559D02*
G75*
G03X37082Y-38559I-787J0D01*
G74*
G01*
X36728Y-38559D02*
G75*
G03X36728Y-38559I-433J0D01*
G74*
G01*
X36374Y-38559D02*
G75*
G03X36374Y-38559I-78J0D01*
G74*
G01*
X28082Y-38559D02*
G75*
G03X28082Y-38559I-787J0D01*
G74*
G01*
X27728Y-38559D02*
G75*
G03X27728Y-38559I-433J0D01*
G74*
G01*
X27374Y-38559D02*
G75*
G03X27374Y-38559I-78J0D01*
G74*
G01*
X24374Y-38559D02*
G75*
G03X24374Y-38559I-78J0D01*
G74*
G01*
X24728Y-38559D02*
G75*
G03X24728Y-38559I-433J0D01*
G74*
G01*
X25082Y-38559D02*
G75*
G03X25082Y-38559I-787J0D01*
G74*
G01*
X31082Y-41559D02*
G75*
G03X31082Y-41559I-787J0D01*
G74*
G01*
X30728Y-41559D02*
G75*
G03X30728Y-41559I-433J0D01*
G74*
G01*
X30374Y-41559D02*
G75*
G03X30374Y-41559I-78J0D01*
G74*
G01*
X33374Y-41559D02*
G75*
G03X33374Y-41559I-78J0D01*
G74*
G01*
X33728Y-41559D02*
G75*
G03X33728Y-41559I-433J0D01*
G74*
G01*
X34082Y-41559D02*
G75*
G03X34082Y-41559I-787J0D01*
G74*
G01*
X37082Y-41559D02*
G75*
G03X37082Y-41559I-787J0D01*
G74*
G01*
X36728Y-41559D02*
G75*
G03X36728Y-41559I-433J0D01*
G74*
G01*
X36374Y-41559D02*
G75*
G03X36374Y-41559I-78J0D01*
G74*
G01*
X28082Y-41559D02*
G75*
G03X28082Y-41559I-787J0D01*
G74*
G01*
X27728Y-41559D02*
G75*
G03X27728Y-41559I-433J0D01*
G74*
G01*
X27374Y-41559D02*
G75*
G03X27374Y-41559I-78J0D01*
G74*
G01*
X24374Y-41559D02*
G75*
G03X24374Y-41559I-78J0D01*
G74*
G01*
X24728Y-41559D02*
G75*
G03X24728Y-41559I-433J0D01*
G74*
G01*
X25082Y-41559D02*
G75*
G03X25082Y-41559I-787J0D01*
G74*
G01*
X31082Y-44559D02*
G75*
G03X31082Y-44559I-787J0D01*
G74*
G01*
X30728Y-44559D02*
G75*
G03X30728Y-44559I-433J0D01*
G74*
G01*
X30374Y-44559D02*
G75*
G03X30374Y-44559I-78J0D01*
G74*
G01*
X33374Y-44559D02*
G75*
G03X33374Y-44559I-78J0D01*
G74*
G01*
X33728Y-44559D02*
G75*
G03X33728Y-44559I-433J0D01*
G74*
G01*
X34082Y-44559D02*
G75*
G03X34082Y-44559I-787J0D01*
G74*
G01*
X37082Y-44559D02*
G75*
G03X37082Y-44559I-787J0D01*
G74*
G01*
X36728Y-44559D02*
G75*
G03X36728Y-44559I-433J0D01*
G74*
G01*
X36374Y-44559D02*
G75*
G03X36374Y-44559I-78J0D01*
G74*
G01*
X28082Y-44559D02*
G75*
G03X28082Y-44559I-787J0D01*
G74*
G01*
X27728Y-44559D02*
G75*
G03X27728Y-44559I-433J0D01*
G74*
G01*
X27374Y-44559D02*
G75*
G03X27374Y-44559I-78J0D01*
G74*
G01*
X24374Y-44559D02*
G75*
G03X24374Y-44559I-78J0D01*
G74*
G01*
X24728Y-44559D02*
G75*
G03X24728Y-44559I-433J0D01*
G74*
G01*
X25082Y-44559D02*
G75*
G03X25082Y-44559I-787J0D01*
G74*
G01*
X25082Y-47559D02*
G75*
G03X25082Y-47559I-787J0D01*
G74*
G01*
X24728Y-47559D02*
G75*
G03X24728Y-47559I-433J0D01*
G74*
G01*
X24374Y-47559D02*
G75*
G03X24374Y-47559I-78J0D01*
G74*
G01*
X27374Y-47559D02*
G75*
G03X27374Y-47559I-78J0D01*
G74*
G01*
X27728Y-47559D02*
G75*
G03X27728Y-47559I-433J0D01*
G74*
G01*
X28082Y-47559D02*
G75*
G03X28082Y-47559I-787J0D01*
G74*
G01*
X36374Y-47559D02*
G75*
G03X36374Y-47559I-78J0D01*
G74*
G01*
X36728Y-47559D02*
G75*
G03X36728Y-47559I-433J0D01*
G74*
G01*
X37082Y-47559D02*
G75*
G03X37082Y-47559I-787J0D01*
G74*
G01*
X34082Y-47559D02*
G75*
G03X34082Y-47559I-787J0D01*
G74*
G01*
X33728Y-47559D02*
G75*
G03X33728Y-47559I-433J0D01*
G74*
G01*
X33374Y-47559D02*
G75*
G03X33374Y-47559I-78J0D01*
G74*
G01*
X30374Y-47559D02*
G75*
G03X30374Y-47559I-78J0D01*
G74*
G01*
X30728Y-47559D02*
G75*
G03X30728Y-47559I-433J0D01*
G74*
G01*
X31082Y-47559D02*
G75*
G03X31082Y-47559I-787J0D01*
G74*
G01*
G54D12*
X22854Y-57992D02*
X37736Y-57992D01*
X37736Y-37125D02*
X22854Y-37125D01*
X129527Y-57992D02*
X128267Y-56732D01*
X128267Y-56889D02*
X129370Y-57992D01*
X128267Y-57834D02*
X128425Y-57992D01*
X128582Y-57992D02*
X128267Y-57677D01*
X128267Y-57519D02*
X128740Y-57992D01*
X128897Y-57992D02*
X128267Y-57362D01*
X128267Y-57047D02*
X129212Y-57992D01*
X129055Y-57992D02*
X128267Y-57204D01*
X143188Y-57992D02*
X143188Y-53818D01*
X143188Y-49645D02*
X143188Y-45472D01*
X143188Y-41299D02*
X143188Y-37125D01*
X128661Y-45472D02*
X128661Y-41259D01*
X128661Y-53858D02*
X128661Y-49645D01*
X128267Y-45511D02*
X128661Y-45472D01*
X128267Y-45511D02*
X128267Y-49606D01*
X128267Y-49606D02*
X128661Y-49645D01*
X128267Y-53897D02*
X128661Y-53858D01*
X128267Y-53897D02*
X128267Y-57992D01*
X128267Y-37125D02*
X128267Y-41220D01*
X128267Y-41220D02*
X128661Y-41259D01*
X143188Y-49645D02*
X143582Y-49685D01*
X143188Y-45472D02*
X143582Y-45433D01*
X143188Y-41299D02*
X143582Y-41338D01*
X143582Y-41338D02*
X143582Y-45433D01*
X143582Y-49685D02*
X143582Y-53779D01*
X143188Y-53818D02*
X143582Y-53779D01*
G54D13*
X130496Y-56559D02*
G75*
G03X130496Y-56559I-787J0D01*
G74*
G01*
X130141Y-56559D02*
G75*
G03X130141Y-56559I-433J0D01*
G74*
G01*
X129787Y-56559D02*
G75*
G03X129787Y-56559I-78J0D01*
G74*
G01*
X132787Y-56559D02*
G75*
G03X132787Y-56559I-78J0D01*
G74*
G01*
X133141Y-56559D02*
G75*
G03X133141Y-56559I-433J0D01*
G74*
G01*
X133496Y-56559D02*
G75*
G03X133496Y-56559I-787J0D01*
G74*
G01*
X141787Y-56559D02*
G75*
G03X141787Y-56559I-78J0D01*
G74*
G01*
X142141Y-56559D02*
G75*
G03X142141Y-56559I-433J0D01*
G74*
G01*
X142496Y-56559D02*
G75*
G03X142496Y-56559I-787J0D01*
G74*
G01*
X139496Y-56559D02*
G75*
G03X139496Y-56559I-787J0D01*
G74*
G01*
X139141Y-56559D02*
G75*
G03X139141Y-56559I-433J0D01*
G74*
G01*
X138787Y-56559D02*
G75*
G03X138787Y-56559I-78J0D01*
G74*
G01*
X135787Y-56559D02*
G75*
G03X135787Y-56559I-78J0D01*
G74*
G01*
X136141Y-56559D02*
G75*
G03X136141Y-56559I-433J0D01*
G74*
G01*
X136496Y-56559D02*
G75*
G03X136496Y-56559I-787J0D01*
G74*
G01*
X130496Y-53559D02*
G75*
G03X130496Y-53559I-787J0D01*
G74*
G01*
X130141Y-53559D02*
G75*
G03X130141Y-53559I-433J0D01*
G74*
G01*
X129787Y-53559D02*
G75*
G03X129787Y-53559I-78J0D01*
G74*
G01*
X132787Y-53559D02*
G75*
G03X132787Y-53559I-78J0D01*
G74*
G01*
X133141Y-53559D02*
G75*
G03X133141Y-53559I-433J0D01*
G74*
G01*
X133496Y-53559D02*
G75*
G03X133496Y-53559I-787J0D01*
G74*
G01*
X141787Y-53559D02*
G75*
G03X141787Y-53559I-78J0D01*
G74*
G01*
X142141Y-53559D02*
G75*
G03X142141Y-53559I-433J0D01*
G74*
G01*
X142496Y-53559D02*
G75*
G03X142496Y-53559I-787J0D01*
G74*
G01*
X139496Y-53559D02*
G75*
G03X139496Y-53559I-787J0D01*
G74*
G01*
X139141Y-53559D02*
G75*
G03X139141Y-53559I-433J0D01*
G74*
G01*
X138787Y-53559D02*
G75*
G03X138787Y-53559I-78J0D01*
G74*
G01*
X135787Y-53559D02*
G75*
G03X135787Y-53559I-78J0D01*
G74*
G01*
X136141Y-53559D02*
G75*
G03X136141Y-53559I-433J0D01*
G74*
G01*
X136496Y-53559D02*
G75*
G03X136496Y-53559I-787J0D01*
G74*
G01*
X136496Y-50559D02*
G75*
G03X136496Y-50559I-787J0D01*
G74*
G01*
X136141Y-50559D02*
G75*
G03X136141Y-50559I-433J0D01*
G74*
G01*
X135787Y-50559D02*
G75*
G03X135787Y-50559I-78J0D01*
G74*
G01*
X138787Y-50559D02*
G75*
G03X138787Y-50559I-78J0D01*
G74*
G01*
X139141Y-50559D02*
G75*
G03X139141Y-50559I-433J0D01*
G74*
G01*
X139496Y-50559D02*
G75*
G03X139496Y-50559I-787J0D01*
G74*
G01*
X142496Y-50559D02*
G75*
G03X142496Y-50559I-787J0D01*
G74*
G01*
X142141Y-50559D02*
G75*
G03X142141Y-50559I-433J0D01*
G74*
G01*
X141787Y-50559D02*
G75*
G03X141787Y-50559I-78J0D01*
G74*
G01*
X133496Y-50559D02*
G75*
G03X133496Y-50559I-787J0D01*
G74*
G01*
X133141Y-50559D02*
G75*
G03X133141Y-50559I-433J0D01*
G74*
G01*
X132787Y-50559D02*
G75*
G03X132787Y-50559I-78J0D01*
G74*
G01*
X129787Y-50559D02*
G75*
G03X129787Y-50559I-78J0D01*
G74*
G01*
X130141Y-50559D02*
G75*
G03X130141Y-50559I-433J0D01*
G74*
G01*
X130496Y-50559D02*
G75*
G03X130496Y-50559I-787J0D01*
G74*
G01*
X136496Y-38559D02*
G75*
G03X136496Y-38559I-787J0D01*
G74*
G01*
X136141Y-38559D02*
G75*
G03X136141Y-38559I-433J0D01*
G74*
G01*
X135787Y-38559D02*
G75*
G03X135787Y-38559I-78J0D01*
G74*
G01*
X138787Y-38559D02*
G75*
G03X138787Y-38559I-78J0D01*
G74*
G01*
X139141Y-38559D02*
G75*
G03X139141Y-38559I-433J0D01*
G74*
G01*
X139496Y-38559D02*
G75*
G03X139496Y-38559I-787J0D01*
G74*
G01*
X142496Y-38559D02*
G75*
G03X142496Y-38559I-787J0D01*
G74*
G01*
X142141Y-38559D02*
G75*
G03X142141Y-38559I-433J0D01*
G74*
G01*
X141787Y-38559D02*
G75*
G03X141787Y-38559I-78J0D01*
G74*
G01*
X133496Y-38559D02*
G75*
G03X133496Y-38559I-787J0D01*
G74*
G01*
X133141Y-38559D02*
G75*
G03X133141Y-38559I-433J0D01*
G74*
G01*
X132787Y-38559D02*
G75*
G03X132787Y-38559I-78J0D01*
G74*
G01*
X129787Y-38559D02*
G75*
G03X129787Y-38559I-78J0D01*
G74*
G01*
X130141Y-38559D02*
G75*
G03X130141Y-38559I-433J0D01*
G74*
G01*
X130496Y-38559D02*
G75*
G03X130496Y-38559I-787J0D01*
G74*
G01*
X136496Y-41559D02*
G75*
G03X136496Y-41559I-787J0D01*
G74*
G01*
X136141Y-41559D02*
G75*
G03X136141Y-41559I-433J0D01*
G74*
G01*
X135787Y-41559D02*
G75*
G03X135787Y-41559I-78J0D01*
G74*
G01*
X138787Y-41559D02*
G75*
G03X138787Y-41559I-78J0D01*
G74*
G01*
X139141Y-41559D02*
G75*
G03X139141Y-41559I-433J0D01*
G74*
G01*
X139496Y-41559D02*
G75*
G03X139496Y-41559I-787J0D01*
G74*
G01*
X142496Y-41559D02*
G75*
G03X142496Y-41559I-787J0D01*
G74*
G01*
X142141Y-41559D02*
G75*
G03X142141Y-41559I-433J0D01*
G74*
G01*
X141787Y-41559D02*
G75*
G03X141787Y-41559I-78J0D01*
G74*
G01*
X133496Y-41559D02*
G75*
G03X133496Y-41559I-787J0D01*
G74*
G01*
X133141Y-41559D02*
G75*
G03X133141Y-41559I-433J0D01*
G74*
G01*
X132787Y-41559D02*
G75*
G03X132787Y-41559I-78J0D01*
G74*
G01*
X129787Y-41559D02*
G75*
G03X129787Y-41559I-78J0D01*
G74*
G01*
X130141Y-41559D02*
G75*
G03X130141Y-41559I-433J0D01*
G74*
G01*
X130496Y-41559D02*
G75*
G03X130496Y-41559I-787J0D01*
G74*
G01*
X136496Y-44559D02*
G75*
G03X136496Y-44559I-787J0D01*
G74*
G01*
X136141Y-44559D02*
G75*
G03X136141Y-44559I-433J0D01*
G74*
G01*
X135787Y-44559D02*
G75*
G03X135787Y-44559I-78J0D01*
G74*
G01*
X138787Y-44559D02*
G75*
G03X138787Y-44559I-78J0D01*
G74*
G01*
X139141Y-44559D02*
G75*
G03X139141Y-44559I-433J0D01*
G74*
G01*
X139496Y-44559D02*
G75*
G03X139496Y-44559I-787J0D01*
G74*
G01*
X142496Y-44559D02*
G75*
G03X142496Y-44559I-787J0D01*
G74*
G01*
X142141Y-44559D02*
G75*
G03X142141Y-44559I-433J0D01*
G74*
G01*
X141787Y-44559D02*
G75*
G03X141787Y-44559I-78J0D01*
G74*
G01*
X133496Y-44559D02*
G75*
G03X133496Y-44559I-787J0D01*
G74*
G01*
X133141Y-44559D02*
G75*
G03X133141Y-44559I-433J0D01*
G74*
G01*
X132787Y-44559D02*
G75*
G03X132787Y-44559I-78J0D01*
G74*
G01*
X129787Y-44559D02*
G75*
G03X129787Y-44559I-78J0D01*
G74*
G01*
X130141Y-44559D02*
G75*
G03X130141Y-44559I-433J0D01*
G74*
G01*
X130496Y-44559D02*
G75*
G03X130496Y-44559I-787J0D01*
G74*
G01*
X130496Y-47559D02*
G75*
G03X130496Y-47559I-787J0D01*
G74*
G01*
X130141Y-47559D02*
G75*
G03X130141Y-47559I-433J0D01*
G74*
G01*
X129787Y-47559D02*
G75*
G03X129787Y-47559I-78J0D01*
G74*
G01*
X132787Y-47559D02*
G75*
G03X132787Y-47559I-78J0D01*
G74*
G01*
X133141Y-47559D02*
G75*
G03X133141Y-47559I-433J0D01*
G74*
G01*
X133496Y-47559D02*
G75*
G03X133496Y-47559I-787J0D01*
G74*
G01*
X141787Y-47559D02*
G75*
G03X141787Y-47559I-78J0D01*
G74*
G01*
X142141Y-47559D02*
G75*
G03X142141Y-47559I-433J0D01*
G74*
G01*
X142496Y-47559D02*
G75*
G03X142496Y-47559I-787J0D01*
G74*
G01*
X139496Y-47559D02*
G75*
G03X139496Y-47559I-787J0D01*
G74*
G01*
X139141Y-47559D02*
G75*
G03X139141Y-47559I-433J0D01*
G74*
G01*
X138787Y-47559D02*
G75*
G03X138787Y-47559I-78J0D01*
G74*
G01*
X135787Y-47559D02*
G75*
G03X135787Y-47559I-78J0D01*
G74*
G01*
X136141Y-47559D02*
G75*
G03X136141Y-47559I-433J0D01*
G74*
G01*
X136496Y-47559D02*
G75*
G03X136496Y-47559I-787J0D01*
G74*
G01*
G54D12*
X128267Y-57992D02*
X143149Y-57992D01*
X143149Y-37125D02*
X128267Y-37125D01*
G54D14*
X102000Y-60875D02*
G75*
G03X102000Y-60875I-900J0D01*
G74*
G01*
X124975Y-60775D02*
G75*
G03X124975Y-60775I-900J0D01*
G74*
G01*
X41700Y-60800D02*
G75*
G03X41700Y-60800I-900J0D01*
G74*
G01*
X64725Y-60775D02*
G75*
G03X64725Y-60775I-900J0D01*
G74*
G01*
X141700Y-63200D02*
G75*
G03X141700Y-63200I-900J0D01*
G74*
G01*
X26300Y-31800D02*
G75*
G03X26300Y-31800I-900J0D01*
G74*
G01*
X142100Y-31600D02*
G75*
G03X142100Y-31600I-900J0D01*
G74*
G01*
X83100Y-31800D02*
G75*
G03X83100Y-31800I-900J0D01*
G74*
G01*
X25900Y-64000D02*
G75*
G03X25900Y-64000I-900J0D01*
G74*
G01*
X83100Y-63200D02*
G75*
G03X83100Y-63200I-900J0D01*
G74*
G01*
G54D15*
X48042Y-32779D02*
X48042Y-32098D01*
X48205Y-32098D01*
X48246Y-32131D01*
X48266Y-32163D01*
X48286Y-32228D01*
X48286Y-32325D01*
X48266Y-32390D01*
X48246Y-32422D01*
X48205Y-32455D01*
X48042Y-32455D01*
X48694Y-32779D02*
X48449Y-32779D01*
X48572Y-32779D02*
X48572Y-32098D01*
X48531Y-32195D01*
X48490Y-32260D01*
X48449Y-32293D01*
G54D16*
X54820Y-32689D02*
X54801Y-32718D01*
X54743Y-32746D01*
X54705Y-32746D01*
X54648Y-32718D01*
X54610Y-32661D01*
X54591Y-32603D01*
X54572Y-32489D01*
X54572Y-32403D01*
X54591Y-32289D01*
X54610Y-32232D01*
X54648Y-32175D01*
X54705Y-32146D01*
X54743Y-32146D01*
X54801Y-32175D01*
X54820Y-32203D01*
X55067Y-32146D02*
X55143Y-32146D01*
X55182Y-32175D01*
X55220Y-32232D01*
X55239Y-32346D01*
X55239Y-32546D01*
X55220Y-32661D01*
X55182Y-32718D01*
X55143Y-32746D01*
X55067Y-32746D01*
X55029Y-32718D01*
X54991Y-32661D01*
X54972Y-32546D01*
X54972Y-32346D01*
X54991Y-32232D01*
X55029Y-32175D01*
X55067Y-32146D01*
X55410Y-32746D02*
X55410Y-32146D01*
X55639Y-32746D01*
X55639Y-32146D01*
X55829Y-32746D02*
X55829Y-32146D01*
X56058Y-32746D01*
X56058Y-32146D01*
X56153Y-32803D02*
X56458Y-32803D01*
X56534Y-32203D02*
X56553Y-32175D01*
X56591Y-32146D01*
X56686Y-32146D01*
X56724Y-32175D01*
X56743Y-32203D01*
X56763Y-32261D01*
X56763Y-32318D01*
X56743Y-32403D01*
X56515Y-32746D01*
X56763Y-32746D01*
X57105Y-32346D02*
X57105Y-32746D01*
X57010Y-32118D02*
X56915Y-32546D01*
X57163Y-32546D01*
G54D11*
G54D15*
X108317Y-32759D02*
X108317Y-32078D01*
X108481Y-32078D01*
X108521Y-32111D01*
X108542Y-32143D01*
X108562Y-32208D01*
X108562Y-32305D01*
X108542Y-32370D01*
X108521Y-32403D01*
X108481Y-32435D01*
X108317Y-32435D01*
X108725Y-32143D02*
X108745Y-32111D01*
X108786Y-32078D01*
X108888Y-32078D01*
X108929Y-32111D01*
X108949Y-32143D01*
X108970Y-32208D01*
X108970Y-32273D01*
X108949Y-32370D01*
X108705Y-32759D01*
X108970Y-32759D01*
G54D16*
X115095Y-32669D02*
X115076Y-32698D01*
X115019Y-32727D01*
X114981Y-32727D01*
X114924Y-32698D01*
X114886Y-32641D01*
X114867Y-32584D01*
X114848Y-32469D01*
X114848Y-32384D01*
X114867Y-32269D01*
X114886Y-32212D01*
X114924Y-32155D01*
X114981Y-32127D01*
X115019Y-32127D01*
X115076Y-32155D01*
X115095Y-32184D01*
X115343Y-32127D02*
X115419Y-32127D01*
X115457Y-32155D01*
X115495Y-32212D01*
X115514Y-32327D01*
X115514Y-32527D01*
X115495Y-32641D01*
X115457Y-32698D01*
X115419Y-32727D01*
X115343Y-32727D01*
X115305Y-32698D01*
X115267Y-32641D01*
X115248Y-32527D01*
X115248Y-32327D01*
X115267Y-32212D01*
X115305Y-32155D01*
X115343Y-32127D01*
X115686Y-32727D02*
X115686Y-32127D01*
X115914Y-32727D01*
X115914Y-32127D01*
X116105Y-32727D02*
X116105Y-32127D01*
X116333Y-32727D01*
X116333Y-32127D01*
X116429Y-32784D02*
X116733Y-32784D01*
X116810Y-32184D02*
X116829Y-32155D01*
X116867Y-32127D01*
X116962Y-32127D01*
X117000Y-32155D01*
X117019Y-32184D01*
X117038Y-32241D01*
X117038Y-32298D01*
X117019Y-32384D01*
X116791Y-32727D01*
X117038Y-32727D01*
X117381Y-32327D02*
X117381Y-32727D01*
X117286Y-32098D02*
X117191Y-32527D01*
X117438Y-32527D01*
G54D11*
G54D12*
X119932Y-36774D02*
X119932Y-36183D01*
X120073Y-36183D01*
X120157Y-36212D01*
X120213Y-36268D01*
X120241Y-36324D01*
X120269Y-36437D01*
X120269Y-36521D01*
X120241Y-36633D01*
X120213Y-36690D01*
X120157Y-36746D01*
X120073Y-36774D01*
X119932Y-36774D01*
X120494Y-36746D02*
X120579Y-36774D01*
X120719Y-36774D01*
X120776Y-36746D01*
X120804Y-36718D01*
X120832Y-36661D01*
X120832Y-36605D01*
X120804Y-36549D01*
X120776Y-36521D01*
X120719Y-36493D01*
X120607Y-36465D01*
X120551Y-36437D01*
X120523Y-36408D01*
X120494Y-36352D01*
X120494Y-36296D01*
X120523Y-36240D01*
X120551Y-36212D01*
X120607Y-36183D01*
X120748Y-36183D01*
X120832Y-36212D01*
X121029Y-36183D02*
X121422Y-36183D01*
X121169Y-36774D01*
X117865Y-58765D02*
X117837Y-58793D01*
X117753Y-58821D01*
X117696Y-58821D01*
X117612Y-58793D01*
X117556Y-58737D01*
X117528Y-58681D01*
X117500Y-58568D01*
X117500Y-58484D01*
X117528Y-58371D01*
X117556Y-58315D01*
X117612Y-58259D01*
X117696Y-58231D01*
X117753Y-58231D01*
X117837Y-58259D01*
X117865Y-58287D01*
X118118Y-58821D02*
X118118Y-58231D01*
X118315Y-58652D01*
X118512Y-58231D01*
X118512Y-58821D01*
X118793Y-58821D02*
X118793Y-58231D01*
X118934Y-58231D01*
X119018Y-58259D01*
X119074Y-58315D01*
X119102Y-58371D01*
X119131Y-58484D01*
X119131Y-58568D01*
X119102Y-58681D01*
X119074Y-58737D01*
X119018Y-58793D01*
X118934Y-58821D01*
X118793Y-58821D01*
X119384Y-58596D02*
X119834Y-58596D01*
X120396Y-58231D02*
X120115Y-58231D01*
X120087Y-58512D01*
X120115Y-58484D01*
X120171Y-58456D01*
X120312Y-58456D01*
X120368Y-58484D01*
X120396Y-58512D01*
X120424Y-58568D01*
X120424Y-58709D01*
X120396Y-58765D01*
X120368Y-58793D01*
X120312Y-58821D01*
X120171Y-58821D01*
X120115Y-58793D01*
X120087Y-58765D01*
X120958Y-58231D02*
X120677Y-58231D01*
X120649Y-58512D01*
X120677Y-58484D01*
X120733Y-58456D01*
X120874Y-58456D01*
X120930Y-58484D01*
X120958Y-58512D01*
X120987Y-58568D01*
X120987Y-58709D01*
X120958Y-58765D01*
X120930Y-58793D01*
X120874Y-58821D01*
X120733Y-58821D01*
X120677Y-58793D01*
X120649Y-58765D01*
X121183Y-58231D02*
X121577Y-58231D01*
X121324Y-58821D01*
X122111Y-58821D02*
X121774Y-58821D01*
X121943Y-58821D02*
X121943Y-58231D01*
X121886Y-58315D01*
X121830Y-58371D01*
X121774Y-58399D01*
X122308Y-58231D02*
X122702Y-58821D01*
X122702Y-58231D02*
X122308Y-58821D01*
X123039Y-58231D02*
X123096Y-58231D01*
X123152Y-58259D01*
X123180Y-58287D01*
X123208Y-58343D01*
X123236Y-58456D01*
X123236Y-58596D01*
X123208Y-58709D01*
X123180Y-58765D01*
X123152Y-58793D01*
X123096Y-58821D01*
X123039Y-58821D01*
X122983Y-58793D01*
X122955Y-58765D01*
X122927Y-58709D01*
X122899Y-58596D01*
X122899Y-58456D01*
X122927Y-58343D01*
X122955Y-58287D01*
X122983Y-58259D01*
X123039Y-58231D01*
X123602Y-58231D02*
X123658Y-58231D01*
X123714Y-58259D01*
X123742Y-58287D01*
X123771Y-58343D01*
X123799Y-58456D01*
X123799Y-58596D01*
X123771Y-58709D01*
X123742Y-58765D01*
X123714Y-58793D01*
X123658Y-58821D01*
X123602Y-58821D01*
X123546Y-58793D01*
X123517Y-58765D01*
X123489Y-58709D01*
X123461Y-58596D01*
X123461Y-58456D01*
X123489Y-58343D01*
X123517Y-58287D01*
X123546Y-58259D01*
X123602Y-58231D01*
X44617Y-36774D02*
X44617Y-36183D01*
X44758Y-36183D01*
X44842Y-36212D01*
X44898Y-36268D01*
X44926Y-36324D01*
X44955Y-36437D01*
X44955Y-36521D01*
X44926Y-36633D01*
X44898Y-36690D01*
X44842Y-36746D01*
X44758Y-36774D01*
X44617Y-36774D01*
X45179Y-36746D02*
X45264Y-36774D01*
X45404Y-36774D01*
X45461Y-36746D01*
X45489Y-36718D01*
X45517Y-36661D01*
X45517Y-36605D01*
X45489Y-36549D01*
X45461Y-36521D01*
X45404Y-36493D01*
X45292Y-36465D01*
X45236Y-36437D01*
X45208Y-36408D01*
X45179Y-36352D01*
X45179Y-36296D01*
X45208Y-36240D01*
X45236Y-36212D01*
X45292Y-36183D01*
X45433Y-36183D01*
X45517Y-36212D01*
X45742Y-36240D02*
X45770Y-36212D01*
X45826Y-36183D01*
X45967Y-36183D01*
X46023Y-36212D01*
X46051Y-36240D01*
X46079Y-36296D01*
X46079Y-36352D01*
X46051Y-36437D01*
X45714Y-36774D01*
X46079Y-36774D01*
X42550Y-58765D02*
X42522Y-58793D01*
X42438Y-58821D01*
X42381Y-58821D01*
X42297Y-58793D01*
X42241Y-58737D01*
X42213Y-58681D01*
X42185Y-58568D01*
X42185Y-58484D01*
X42213Y-58371D01*
X42241Y-58315D01*
X42297Y-58259D01*
X42381Y-58231D01*
X42438Y-58231D01*
X42522Y-58259D01*
X42550Y-58287D01*
X42803Y-58821D02*
X42803Y-58231D01*
X43000Y-58652D01*
X43197Y-58231D01*
X43197Y-58821D01*
X43478Y-58821D02*
X43478Y-58231D01*
X43619Y-58231D01*
X43703Y-58259D01*
X43759Y-58315D01*
X43787Y-58371D01*
X43816Y-58484D01*
X43816Y-58568D01*
X43787Y-58681D01*
X43759Y-58737D01*
X43703Y-58793D01*
X43619Y-58821D01*
X43478Y-58821D01*
X44069Y-58596D02*
X44519Y-58596D01*
X45081Y-58231D02*
X44800Y-58231D01*
X44772Y-58512D01*
X44800Y-58484D01*
X44856Y-58456D01*
X44997Y-58456D01*
X45053Y-58484D01*
X45081Y-58512D01*
X45109Y-58568D01*
X45109Y-58709D01*
X45081Y-58765D01*
X45053Y-58793D01*
X44997Y-58821D01*
X44856Y-58821D01*
X44800Y-58793D01*
X44772Y-58765D01*
X45643Y-58231D02*
X45362Y-58231D01*
X45334Y-58512D01*
X45362Y-58484D01*
X45419Y-58456D01*
X45559Y-58456D01*
X45615Y-58484D01*
X45643Y-58512D01*
X45672Y-58568D01*
X45672Y-58709D01*
X45643Y-58765D01*
X45615Y-58793D01*
X45559Y-58821D01*
X45419Y-58821D01*
X45362Y-58793D01*
X45334Y-58765D01*
X45868Y-58231D02*
X46262Y-58231D01*
X46009Y-58821D01*
X46796Y-58821D02*
X46459Y-58821D01*
X46628Y-58821D02*
X46628Y-58231D01*
X46571Y-58315D01*
X46515Y-58371D01*
X46459Y-58399D01*
X46993Y-58231D02*
X47387Y-58821D01*
X47387Y-58231D02*
X46993Y-58821D01*
X47724Y-58231D02*
X47781Y-58231D01*
X47837Y-58259D01*
X47865Y-58287D01*
X47893Y-58343D01*
X47921Y-58456D01*
X47921Y-58596D01*
X47893Y-58709D01*
X47865Y-58765D01*
X47837Y-58793D01*
X47781Y-58821D01*
X47724Y-58821D01*
X47668Y-58793D01*
X47640Y-58765D01*
X47612Y-58709D01*
X47584Y-58596D01*
X47584Y-58456D01*
X47612Y-58343D01*
X47640Y-58287D01*
X47668Y-58259D01*
X47724Y-58231D01*
X48287Y-58231D02*
X48343Y-58231D01*
X48399Y-58259D01*
X48428Y-58287D01*
X48456Y-58343D01*
X48484Y-58456D01*
X48484Y-58596D01*
X48456Y-58709D01*
X48428Y-58765D01*
X48399Y-58793D01*
X48343Y-58821D01*
X48287Y-58821D01*
X48231Y-58793D01*
X48203Y-58765D01*
X48174Y-58709D01*
X48146Y-58596D01*
X48146Y-58456D01*
X48174Y-58343D01*
X48203Y-58287D01*
X48231Y-58259D01*
X48287Y-58231D01*
X74735Y-36774D02*
X74735Y-36183D01*
X74876Y-36183D01*
X74960Y-36212D01*
X75016Y-36268D01*
X75044Y-36324D01*
X75073Y-36437D01*
X75073Y-36521D01*
X75044Y-36633D01*
X75016Y-36690D01*
X74960Y-36746D01*
X74876Y-36774D01*
X74735Y-36774D01*
X75298Y-36746D02*
X75382Y-36774D01*
X75523Y-36774D01*
X75579Y-36746D01*
X75607Y-36718D01*
X75635Y-36661D01*
X75635Y-36605D01*
X75607Y-36549D01*
X75579Y-36521D01*
X75523Y-36493D01*
X75410Y-36465D01*
X75354Y-36437D01*
X75326Y-36408D01*
X75298Y-36352D01*
X75298Y-36296D01*
X75326Y-36240D01*
X75354Y-36212D01*
X75410Y-36183D01*
X75551Y-36183D01*
X75635Y-36212D01*
X76141Y-36380D02*
X76141Y-36774D01*
X76001Y-36155D02*
X75860Y-36577D01*
X76226Y-36577D01*
X72668Y-58765D02*
X72640Y-58793D01*
X72556Y-58821D01*
X72500Y-58821D01*
X72415Y-58793D01*
X72359Y-58737D01*
X72331Y-58681D01*
X72303Y-58568D01*
X72303Y-58484D01*
X72331Y-58371D01*
X72359Y-58315D01*
X72415Y-58259D01*
X72500Y-58231D01*
X72556Y-58231D01*
X72640Y-58259D01*
X72668Y-58287D01*
X72921Y-58821D02*
X72921Y-58231D01*
X73118Y-58652D01*
X73315Y-58231D01*
X73315Y-58821D01*
X73596Y-58821D02*
X73596Y-58231D01*
X73737Y-58231D01*
X73821Y-58259D01*
X73877Y-58315D01*
X73906Y-58371D01*
X73934Y-58484D01*
X73934Y-58568D01*
X73906Y-58681D01*
X73877Y-58737D01*
X73821Y-58793D01*
X73737Y-58821D01*
X73596Y-58821D01*
X74187Y-58596D02*
X74637Y-58596D01*
X75199Y-58231D02*
X74918Y-58231D01*
X74890Y-58512D01*
X74918Y-58484D01*
X74974Y-58456D01*
X75115Y-58456D01*
X75171Y-58484D01*
X75199Y-58512D01*
X75227Y-58568D01*
X75227Y-58709D01*
X75199Y-58765D01*
X75171Y-58793D01*
X75115Y-58821D01*
X74974Y-58821D01*
X74918Y-58793D01*
X74890Y-58765D01*
X75762Y-58231D02*
X75480Y-58231D01*
X75452Y-58512D01*
X75480Y-58484D01*
X75537Y-58456D01*
X75677Y-58456D01*
X75733Y-58484D01*
X75762Y-58512D01*
X75790Y-58568D01*
X75790Y-58709D01*
X75762Y-58765D01*
X75733Y-58793D01*
X75677Y-58821D01*
X75537Y-58821D01*
X75480Y-58793D01*
X75452Y-58765D01*
X75987Y-58231D02*
X76380Y-58231D01*
X76127Y-58821D01*
X76915Y-58821D02*
X76577Y-58821D01*
X76746Y-58821D02*
X76746Y-58231D01*
X76690Y-58315D01*
X76633Y-58371D01*
X76577Y-58399D01*
X77111Y-58231D02*
X77505Y-58821D01*
X77505Y-58231D02*
X77111Y-58821D01*
X77843Y-58231D02*
X77899Y-58231D01*
X77955Y-58259D01*
X77983Y-58287D01*
X78011Y-58343D01*
X78039Y-58456D01*
X78039Y-58596D01*
X78011Y-58709D01*
X77983Y-58765D01*
X77955Y-58793D01*
X77899Y-58821D01*
X77843Y-58821D01*
X77786Y-58793D01*
X77758Y-58765D01*
X77730Y-58709D01*
X77702Y-58596D01*
X77702Y-58456D01*
X77730Y-58343D01*
X77758Y-58287D01*
X77786Y-58259D01*
X77843Y-58231D01*
X78405Y-58231D02*
X78461Y-58231D01*
X78517Y-58259D01*
X78546Y-58287D01*
X78574Y-58343D01*
X78602Y-58456D01*
X78602Y-58596D01*
X78574Y-58709D01*
X78546Y-58765D01*
X78517Y-58793D01*
X78461Y-58821D01*
X78405Y-58821D01*
X78349Y-58793D01*
X78321Y-58765D01*
X78293Y-58709D01*
X78264Y-58596D01*
X78264Y-58456D01*
X78293Y-58343D01*
X78321Y-58287D01*
X78349Y-58259D01*
X78405Y-58231D01*
X104873Y-36774D02*
X104873Y-36183D01*
X105014Y-36183D01*
X105098Y-36212D01*
X105154Y-36268D01*
X105182Y-36324D01*
X105210Y-36437D01*
X105210Y-36521D01*
X105182Y-36633D01*
X105154Y-36690D01*
X105098Y-36746D01*
X105014Y-36774D01*
X104873Y-36774D01*
X105435Y-36746D02*
X105520Y-36774D01*
X105660Y-36774D01*
X105717Y-36746D01*
X105745Y-36718D01*
X105773Y-36661D01*
X105773Y-36605D01*
X105745Y-36549D01*
X105717Y-36521D01*
X105660Y-36493D01*
X105548Y-36465D01*
X105492Y-36437D01*
X105464Y-36408D01*
X105435Y-36352D01*
X105435Y-36296D01*
X105464Y-36240D01*
X105492Y-36212D01*
X105548Y-36183D01*
X105688Y-36183D01*
X105773Y-36212D01*
X106279Y-36183D02*
X106167Y-36183D01*
X106110Y-36212D01*
X106082Y-36240D01*
X106026Y-36324D01*
X105998Y-36437D01*
X105998Y-36661D01*
X106026Y-36718D01*
X106054Y-36746D01*
X106110Y-36774D01*
X106223Y-36774D01*
X106279Y-36746D01*
X106307Y-36718D01*
X106335Y-36661D01*
X106335Y-36521D01*
X106307Y-36465D01*
X106279Y-36437D01*
X106223Y-36408D01*
X106110Y-36408D01*
X106054Y-36437D01*
X106026Y-36465D01*
X105998Y-36521D01*
X102806Y-58765D02*
X102778Y-58793D01*
X102694Y-58821D01*
X102637Y-58821D01*
X102553Y-58793D01*
X102497Y-58737D01*
X102469Y-58681D01*
X102440Y-58568D01*
X102440Y-58484D01*
X102469Y-58371D01*
X102497Y-58315D01*
X102553Y-58259D01*
X102637Y-58231D01*
X102694Y-58231D01*
X102778Y-58259D01*
X102806Y-58287D01*
X103059Y-58821D02*
X103059Y-58231D01*
X103256Y-58652D01*
X103453Y-58231D01*
X103453Y-58821D01*
X103734Y-58821D02*
X103734Y-58231D01*
X103875Y-58231D01*
X103959Y-58259D01*
X104015Y-58315D01*
X104043Y-58371D01*
X104071Y-58484D01*
X104071Y-58568D01*
X104043Y-58681D01*
X104015Y-58737D01*
X103959Y-58793D01*
X103875Y-58821D01*
X103734Y-58821D01*
X104325Y-58596D02*
X104775Y-58596D01*
X105337Y-58231D02*
X105056Y-58231D01*
X105028Y-58512D01*
X105056Y-58484D01*
X105112Y-58456D01*
X105253Y-58456D01*
X105309Y-58484D01*
X105337Y-58512D01*
X105365Y-58568D01*
X105365Y-58709D01*
X105337Y-58765D01*
X105309Y-58793D01*
X105253Y-58821D01*
X105112Y-58821D01*
X105056Y-58793D01*
X105028Y-58765D01*
X105899Y-58231D02*
X105618Y-58231D01*
X105590Y-58512D01*
X105618Y-58484D01*
X105674Y-58456D01*
X105815Y-58456D01*
X105871Y-58484D01*
X105899Y-58512D01*
X105928Y-58568D01*
X105928Y-58709D01*
X105899Y-58765D01*
X105871Y-58793D01*
X105815Y-58821D01*
X105674Y-58821D01*
X105618Y-58793D01*
X105590Y-58765D01*
X106124Y-58231D02*
X106518Y-58231D01*
X106265Y-58821D01*
X107052Y-58821D02*
X106715Y-58821D01*
X106884Y-58821D02*
X106884Y-58231D01*
X106827Y-58315D01*
X106771Y-58371D01*
X106715Y-58399D01*
X107249Y-58231D02*
X107643Y-58821D01*
X107643Y-58231D02*
X107249Y-58821D01*
X107980Y-58231D02*
X108037Y-58231D01*
X108093Y-58259D01*
X108121Y-58287D01*
X108149Y-58343D01*
X108177Y-58456D01*
X108177Y-58596D01*
X108149Y-58709D01*
X108121Y-58765D01*
X108093Y-58793D01*
X108037Y-58821D01*
X107980Y-58821D01*
X107924Y-58793D01*
X107896Y-58765D01*
X107868Y-58709D01*
X107840Y-58596D01*
X107840Y-58456D01*
X107868Y-58343D01*
X107896Y-58287D01*
X107924Y-58259D01*
X107980Y-58231D01*
X108543Y-58231D02*
X108599Y-58231D01*
X108655Y-58259D01*
X108683Y-58287D01*
X108712Y-58343D01*
X108740Y-58456D01*
X108740Y-58596D01*
X108712Y-58709D01*
X108683Y-58765D01*
X108655Y-58793D01*
X108599Y-58821D01*
X108543Y-58821D01*
X108487Y-58793D01*
X108458Y-58765D01*
X108430Y-58709D01*
X108402Y-58596D01*
X108402Y-58456D01*
X108430Y-58343D01*
X108458Y-58287D01*
X108487Y-58259D01*
X108543Y-58231D01*
X89794Y-36774D02*
X89794Y-36183D01*
X89935Y-36183D01*
X90019Y-36212D01*
X90075Y-36268D01*
X90104Y-36324D01*
X90132Y-36437D01*
X90132Y-36521D01*
X90104Y-36633D01*
X90075Y-36690D01*
X90019Y-36746D01*
X89935Y-36774D01*
X89794Y-36774D01*
X90357Y-36746D02*
X90441Y-36774D01*
X90582Y-36774D01*
X90638Y-36746D01*
X90666Y-36718D01*
X90694Y-36661D01*
X90694Y-36605D01*
X90666Y-36549D01*
X90638Y-36521D01*
X90582Y-36493D01*
X90469Y-36465D01*
X90413Y-36437D01*
X90385Y-36408D01*
X90357Y-36352D01*
X90357Y-36296D01*
X90385Y-36240D01*
X90413Y-36212D01*
X90469Y-36183D01*
X90610Y-36183D01*
X90694Y-36212D01*
X91228Y-36183D02*
X90947Y-36183D01*
X90919Y-36465D01*
X90947Y-36437D01*
X91003Y-36408D01*
X91144Y-36408D01*
X91200Y-36437D01*
X91228Y-36465D01*
X91257Y-36521D01*
X91257Y-36661D01*
X91228Y-36718D01*
X91200Y-36746D01*
X91144Y-36774D01*
X91003Y-36774D01*
X90947Y-36746D01*
X90919Y-36718D01*
X87727Y-58765D02*
X87699Y-58793D01*
X87615Y-58821D01*
X87559Y-58821D01*
X87474Y-58793D01*
X87418Y-58737D01*
X87390Y-58681D01*
X87362Y-58568D01*
X87362Y-58484D01*
X87390Y-58371D01*
X87418Y-58315D01*
X87474Y-58259D01*
X87559Y-58231D01*
X87615Y-58231D01*
X87699Y-58259D01*
X87727Y-58287D01*
X87980Y-58821D02*
X87980Y-58231D01*
X88177Y-58652D01*
X88374Y-58231D01*
X88374Y-58821D01*
X88655Y-58821D02*
X88655Y-58231D01*
X88796Y-58231D01*
X88880Y-58259D01*
X88937Y-58315D01*
X88965Y-58371D01*
X88993Y-58484D01*
X88993Y-58568D01*
X88965Y-58681D01*
X88937Y-58737D01*
X88880Y-58793D01*
X88796Y-58821D01*
X88655Y-58821D01*
X89246Y-58596D02*
X89696Y-58596D01*
X90258Y-58231D02*
X89977Y-58231D01*
X89949Y-58512D01*
X89977Y-58484D01*
X90033Y-58456D01*
X90174Y-58456D01*
X90230Y-58484D01*
X90258Y-58512D01*
X90286Y-58568D01*
X90286Y-58709D01*
X90258Y-58765D01*
X90230Y-58793D01*
X90174Y-58821D01*
X90033Y-58821D01*
X89977Y-58793D01*
X89949Y-58765D01*
X90821Y-58231D02*
X90539Y-58231D01*
X90511Y-58512D01*
X90539Y-58484D01*
X90596Y-58456D01*
X90736Y-58456D01*
X90793Y-58484D01*
X90821Y-58512D01*
X90849Y-58568D01*
X90849Y-58709D01*
X90821Y-58765D01*
X90793Y-58793D01*
X90736Y-58821D01*
X90596Y-58821D01*
X90539Y-58793D01*
X90511Y-58765D01*
X91046Y-58231D02*
X91439Y-58231D01*
X91186Y-58821D01*
X91974Y-58821D02*
X91636Y-58821D01*
X91805Y-58821D02*
X91805Y-58231D01*
X91749Y-58315D01*
X91692Y-58371D01*
X91636Y-58399D01*
X92170Y-58231D02*
X92564Y-58821D01*
X92564Y-58231D02*
X92170Y-58821D01*
X92902Y-58231D02*
X92958Y-58231D01*
X93014Y-58259D01*
X93042Y-58287D01*
X93070Y-58343D01*
X93098Y-58456D01*
X93098Y-58596D01*
X93070Y-58709D01*
X93042Y-58765D01*
X93014Y-58793D01*
X92958Y-58821D01*
X92902Y-58821D01*
X92845Y-58793D01*
X92817Y-58765D01*
X92789Y-58709D01*
X92761Y-58596D01*
X92761Y-58456D01*
X92789Y-58343D01*
X92817Y-58287D01*
X92845Y-58259D01*
X92902Y-58231D01*
X93464Y-58231D02*
X93520Y-58231D01*
X93577Y-58259D01*
X93605Y-58287D01*
X93633Y-58343D01*
X93661Y-58456D01*
X93661Y-58596D01*
X93633Y-58709D01*
X93605Y-58765D01*
X93577Y-58793D01*
X93520Y-58821D01*
X93464Y-58821D01*
X93408Y-58793D01*
X93380Y-58765D01*
X93352Y-58709D01*
X93323Y-58596D01*
X93323Y-58456D01*
X93352Y-58343D01*
X93380Y-58287D01*
X93408Y-58259D01*
X93464Y-58231D01*
X59676Y-36774D02*
X59676Y-36183D01*
X59817Y-36183D01*
X59901Y-36212D01*
X59957Y-36268D01*
X59985Y-36324D01*
X60014Y-36437D01*
X60014Y-36521D01*
X59985Y-36633D01*
X59957Y-36690D01*
X59901Y-36746D01*
X59817Y-36774D01*
X59676Y-36774D01*
X60239Y-36746D02*
X60323Y-36774D01*
X60464Y-36774D01*
X60520Y-36746D01*
X60548Y-36718D01*
X60576Y-36661D01*
X60576Y-36605D01*
X60548Y-36549D01*
X60520Y-36521D01*
X60464Y-36493D01*
X60351Y-36465D01*
X60295Y-36437D01*
X60267Y-36408D01*
X60239Y-36352D01*
X60239Y-36296D01*
X60267Y-36240D01*
X60295Y-36212D01*
X60351Y-36183D01*
X60492Y-36183D01*
X60576Y-36212D01*
X60773Y-36183D02*
X61138Y-36183D01*
X60942Y-36408D01*
X61026Y-36408D01*
X61082Y-36437D01*
X61110Y-36465D01*
X61138Y-36521D01*
X61138Y-36661D01*
X61110Y-36718D01*
X61082Y-36746D01*
X61026Y-36774D01*
X60857Y-36774D01*
X60801Y-36746D01*
X60773Y-36718D01*
X57609Y-58765D02*
X57581Y-58793D01*
X57497Y-58821D01*
X57440Y-58821D01*
X57356Y-58793D01*
X57300Y-58737D01*
X57272Y-58681D01*
X57244Y-58568D01*
X57244Y-58484D01*
X57272Y-58371D01*
X57300Y-58315D01*
X57356Y-58259D01*
X57440Y-58231D01*
X57497Y-58231D01*
X57581Y-58259D01*
X57609Y-58287D01*
X57862Y-58821D02*
X57862Y-58231D01*
X58059Y-58652D01*
X58256Y-58231D01*
X58256Y-58821D01*
X58537Y-58821D02*
X58537Y-58231D01*
X58678Y-58231D01*
X58762Y-58259D01*
X58818Y-58315D01*
X58847Y-58371D01*
X58875Y-58484D01*
X58875Y-58568D01*
X58847Y-58681D01*
X58818Y-58737D01*
X58762Y-58793D01*
X58678Y-58821D01*
X58537Y-58821D01*
X59128Y-58596D02*
X59578Y-58596D01*
X60140Y-58231D02*
X59859Y-58231D01*
X59831Y-58512D01*
X59859Y-58484D01*
X59915Y-58456D01*
X60056Y-58456D01*
X60112Y-58484D01*
X60140Y-58512D01*
X60168Y-58568D01*
X60168Y-58709D01*
X60140Y-58765D01*
X60112Y-58793D01*
X60056Y-58821D01*
X59915Y-58821D01*
X59859Y-58793D01*
X59831Y-58765D01*
X60703Y-58231D02*
X60421Y-58231D01*
X60393Y-58512D01*
X60421Y-58484D01*
X60478Y-58456D01*
X60618Y-58456D01*
X60674Y-58484D01*
X60703Y-58512D01*
X60731Y-58568D01*
X60731Y-58709D01*
X60703Y-58765D01*
X60674Y-58793D01*
X60618Y-58821D01*
X60478Y-58821D01*
X60421Y-58793D01*
X60393Y-58765D01*
X60928Y-58231D02*
X61321Y-58231D01*
X61068Y-58821D01*
X61856Y-58821D02*
X61518Y-58821D01*
X61687Y-58821D02*
X61687Y-58231D01*
X61631Y-58315D01*
X61574Y-58371D01*
X61518Y-58399D01*
X62052Y-58231D02*
X62446Y-58821D01*
X62446Y-58231D02*
X62052Y-58821D01*
X62784Y-58231D02*
X62840Y-58231D01*
X62896Y-58259D01*
X62924Y-58287D01*
X62952Y-58343D01*
X62980Y-58456D01*
X62980Y-58596D01*
X62952Y-58709D01*
X62924Y-58765D01*
X62896Y-58793D01*
X62840Y-58821D01*
X62784Y-58821D01*
X62727Y-58793D01*
X62699Y-58765D01*
X62671Y-58709D01*
X62643Y-58596D01*
X62643Y-58456D01*
X62671Y-58343D01*
X62699Y-58287D01*
X62727Y-58259D01*
X62784Y-58231D01*
X63346Y-58231D02*
X63402Y-58231D01*
X63458Y-58259D01*
X63487Y-58287D01*
X63515Y-58343D01*
X63543Y-58456D01*
X63543Y-58596D01*
X63515Y-58709D01*
X63487Y-58765D01*
X63458Y-58793D01*
X63402Y-58821D01*
X63346Y-58821D01*
X63290Y-58793D01*
X63262Y-58765D01*
X63233Y-58709D01*
X63205Y-58596D01*
X63205Y-58456D01*
X63233Y-58343D01*
X63262Y-58287D01*
X63290Y-58259D01*
X63346Y-58231D01*
X29578Y-36774D02*
X29578Y-36183D01*
X29718Y-36183D01*
X29803Y-36212D01*
X29859Y-36268D01*
X29887Y-36324D01*
X29915Y-36437D01*
X29915Y-36521D01*
X29887Y-36633D01*
X29859Y-36690D01*
X29803Y-36746D01*
X29718Y-36774D01*
X29578Y-36774D01*
X30140Y-36746D02*
X30224Y-36774D01*
X30365Y-36774D01*
X30421Y-36746D01*
X30449Y-36718D01*
X30478Y-36661D01*
X30478Y-36605D01*
X30449Y-36549D01*
X30421Y-36521D01*
X30365Y-36493D01*
X30253Y-36465D01*
X30196Y-36437D01*
X30168Y-36408D01*
X30140Y-36352D01*
X30140Y-36296D01*
X30168Y-36240D01*
X30196Y-36212D01*
X30253Y-36183D01*
X30393Y-36183D01*
X30478Y-36212D01*
X31040Y-36774D02*
X30703Y-36774D01*
X30871Y-36774D02*
X30871Y-36183D01*
X30815Y-36268D01*
X30759Y-36324D01*
X30703Y-36352D01*
X27511Y-58765D02*
X27483Y-58793D01*
X27398Y-58821D01*
X27342Y-58821D01*
X27258Y-58793D01*
X27201Y-58737D01*
X27173Y-58681D01*
X27145Y-58568D01*
X27145Y-58484D01*
X27173Y-58371D01*
X27201Y-58315D01*
X27258Y-58259D01*
X27342Y-58231D01*
X27398Y-58231D01*
X27483Y-58259D01*
X27511Y-58287D01*
X27764Y-58821D02*
X27764Y-58231D01*
X27961Y-58652D01*
X28158Y-58231D01*
X28158Y-58821D01*
X28439Y-58821D02*
X28439Y-58231D01*
X28579Y-58231D01*
X28664Y-58259D01*
X28720Y-58315D01*
X28748Y-58371D01*
X28776Y-58484D01*
X28776Y-58568D01*
X28748Y-58681D01*
X28720Y-58737D01*
X28664Y-58793D01*
X28579Y-58821D01*
X28439Y-58821D01*
X29029Y-58596D02*
X29479Y-58596D01*
X30042Y-58231D02*
X29760Y-58231D01*
X29732Y-58512D01*
X29760Y-58484D01*
X29817Y-58456D01*
X29957Y-58456D01*
X30014Y-58484D01*
X30042Y-58512D01*
X30070Y-58568D01*
X30070Y-58709D01*
X30042Y-58765D01*
X30014Y-58793D01*
X29957Y-58821D01*
X29817Y-58821D01*
X29760Y-58793D01*
X29732Y-58765D01*
X30604Y-58231D02*
X30323Y-58231D01*
X30295Y-58512D01*
X30323Y-58484D01*
X30379Y-58456D01*
X30520Y-58456D01*
X30576Y-58484D01*
X30604Y-58512D01*
X30632Y-58568D01*
X30632Y-58709D01*
X30604Y-58765D01*
X30576Y-58793D01*
X30520Y-58821D01*
X30379Y-58821D01*
X30323Y-58793D01*
X30295Y-58765D01*
X30829Y-58231D02*
X31223Y-58231D01*
X30970Y-58821D01*
X31757Y-58821D02*
X31420Y-58821D01*
X31588Y-58821D02*
X31588Y-58231D01*
X31532Y-58315D01*
X31476Y-58371D01*
X31420Y-58399D01*
X31954Y-58231D02*
X32348Y-58821D01*
X32348Y-58231D02*
X31954Y-58821D01*
X32685Y-58231D02*
X32741Y-58231D01*
X32798Y-58259D01*
X32826Y-58287D01*
X32854Y-58343D01*
X32882Y-58456D01*
X32882Y-58596D01*
X32854Y-58709D01*
X32826Y-58765D01*
X32798Y-58793D01*
X32741Y-58821D01*
X32685Y-58821D01*
X32629Y-58793D01*
X32601Y-58765D01*
X32573Y-58709D01*
X32544Y-58596D01*
X32544Y-58456D01*
X32573Y-58343D01*
X32601Y-58287D01*
X32629Y-58259D01*
X32685Y-58231D01*
X33248Y-58231D02*
X33304Y-58231D01*
X33360Y-58259D01*
X33388Y-58287D01*
X33416Y-58343D01*
X33444Y-58456D01*
X33444Y-58596D01*
X33416Y-58709D01*
X33388Y-58765D01*
X33360Y-58793D01*
X33304Y-58821D01*
X33248Y-58821D01*
X33191Y-58793D01*
X33163Y-58765D01*
X33135Y-58709D01*
X33107Y-58596D01*
X33107Y-58456D01*
X33135Y-58343D01*
X33163Y-58287D01*
X33191Y-58259D01*
X33248Y-58231D01*
X134991Y-36774D02*
X134991Y-36183D01*
X135132Y-36183D01*
X135216Y-36212D01*
X135272Y-36268D01*
X135300Y-36324D01*
X135329Y-36437D01*
X135329Y-36521D01*
X135300Y-36633D01*
X135272Y-36690D01*
X135216Y-36746D01*
X135132Y-36774D01*
X134991Y-36774D01*
X135553Y-36746D02*
X135638Y-36774D01*
X135778Y-36774D01*
X135835Y-36746D01*
X135863Y-36718D01*
X135891Y-36661D01*
X135891Y-36605D01*
X135863Y-36549D01*
X135835Y-36521D01*
X135778Y-36493D01*
X135666Y-36465D01*
X135610Y-36437D01*
X135582Y-36408D01*
X135553Y-36352D01*
X135553Y-36296D01*
X135582Y-36240D01*
X135610Y-36212D01*
X135666Y-36183D01*
X135807Y-36183D01*
X135891Y-36212D01*
X136228Y-36437D02*
X136172Y-36408D01*
X136144Y-36380D01*
X136116Y-36324D01*
X136116Y-36296D01*
X136144Y-36240D01*
X136172Y-36212D01*
X136228Y-36183D01*
X136341Y-36183D01*
X136397Y-36212D01*
X136425Y-36240D01*
X136453Y-36296D01*
X136453Y-36324D01*
X136425Y-36380D01*
X136397Y-36408D01*
X136341Y-36437D01*
X136228Y-36437D01*
X136172Y-36465D01*
X136144Y-36493D01*
X136116Y-36549D01*
X136116Y-36661D01*
X136144Y-36718D01*
X136172Y-36746D01*
X136228Y-36774D01*
X136341Y-36774D01*
X136397Y-36746D01*
X136425Y-36718D01*
X136453Y-36661D01*
X136453Y-36549D01*
X136425Y-36493D01*
X136397Y-36465D01*
X136341Y-36437D01*
X132924Y-58765D02*
X132896Y-58793D01*
X132812Y-58821D01*
X132755Y-58821D01*
X132671Y-58793D01*
X132615Y-58737D01*
X132587Y-58681D01*
X132559Y-58568D01*
X132559Y-58484D01*
X132587Y-58371D01*
X132615Y-58315D01*
X132671Y-58259D01*
X132755Y-58231D01*
X132812Y-58231D01*
X132896Y-58259D01*
X132924Y-58287D01*
X133177Y-58821D02*
X133177Y-58231D01*
X133374Y-58652D01*
X133571Y-58231D01*
X133571Y-58821D01*
X133852Y-58821D02*
X133852Y-58231D01*
X133993Y-58231D01*
X134077Y-58259D01*
X134133Y-58315D01*
X134161Y-58371D01*
X134190Y-58484D01*
X134190Y-58568D01*
X134161Y-58681D01*
X134133Y-58737D01*
X134077Y-58793D01*
X133993Y-58821D01*
X133852Y-58821D01*
X134443Y-58596D02*
X134893Y-58596D01*
X135455Y-58231D02*
X135174Y-58231D01*
X135146Y-58512D01*
X135174Y-58484D01*
X135230Y-58456D01*
X135371Y-58456D01*
X135427Y-58484D01*
X135455Y-58512D01*
X135483Y-58568D01*
X135483Y-58709D01*
X135455Y-58765D01*
X135427Y-58793D01*
X135371Y-58821D01*
X135230Y-58821D01*
X135174Y-58793D01*
X135146Y-58765D01*
X136017Y-58231D02*
X135736Y-58231D01*
X135708Y-58512D01*
X135736Y-58484D01*
X135793Y-58456D01*
X135933Y-58456D01*
X135989Y-58484D01*
X136017Y-58512D01*
X136046Y-58568D01*
X136046Y-58709D01*
X136017Y-58765D01*
X135989Y-58793D01*
X135933Y-58821D01*
X135793Y-58821D01*
X135736Y-58793D01*
X135708Y-58765D01*
X136242Y-58231D02*
X136636Y-58231D01*
X136383Y-58821D01*
X137170Y-58821D02*
X136833Y-58821D01*
X137002Y-58821D02*
X137002Y-58231D01*
X136946Y-58315D01*
X136889Y-58371D01*
X136833Y-58399D01*
X137367Y-58231D02*
X137761Y-58821D01*
X137761Y-58231D02*
X137367Y-58821D01*
X138098Y-58231D02*
X138155Y-58231D01*
X138211Y-58259D01*
X138239Y-58287D01*
X138267Y-58343D01*
X138295Y-58456D01*
X138295Y-58596D01*
X138267Y-58709D01*
X138239Y-58765D01*
X138211Y-58793D01*
X138155Y-58821D01*
X138098Y-58821D01*
X138042Y-58793D01*
X138014Y-58765D01*
X137986Y-58709D01*
X137958Y-58596D01*
X137958Y-58456D01*
X137986Y-58343D01*
X138014Y-58287D01*
X138042Y-58259D01*
X138098Y-58231D01*
X138661Y-58231D02*
X138717Y-58231D01*
X138773Y-58259D01*
X138802Y-58287D01*
X138830Y-58343D01*
X138858Y-58456D01*
X138858Y-58596D01*
X138830Y-58709D01*
X138802Y-58765D01*
X138773Y-58793D01*
X138717Y-58821D01*
X138661Y-58821D01*
X138605Y-58793D01*
X138577Y-58765D01*
X138548Y-58709D01*
X138520Y-58596D01*
X138520Y-58456D01*
X138548Y-58343D01*
X138577Y-58287D01*
X138605Y-58259D01*
X138661Y-58231D01*
G54D16*
X100709Y-59836D02*
X100480Y-59836D01*
X100595Y-59836D02*
X100595Y-59436D01*
X100557Y-59494D01*
X100519Y-59532D01*
X100480Y-59551D01*
X100880Y-59836D02*
X100880Y-59436D01*
X101033Y-59436D01*
X101071Y-59455D01*
X101090Y-59475D01*
X101109Y-59513D01*
X101109Y-59570D01*
X101090Y-59608D01*
X101071Y-59627D01*
X101033Y-59646D01*
X100880Y-59646D01*
X101280Y-59836D02*
X101280Y-59436D01*
X101471Y-59836D02*
X101471Y-59436D01*
X101700Y-59836D01*
X101700Y-59436D01*
X123684Y-59736D02*
X123455Y-59736D01*
X123570Y-59736D02*
X123570Y-59336D01*
X123532Y-59394D01*
X123494Y-59432D01*
X123455Y-59451D01*
X123855Y-59736D02*
X123855Y-59336D01*
X124008Y-59336D01*
X124046Y-59355D01*
X124065Y-59375D01*
X124084Y-59413D01*
X124084Y-59470D01*
X124065Y-59508D01*
X124046Y-59527D01*
X124008Y-59546D01*
X123855Y-59546D01*
X124255Y-59736D02*
X124255Y-59336D01*
X124446Y-59736D02*
X124446Y-59336D01*
X124675Y-59736D01*
X124675Y-59336D01*
X40409Y-59761D02*
X40180Y-59761D01*
X40295Y-59761D02*
X40295Y-59361D01*
X40257Y-59419D01*
X40219Y-59457D01*
X40180Y-59476D01*
X40580Y-59761D02*
X40580Y-59361D01*
X40733Y-59361D01*
X40771Y-59380D01*
X40790Y-59400D01*
X40809Y-59438D01*
X40809Y-59495D01*
X40790Y-59533D01*
X40771Y-59552D01*
X40733Y-59571D01*
X40580Y-59571D01*
X40980Y-59761D02*
X40980Y-59361D01*
X41171Y-59761D02*
X41171Y-59361D01*
X41400Y-59761D01*
X41400Y-59361D01*
X63434Y-59736D02*
X63205Y-59736D01*
X63320Y-59736D02*
X63320Y-59336D01*
X63282Y-59394D01*
X63244Y-59432D01*
X63205Y-59451D01*
X63605Y-59736D02*
X63605Y-59336D01*
X63758Y-59336D01*
X63796Y-59355D01*
X63815Y-59375D01*
X63834Y-59413D01*
X63834Y-59470D01*
X63815Y-59508D01*
X63796Y-59527D01*
X63758Y-59546D01*
X63605Y-59546D01*
X64005Y-59736D02*
X64005Y-59336D01*
X64196Y-59736D02*
X64196Y-59336D01*
X64425Y-59736D01*
X64425Y-59336D01*
X140409Y-62161D02*
X140180Y-62161D01*
X140295Y-62161D02*
X140295Y-61761D01*
X140257Y-61819D01*
X140219Y-61857D01*
X140180Y-61876D01*
X140580Y-62161D02*
X140580Y-61761D01*
X140733Y-61761D01*
X140771Y-61780D01*
X140790Y-61800D01*
X140809Y-61838D01*
X140809Y-61895D01*
X140790Y-61933D01*
X140771Y-61952D01*
X140733Y-61971D01*
X140580Y-61971D01*
X140980Y-62161D02*
X140980Y-61761D01*
X141171Y-62161D02*
X141171Y-61761D01*
X141400Y-62161D01*
X141400Y-61761D01*
X25009Y-30761D02*
X24780Y-30761D01*
X24895Y-30761D02*
X24895Y-30361D01*
X24857Y-30419D01*
X24819Y-30457D01*
X24780Y-30476D01*
X25180Y-30761D02*
X25180Y-30361D01*
X25333Y-30361D01*
X25371Y-30380D01*
X25390Y-30400D01*
X25409Y-30438D01*
X25409Y-30495D01*
X25390Y-30533D01*
X25371Y-30552D01*
X25333Y-30571D01*
X25180Y-30571D01*
X25580Y-30761D02*
X25580Y-30361D01*
X25771Y-30761D02*
X25771Y-30361D01*
X26000Y-30761D01*
X26000Y-30361D01*
X140809Y-30561D02*
X140580Y-30561D01*
X140695Y-30561D02*
X140695Y-30161D01*
X140657Y-30219D01*
X140619Y-30257D01*
X140580Y-30276D01*
X140980Y-30561D02*
X140980Y-30161D01*
X141133Y-30161D01*
X141171Y-30180D01*
X141190Y-30200D01*
X141209Y-30238D01*
X141209Y-30295D01*
X141190Y-30333D01*
X141171Y-30352D01*
X141133Y-30371D01*
X140980Y-30371D01*
X141380Y-30561D02*
X141380Y-30161D01*
X141571Y-30561D02*
X141571Y-30161D01*
X141800Y-30561D01*
X141800Y-30161D01*
X81809Y-30761D02*
X81580Y-30761D01*
X81695Y-30761D02*
X81695Y-30361D01*
X81657Y-30419D01*
X81619Y-30457D01*
X81580Y-30476D01*
X81980Y-30761D02*
X81980Y-30361D01*
X82133Y-30361D01*
X82171Y-30380D01*
X82190Y-30400D01*
X82209Y-30438D01*
X82209Y-30495D01*
X82190Y-30533D01*
X82171Y-30552D01*
X82133Y-30571D01*
X81980Y-30571D01*
X82380Y-30761D02*
X82380Y-30361D01*
X82571Y-30761D02*
X82571Y-30361D01*
X82800Y-30761D01*
X82800Y-30361D01*
X24609Y-62961D02*
X24380Y-62961D01*
X24495Y-62961D02*
X24495Y-62561D01*
X24457Y-62619D01*
X24419Y-62657D01*
X24380Y-62676D01*
X24780Y-62961D02*
X24780Y-62561D01*
X24933Y-62561D01*
X24971Y-62580D01*
X24990Y-62600D01*
X25009Y-62638D01*
X25009Y-62695D01*
X24990Y-62733D01*
X24971Y-62752D01*
X24933Y-62771D01*
X24780Y-62771D01*
X25180Y-62961D02*
X25180Y-62561D01*
X25371Y-62961D02*
X25371Y-62561D01*
X25600Y-62961D01*
X25600Y-62561D01*
X81809Y-62161D02*
X81580Y-62161D01*
X81695Y-62161D02*
X81695Y-61761D01*
X81657Y-61819D01*
X81619Y-61857D01*
X81580Y-61876D01*
X81980Y-62161D02*
X81980Y-61761D01*
X82133Y-61761D01*
X82171Y-61780D01*
X82190Y-61800D01*
X82209Y-61838D01*
X82209Y-61895D01*
X82190Y-61933D01*
X82171Y-61952D01*
X82133Y-61971D01*
X81980Y-61971D01*
X82380Y-62161D02*
X82380Y-61761D01*
X82571Y-62161D02*
X82571Y-61761D01*
X82800Y-62161D01*
X82800Y-61761D01*
M02*
