G04 (created by PCBNEW (2013-07-07 BZR 4022)-stable) date 3/3/2015 12:04:11 PM*
%MOIN*%
G04 Gerber Fmt 3.4, Leading zero omitted, Abs format*
%FSLAX34Y34*%
G01*
G70*
G90*
G04 APERTURE LIST*
%ADD10C,0.00590551*%
%ADD11C,0.012*%
%ADD12C,0.01*%
%ADD13C,0.015*%
%ADD14C,0.0107*%
%ADD15C,0.008*%
G04 APERTURE END LIST*
G54D10*
G54D11*
X34976Y-52909D02*
X34976Y-44909D01*
X34976Y-44909D02*
X33976Y-44909D01*
X33976Y-44909D02*
X33976Y-52909D01*
X33976Y-52909D02*
X34976Y-52909D01*
X33976Y-51909D02*
X34976Y-51909D01*
X31393Y-48433D02*
X31393Y-48833D01*
X31393Y-48833D02*
X30993Y-48833D01*
X30993Y-48833D02*
X30993Y-52033D01*
X30993Y-52033D02*
X31793Y-52033D01*
X31793Y-52033D02*
X31793Y-48833D01*
X31793Y-48833D02*
X31393Y-48833D01*
X31193Y-48833D02*
X30993Y-49033D01*
X31393Y-52433D02*
X31393Y-52033D01*
X29330Y-47456D02*
X29330Y-47856D01*
X29330Y-47856D02*
X28930Y-47856D01*
X28930Y-47856D02*
X28930Y-51056D01*
X28930Y-51056D02*
X29730Y-51056D01*
X29730Y-51056D02*
X29730Y-47856D01*
X29730Y-47856D02*
X29330Y-47856D01*
X29130Y-47856D02*
X28930Y-48056D01*
X29330Y-51456D02*
X29330Y-51056D01*
X82251Y-40456D02*
X82251Y-40856D01*
X82251Y-40856D02*
X81851Y-40856D01*
X81851Y-40856D02*
X81851Y-44056D01*
X81851Y-44056D02*
X82651Y-44056D01*
X82651Y-44056D02*
X82651Y-40856D01*
X82651Y-40856D02*
X82251Y-40856D01*
X82051Y-40856D02*
X81851Y-41056D01*
X82251Y-44456D02*
X82251Y-44056D01*
X84976Y-53433D02*
X84976Y-53033D01*
X84976Y-53033D02*
X85376Y-53033D01*
X85376Y-53033D02*
X85376Y-49833D01*
X85376Y-49833D02*
X84576Y-49833D01*
X84576Y-49833D02*
X84576Y-53033D01*
X84576Y-53033D02*
X84976Y-53033D01*
X85176Y-53033D02*
X85376Y-52833D01*
X84976Y-49433D02*
X84976Y-49833D01*
X27476Y-52366D02*
X27476Y-51966D01*
X27476Y-51966D02*
X27876Y-51966D01*
X27876Y-51966D02*
X27876Y-48766D01*
X27876Y-48766D02*
X27076Y-48766D01*
X27076Y-48766D02*
X27076Y-51966D01*
X27076Y-51966D02*
X27476Y-51966D01*
X27676Y-51966D02*
X27876Y-51766D01*
X27476Y-48366D02*
X27476Y-48766D01*
X25562Y-51456D02*
X25562Y-51056D01*
X25562Y-51056D02*
X25962Y-51056D01*
X25962Y-51056D02*
X25962Y-47856D01*
X25962Y-47856D02*
X25162Y-47856D01*
X25162Y-47856D02*
X25162Y-51056D01*
X25162Y-51056D02*
X25562Y-51056D01*
X25762Y-51056D02*
X25962Y-50856D01*
X25562Y-47456D02*
X25562Y-47856D01*
X35600Y-59475D02*
X35600Y-59075D01*
X35600Y-59075D02*
X36000Y-59075D01*
X36000Y-59075D02*
X36000Y-55875D01*
X36000Y-55875D02*
X35200Y-55875D01*
X35200Y-55875D02*
X35200Y-59075D01*
X35200Y-59075D02*
X35600Y-59075D01*
X35800Y-59075D02*
X36000Y-58875D01*
X35600Y-55475D02*
X35600Y-55875D01*
X141582Y-52905D02*
X141582Y-44905D01*
X141582Y-44905D02*
X140582Y-44905D01*
X140582Y-44905D02*
X140582Y-52905D01*
X140582Y-52905D02*
X141582Y-52905D01*
X140582Y-51905D02*
X141582Y-51905D01*
X135348Y-52809D02*
X137148Y-52809D01*
X137148Y-52809D02*
X137148Y-45009D01*
X137148Y-45009D02*
X135348Y-45009D01*
X135348Y-45009D02*
X135348Y-52809D01*
G54D12*
X27425Y-58551D02*
X27725Y-58551D01*
X27725Y-58551D02*
X27725Y-62551D01*
X27725Y-62551D02*
X27425Y-62551D01*
X24125Y-58551D02*
X24125Y-62551D01*
X24125Y-62551D02*
X24525Y-62551D01*
X24525Y-62551D02*
X24525Y-58551D01*
X24525Y-58551D02*
X24125Y-58551D01*
X24425Y-58551D02*
X27425Y-58551D01*
X27425Y-62551D02*
X24425Y-62551D01*
X27425Y-34161D02*
X27725Y-34161D01*
X27725Y-34161D02*
X27725Y-38161D01*
X27725Y-38161D02*
X27425Y-38161D01*
X24125Y-34161D02*
X24125Y-38161D01*
X24125Y-38161D02*
X24525Y-38161D01*
X24525Y-38161D02*
X24525Y-34161D01*
X24525Y-34161D02*
X24125Y-34161D01*
X24425Y-34161D02*
X27425Y-34161D01*
X27425Y-38161D02*
X24425Y-38161D01*
G54D13*
X32190Y-46145D02*
X32440Y-46145D01*
X32440Y-46145D02*
X32440Y-42145D01*
X32440Y-42145D02*
X32190Y-42145D01*
X30690Y-46145D02*
X32190Y-46145D01*
X32190Y-46145D02*
X32190Y-42145D01*
X32190Y-42145D02*
X30690Y-42145D01*
X30690Y-42145D02*
X30690Y-46145D01*
X83001Y-37551D02*
X83251Y-37551D01*
X83251Y-37551D02*
X83251Y-33551D01*
X83251Y-33551D02*
X83001Y-33551D01*
X81501Y-37551D02*
X83001Y-37551D01*
X83001Y-37551D02*
X83001Y-33551D01*
X83001Y-33551D02*
X81501Y-33551D01*
X81501Y-33551D02*
X81501Y-37551D01*
X29238Y-46196D02*
X29488Y-46196D01*
X29488Y-46196D02*
X29488Y-42196D01*
X29488Y-42196D02*
X29238Y-42196D01*
X27738Y-46196D02*
X29238Y-46196D01*
X29238Y-46196D02*
X29238Y-42196D01*
X29238Y-42196D02*
X27738Y-42196D01*
X27738Y-42196D02*
X27738Y-46196D01*
X85650Y-60200D02*
X85400Y-60200D01*
X85400Y-60200D02*
X85400Y-64200D01*
X85400Y-64200D02*
X85650Y-64200D01*
X87150Y-60200D02*
X85650Y-60200D01*
X85650Y-60200D02*
X85650Y-64200D01*
X85650Y-64200D02*
X87150Y-64200D01*
X87150Y-64200D02*
X87150Y-60200D01*
X24793Y-53043D02*
X24543Y-53043D01*
X24543Y-53043D02*
X24543Y-57043D01*
X24543Y-57043D02*
X24793Y-57043D01*
X26293Y-53043D02*
X24793Y-53043D01*
X24793Y-53043D02*
X24793Y-57043D01*
X24793Y-57043D02*
X26293Y-57043D01*
X26293Y-57043D02*
X26293Y-53043D01*
X30850Y-58500D02*
X30600Y-58500D01*
X30600Y-58500D02*
X30600Y-62500D01*
X30600Y-62500D02*
X30850Y-62500D01*
X32350Y-58500D02*
X30850Y-58500D01*
X30850Y-58500D02*
X30850Y-62500D01*
X30850Y-62500D02*
X32350Y-62500D01*
X32350Y-62500D02*
X32350Y-58500D01*
X36900Y-58500D02*
X36650Y-58500D01*
X36650Y-58500D02*
X36650Y-62500D01*
X36650Y-62500D02*
X36900Y-62500D01*
X38400Y-58500D02*
X36900Y-58500D01*
X36900Y-58500D02*
X36900Y-62500D01*
X36900Y-62500D02*
X38400Y-62500D01*
X38400Y-62500D02*
X38400Y-58500D01*
G54D14*
X35752Y-51093D02*
X35071Y-51093D01*
X35071Y-51256D01*
X35103Y-51297D01*
X35135Y-51317D01*
X35200Y-51338D01*
X35298Y-51338D01*
X35362Y-51317D01*
X35395Y-51297D01*
X35427Y-51256D01*
X35427Y-51093D01*
X35071Y-51480D02*
X35071Y-51745D01*
X35330Y-51603D01*
X35330Y-51664D01*
X35362Y-51704D01*
X35395Y-51725D01*
X35460Y-51745D01*
X35622Y-51745D01*
X35687Y-51725D01*
X35719Y-51704D01*
X35752Y-51664D01*
X35752Y-51541D01*
X35719Y-51501D01*
X35687Y-51480D01*
G54D11*
G54D12*
X35662Y-46061D02*
X35690Y-46042D01*
X35719Y-45985D01*
X35719Y-45947D01*
X35690Y-45890D01*
X35633Y-45852D01*
X35576Y-45833D01*
X35462Y-45814D01*
X35376Y-45814D01*
X35262Y-45833D01*
X35204Y-45852D01*
X35147Y-45890D01*
X35119Y-45947D01*
X35119Y-45985D01*
X35147Y-46042D01*
X35176Y-46061D01*
X35119Y-46309D02*
X35119Y-46385D01*
X35147Y-46423D01*
X35204Y-46461D01*
X35319Y-46480D01*
X35519Y-46480D01*
X35633Y-46461D01*
X35690Y-46423D01*
X35719Y-46385D01*
X35719Y-46309D01*
X35690Y-46271D01*
X35633Y-46233D01*
X35519Y-46214D01*
X35319Y-46214D01*
X35204Y-46233D01*
X35147Y-46271D01*
X35119Y-46309D01*
X35719Y-46652D02*
X35119Y-46652D01*
X35719Y-46880D01*
X35119Y-46880D01*
X35719Y-47071D02*
X35119Y-47071D01*
X35719Y-47299D01*
X35119Y-47299D01*
X35776Y-47395D02*
X35776Y-47699D01*
X35376Y-47852D02*
X35347Y-47814D01*
X35319Y-47795D01*
X35262Y-47776D01*
X35233Y-47776D01*
X35176Y-47795D01*
X35147Y-47814D01*
X35119Y-47852D01*
X35119Y-47928D01*
X35147Y-47966D01*
X35176Y-47985D01*
X35233Y-48004D01*
X35262Y-48004D01*
X35319Y-47985D01*
X35347Y-47966D01*
X35376Y-47928D01*
X35376Y-47852D01*
X35404Y-47814D01*
X35433Y-47795D01*
X35490Y-47776D01*
X35604Y-47776D01*
X35662Y-47795D01*
X35690Y-47814D01*
X35719Y-47852D01*
X35719Y-47928D01*
X35690Y-47966D01*
X35662Y-47985D01*
X35604Y-48004D01*
X35490Y-48004D01*
X35433Y-47985D01*
X35404Y-47966D01*
X35376Y-47928D01*
G54D11*
G54D15*
X31616Y-50349D02*
X31354Y-50183D01*
X31616Y-50064D02*
X31066Y-50064D01*
X31066Y-50254D01*
X31092Y-50302D01*
X31118Y-50325D01*
X31171Y-50349D01*
X31249Y-50349D01*
X31302Y-50325D01*
X31328Y-50302D01*
X31354Y-50254D01*
X31354Y-50064D01*
X31616Y-50825D02*
X31616Y-50540D01*
X31616Y-50683D02*
X31066Y-50683D01*
X31144Y-50635D01*
X31197Y-50587D01*
X31223Y-50540D01*
X29553Y-49373D02*
X29291Y-49206D01*
X29553Y-49087D02*
X29003Y-49087D01*
X29003Y-49278D01*
X29029Y-49325D01*
X29055Y-49349D01*
X29108Y-49373D01*
X29186Y-49373D01*
X29239Y-49349D01*
X29265Y-49325D01*
X29291Y-49278D01*
X29291Y-49087D01*
X29055Y-49563D02*
X29029Y-49587D01*
X29003Y-49635D01*
X29003Y-49754D01*
X29029Y-49801D01*
X29055Y-49825D01*
X29108Y-49849D01*
X29160Y-49849D01*
X29239Y-49825D01*
X29553Y-49540D01*
X29553Y-49849D01*
X82335Y-42679D02*
X82501Y-42417D01*
X82621Y-42679D02*
X82621Y-42129D01*
X82430Y-42129D01*
X82382Y-42155D01*
X82359Y-42181D01*
X82335Y-42234D01*
X82335Y-42312D01*
X82359Y-42365D01*
X82382Y-42391D01*
X82430Y-42417D01*
X82621Y-42417D01*
X82168Y-42129D02*
X81859Y-42129D01*
X82025Y-42338D01*
X81954Y-42338D01*
X81906Y-42365D01*
X81882Y-42391D01*
X81859Y-42443D01*
X81859Y-42574D01*
X81882Y-42626D01*
X81906Y-42653D01*
X81954Y-42679D01*
X82097Y-42679D01*
X82144Y-42653D01*
X82168Y-42626D01*
X85265Y-51239D02*
X85004Y-51072D01*
X85265Y-50953D02*
X84715Y-50953D01*
X84715Y-51144D01*
X84742Y-51191D01*
X84768Y-51215D01*
X84820Y-51239D01*
X84899Y-51239D01*
X84951Y-51215D01*
X84977Y-51191D01*
X85004Y-51144D01*
X85004Y-50953D01*
X84899Y-51668D02*
X85265Y-51668D01*
X84689Y-51549D02*
X85082Y-51429D01*
X85082Y-51739D01*
X27767Y-50312D02*
X27505Y-50145D01*
X27767Y-50026D02*
X27217Y-50026D01*
X27217Y-50217D01*
X27244Y-50264D01*
X27270Y-50288D01*
X27322Y-50312D01*
X27401Y-50312D01*
X27453Y-50288D01*
X27479Y-50264D01*
X27505Y-50217D01*
X27505Y-50026D01*
X27217Y-50764D02*
X27217Y-50526D01*
X27479Y-50502D01*
X27453Y-50526D01*
X27427Y-50574D01*
X27427Y-50693D01*
X27453Y-50740D01*
X27479Y-50764D01*
X27532Y-50788D01*
X27663Y-50788D01*
X27715Y-50764D01*
X27741Y-50740D01*
X27767Y-50693D01*
X27767Y-50574D01*
X27741Y-50526D01*
X27715Y-50502D01*
X25785Y-49373D02*
X25523Y-49206D01*
X25785Y-49087D02*
X25235Y-49087D01*
X25235Y-49278D01*
X25261Y-49325D01*
X25287Y-49349D01*
X25340Y-49373D01*
X25418Y-49373D01*
X25471Y-49349D01*
X25497Y-49325D01*
X25523Y-49278D01*
X25523Y-49087D01*
X25235Y-49801D02*
X25235Y-49706D01*
X25261Y-49659D01*
X25287Y-49635D01*
X25366Y-49587D01*
X25471Y-49563D01*
X25680Y-49563D01*
X25733Y-49587D01*
X25759Y-49611D01*
X25785Y-49659D01*
X25785Y-49754D01*
X25759Y-49801D01*
X25733Y-49825D01*
X25680Y-49849D01*
X25549Y-49849D01*
X25497Y-49825D01*
X25471Y-49801D01*
X25445Y-49754D01*
X25445Y-49659D01*
X25471Y-49611D01*
X25497Y-49587D01*
X25549Y-49563D01*
X35822Y-57391D02*
X35560Y-57225D01*
X35822Y-57105D02*
X35272Y-57105D01*
X35272Y-57296D01*
X35298Y-57344D01*
X35325Y-57367D01*
X35377Y-57391D01*
X35455Y-57391D01*
X35508Y-57367D01*
X35534Y-57344D01*
X35560Y-57296D01*
X35560Y-57105D01*
X35272Y-57558D02*
X35272Y-57891D01*
X35822Y-57677D01*
G54D14*
X142358Y-51089D02*
X141677Y-51089D01*
X141677Y-51252D01*
X141709Y-51293D01*
X141742Y-51313D01*
X141807Y-51334D01*
X141904Y-51334D01*
X141969Y-51313D01*
X142001Y-51293D01*
X142034Y-51252D01*
X142034Y-51089D01*
X141677Y-51476D02*
X141677Y-51762D01*
X142358Y-51578D01*
G54D11*
G54D12*
X142268Y-46057D02*
X142296Y-46038D01*
X142325Y-45981D01*
X142325Y-45943D01*
X142296Y-45886D01*
X142239Y-45848D01*
X142182Y-45829D01*
X142068Y-45810D01*
X141982Y-45810D01*
X141868Y-45829D01*
X141811Y-45848D01*
X141754Y-45886D01*
X141725Y-45943D01*
X141725Y-45981D01*
X141754Y-46038D01*
X141782Y-46057D01*
X141725Y-46305D02*
X141725Y-46381D01*
X141754Y-46419D01*
X141811Y-46457D01*
X141925Y-46476D01*
X142125Y-46476D01*
X142239Y-46457D01*
X142296Y-46419D01*
X142325Y-46381D01*
X142325Y-46305D01*
X142296Y-46267D01*
X142239Y-46229D01*
X142125Y-46210D01*
X141925Y-46210D01*
X141811Y-46229D01*
X141754Y-46267D01*
X141725Y-46305D01*
X142325Y-46648D02*
X141725Y-46648D01*
X142325Y-46876D01*
X141725Y-46876D01*
X142325Y-47067D02*
X141725Y-47067D01*
X142325Y-47295D01*
X141725Y-47295D01*
X142382Y-47391D02*
X142382Y-47695D01*
X141982Y-47848D02*
X141954Y-47810D01*
X141925Y-47791D01*
X141868Y-47772D01*
X141839Y-47772D01*
X141782Y-47791D01*
X141754Y-47810D01*
X141725Y-47848D01*
X141725Y-47924D01*
X141754Y-47962D01*
X141782Y-47981D01*
X141839Y-48000D01*
X141868Y-48000D01*
X141925Y-47981D01*
X141954Y-47962D01*
X141982Y-47924D01*
X141982Y-47848D01*
X142011Y-47810D01*
X142039Y-47791D01*
X142096Y-47772D01*
X142211Y-47772D01*
X142268Y-47791D01*
X142296Y-47810D01*
X142325Y-47848D01*
X142325Y-47924D01*
X142296Y-47962D01*
X142268Y-47981D01*
X142211Y-48000D01*
X142096Y-48000D01*
X142039Y-47981D01*
X142011Y-47962D01*
X141982Y-47924D01*
G54D11*
G54D15*
X137709Y-48614D02*
X137309Y-48614D01*
X137309Y-48766D01*
X137328Y-48804D01*
X137348Y-48823D01*
X137386Y-48842D01*
X137443Y-48842D01*
X137481Y-48823D01*
X137500Y-48804D01*
X137519Y-48766D01*
X137519Y-48614D01*
X137309Y-49185D02*
X137309Y-49109D01*
X137328Y-49071D01*
X137348Y-49052D01*
X137405Y-49014D01*
X137481Y-48995D01*
X137633Y-48995D01*
X137671Y-49014D01*
X137690Y-49033D01*
X137709Y-49071D01*
X137709Y-49147D01*
X137690Y-49185D01*
X137671Y-49204D01*
X137633Y-49223D01*
X137538Y-49223D01*
X137500Y-49204D01*
X137481Y-49185D01*
X137462Y-49147D01*
X137462Y-49071D01*
X137481Y-49033D01*
X137500Y-49014D01*
X137538Y-48995D01*
X135071Y-47680D02*
X135090Y-47661D01*
X135109Y-47604D01*
X135109Y-47566D01*
X135090Y-47509D01*
X135052Y-47471D01*
X135014Y-47452D01*
X134938Y-47433D01*
X134881Y-47433D01*
X134805Y-47452D01*
X134767Y-47471D01*
X134728Y-47509D01*
X134709Y-47566D01*
X134709Y-47604D01*
X134728Y-47661D01*
X134748Y-47680D01*
X134709Y-47928D02*
X134709Y-48004D01*
X134728Y-48042D01*
X134767Y-48080D01*
X134843Y-48099D01*
X134976Y-48099D01*
X135052Y-48080D01*
X135090Y-48042D01*
X135109Y-48004D01*
X135109Y-47928D01*
X135090Y-47890D01*
X135052Y-47852D01*
X134976Y-47833D01*
X134843Y-47833D01*
X134767Y-47852D01*
X134728Y-47890D01*
X134709Y-47928D01*
X135109Y-48271D02*
X134709Y-48271D01*
X135109Y-48499D01*
X134709Y-48499D01*
X135109Y-48690D02*
X134709Y-48690D01*
X135109Y-48918D01*
X134709Y-48918D01*
X135148Y-49014D02*
X135148Y-49318D01*
X134881Y-49471D02*
X134862Y-49433D01*
X134843Y-49414D01*
X134805Y-49395D01*
X134786Y-49395D01*
X134748Y-49414D01*
X134728Y-49433D01*
X134709Y-49471D01*
X134709Y-49547D01*
X134728Y-49585D01*
X134748Y-49604D01*
X134786Y-49623D01*
X134805Y-49623D01*
X134843Y-49604D01*
X134862Y-49585D01*
X134881Y-49547D01*
X134881Y-49471D01*
X134900Y-49433D01*
X134919Y-49414D01*
X134957Y-49395D01*
X135033Y-49395D01*
X135071Y-49414D01*
X135090Y-49433D01*
X135109Y-49471D01*
X135109Y-49547D01*
X135090Y-49585D01*
X135071Y-49604D01*
X135033Y-49623D01*
X134957Y-49623D01*
X134919Y-49604D01*
X134900Y-49585D01*
X134881Y-49547D01*
X134709Y-49757D02*
X135109Y-50023D01*
X134709Y-50023D02*
X135109Y-49757D01*
X134748Y-50157D02*
X134728Y-50176D01*
X134709Y-50214D01*
X134709Y-50309D01*
X134728Y-50347D01*
X134748Y-50366D01*
X134786Y-50385D01*
X134824Y-50385D01*
X134881Y-50366D01*
X135109Y-50138D01*
X135109Y-50385D01*
G54D11*
X28468Y-60108D02*
X27868Y-60108D01*
X27868Y-60336D01*
X27896Y-60394D01*
X27925Y-60422D01*
X27982Y-60451D01*
X28068Y-60451D01*
X28125Y-60422D01*
X28153Y-60394D01*
X28182Y-60336D01*
X28182Y-60108D01*
X28068Y-60965D02*
X28468Y-60965D01*
X27839Y-60822D02*
X28268Y-60679D01*
X28268Y-61051D01*
X23810Y-59279D02*
X23839Y-59251D01*
X23868Y-59165D01*
X23868Y-59108D01*
X23839Y-59022D01*
X23782Y-58965D01*
X23725Y-58936D01*
X23610Y-58908D01*
X23525Y-58908D01*
X23410Y-58936D01*
X23353Y-58965D01*
X23296Y-59022D01*
X23268Y-59108D01*
X23268Y-59165D01*
X23296Y-59251D01*
X23325Y-59279D01*
X23268Y-59651D02*
X23268Y-59765D01*
X23296Y-59822D01*
X23353Y-59879D01*
X23468Y-59908D01*
X23668Y-59908D01*
X23782Y-59879D01*
X23839Y-59822D01*
X23868Y-59765D01*
X23868Y-59651D01*
X23839Y-59594D01*
X23782Y-59536D01*
X23668Y-59508D01*
X23468Y-59508D01*
X23353Y-59536D01*
X23296Y-59594D01*
X23268Y-59651D01*
X23868Y-60165D02*
X23268Y-60165D01*
X23868Y-60508D01*
X23268Y-60508D01*
X23868Y-60794D02*
X23268Y-60794D01*
X23868Y-61136D01*
X23268Y-61136D01*
X23925Y-61279D02*
X23925Y-61736D01*
X23325Y-61851D02*
X23296Y-61879D01*
X23268Y-61936D01*
X23268Y-62079D01*
X23296Y-62136D01*
X23325Y-62165D01*
X23382Y-62194D01*
X23439Y-62194D01*
X23525Y-62165D01*
X23868Y-61822D01*
X23868Y-62194D01*
X28468Y-35718D02*
X27868Y-35718D01*
X27868Y-35947D01*
X27896Y-36004D01*
X27925Y-36032D01*
X27982Y-36061D01*
X28068Y-36061D01*
X28125Y-36032D01*
X28153Y-36004D01*
X28182Y-35947D01*
X28182Y-35718D01*
X27868Y-36604D02*
X27868Y-36318D01*
X28153Y-36289D01*
X28125Y-36318D01*
X28096Y-36375D01*
X28096Y-36518D01*
X28125Y-36575D01*
X28153Y-36604D01*
X28210Y-36632D01*
X28353Y-36632D01*
X28410Y-36604D01*
X28439Y-36575D01*
X28468Y-36518D01*
X28468Y-36375D01*
X28439Y-36318D01*
X28410Y-36289D01*
X23810Y-34889D02*
X23839Y-34861D01*
X23868Y-34775D01*
X23868Y-34718D01*
X23839Y-34632D01*
X23782Y-34575D01*
X23725Y-34547D01*
X23610Y-34518D01*
X23525Y-34518D01*
X23410Y-34547D01*
X23353Y-34575D01*
X23296Y-34632D01*
X23268Y-34718D01*
X23268Y-34775D01*
X23296Y-34861D01*
X23325Y-34889D01*
X23268Y-35261D02*
X23268Y-35375D01*
X23296Y-35432D01*
X23353Y-35489D01*
X23468Y-35518D01*
X23668Y-35518D01*
X23782Y-35489D01*
X23839Y-35432D01*
X23868Y-35375D01*
X23868Y-35261D01*
X23839Y-35204D01*
X23782Y-35147D01*
X23668Y-35118D01*
X23468Y-35118D01*
X23353Y-35147D01*
X23296Y-35204D01*
X23268Y-35261D01*
X23868Y-35775D02*
X23268Y-35775D01*
X23868Y-36118D01*
X23268Y-36118D01*
X23868Y-36404D02*
X23268Y-36404D01*
X23868Y-36747D01*
X23268Y-36747D01*
X23925Y-36889D02*
X23925Y-37347D01*
X23325Y-37461D02*
X23296Y-37489D01*
X23268Y-37547D01*
X23268Y-37689D01*
X23296Y-37747D01*
X23325Y-37775D01*
X23382Y-37804D01*
X23439Y-37804D01*
X23525Y-37775D01*
X23868Y-37432D01*
X23868Y-37804D01*
G54D15*
X30490Y-44107D02*
X30462Y-44069D01*
X30405Y-44031D01*
X30319Y-43974D01*
X30290Y-43936D01*
X30290Y-43898D01*
X30433Y-43917D02*
X30405Y-43879D01*
X30348Y-43840D01*
X30233Y-43821D01*
X30033Y-43821D01*
X29919Y-43840D01*
X29862Y-43879D01*
X29833Y-43917D01*
X29833Y-43993D01*
X29862Y-44031D01*
X29919Y-44069D01*
X30033Y-44088D01*
X30233Y-44088D01*
X30348Y-44069D01*
X30405Y-44031D01*
X30433Y-43993D01*
X30433Y-43917D01*
X30433Y-44469D02*
X30433Y-44240D01*
X30433Y-44355D02*
X29833Y-44355D01*
X29919Y-44317D01*
X29976Y-44279D01*
X30005Y-44240D01*
X32671Y-46288D02*
X32443Y-46288D01*
X32557Y-46888D02*
X32557Y-46288D01*
X32309Y-46888D02*
X32309Y-46288D01*
X32119Y-46888D02*
X32119Y-46288D01*
X31967Y-46288D01*
X31929Y-46317D01*
X31909Y-46345D01*
X31890Y-46402D01*
X31890Y-46488D01*
X31909Y-46545D01*
X31929Y-46574D01*
X31967Y-46602D01*
X32119Y-46602D01*
X31509Y-46888D02*
X31738Y-46888D01*
X31624Y-46888D02*
X31624Y-46288D01*
X31662Y-46374D01*
X31700Y-46431D01*
X31738Y-46459D01*
X31357Y-46345D02*
X31338Y-46317D01*
X31300Y-46288D01*
X31205Y-46288D01*
X31167Y-46317D01*
X31148Y-46345D01*
X31129Y-46402D01*
X31129Y-46459D01*
X31148Y-46545D01*
X31376Y-46888D01*
X31129Y-46888D01*
X30995Y-46288D02*
X30729Y-46288D01*
X30900Y-46888D01*
X81301Y-35513D02*
X81273Y-35474D01*
X81216Y-35436D01*
X81130Y-35379D01*
X81101Y-35341D01*
X81101Y-35303D01*
X81244Y-35322D02*
X81216Y-35284D01*
X81159Y-35246D01*
X81044Y-35227D01*
X80844Y-35227D01*
X80730Y-35246D01*
X80673Y-35284D01*
X80644Y-35322D01*
X80644Y-35398D01*
X80673Y-35436D01*
X80730Y-35474D01*
X80844Y-35494D01*
X81044Y-35494D01*
X81159Y-35474D01*
X81216Y-35436D01*
X81244Y-35398D01*
X81244Y-35322D01*
X80644Y-35627D02*
X80644Y-35874D01*
X80873Y-35741D01*
X80873Y-35798D01*
X80901Y-35836D01*
X80930Y-35855D01*
X80987Y-35874D01*
X81130Y-35874D01*
X81187Y-35855D01*
X81216Y-35836D01*
X81244Y-35798D01*
X81244Y-35684D01*
X81216Y-35646D01*
X81187Y-35627D01*
X83482Y-37694D02*
X83254Y-37694D01*
X83368Y-38294D02*
X83368Y-37694D01*
X83121Y-38294D02*
X83121Y-37694D01*
X82930Y-38294D02*
X82930Y-37694D01*
X82778Y-37694D01*
X82740Y-37722D01*
X82721Y-37751D01*
X82701Y-37808D01*
X82701Y-37894D01*
X82721Y-37951D01*
X82740Y-37979D01*
X82778Y-38008D01*
X82930Y-38008D01*
X82321Y-38294D02*
X82549Y-38294D01*
X82435Y-38294D02*
X82435Y-37694D01*
X82473Y-37779D01*
X82511Y-37836D01*
X82549Y-37865D01*
X82168Y-37751D02*
X82149Y-37722D01*
X82111Y-37694D01*
X82016Y-37694D01*
X81978Y-37722D01*
X81959Y-37751D01*
X81940Y-37808D01*
X81940Y-37865D01*
X81959Y-37951D01*
X82187Y-38294D01*
X81940Y-38294D01*
X81806Y-37694D02*
X81540Y-37694D01*
X81711Y-38294D01*
X27538Y-44158D02*
X27509Y-44120D01*
X27452Y-44082D01*
X27366Y-44025D01*
X27338Y-43987D01*
X27338Y-43949D01*
X27481Y-43968D02*
X27452Y-43930D01*
X27395Y-43892D01*
X27281Y-43873D01*
X27081Y-43873D01*
X26966Y-43892D01*
X26909Y-43930D01*
X26881Y-43968D01*
X26881Y-44044D01*
X26909Y-44082D01*
X26966Y-44120D01*
X27081Y-44139D01*
X27281Y-44139D01*
X27395Y-44120D01*
X27452Y-44082D01*
X27481Y-44044D01*
X27481Y-43968D01*
X26938Y-44292D02*
X26909Y-44311D01*
X26881Y-44349D01*
X26881Y-44444D01*
X26909Y-44482D01*
X26938Y-44501D01*
X26995Y-44520D01*
X27052Y-44520D01*
X27138Y-44501D01*
X27481Y-44273D01*
X27481Y-44520D01*
X29719Y-46339D02*
X29490Y-46339D01*
X29604Y-46939D02*
X29604Y-46339D01*
X29357Y-46939D02*
X29357Y-46339D01*
X29166Y-46939D02*
X29166Y-46339D01*
X29014Y-46339D01*
X28976Y-46368D01*
X28957Y-46396D01*
X28938Y-46453D01*
X28938Y-46539D01*
X28957Y-46596D01*
X28976Y-46625D01*
X29014Y-46653D01*
X29166Y-46653D01*
X28557Y-46939D02*
X28785Y-46939D01*
X28671Y-46939D02*
X28671Y-46339D01*
X28709Y-46425D01*
X28747Y-46482D01*
X28785Y-46511D01*
X28404Y-46396D02*
X28385Y-46368D01*
X28347Y-46339D01*
X28252Y-46339D01*
X28214Y-46368D01*
X28195Y-46396D01*
X28176Y-46453D01*
X28176Y-46511D01*
X28195Y-46596D01*
X28423Y-46939D01*
X28176Y-46939D01*
X28042Y-46339D02*
X27776Y-46339D01*
X27947Y-46939D01*
X87950Y-62161D02*
X87921Y-62123D01*
X87864Y-62085D01*
X87778Y-62028D01*
X87750Y-61990D01*
X87750Y-61952D01*
X87892Y-61971D02*
X87864Y-61933D01*
X87807Y-61895D01*
X87692Y-61876D01*
X87492Y-61876D01*
X87378Y-61895D01*
X87321Y-61933D01*
X87292Y-61971D01*
X87292Y-62047D01*
X87321Y-62085D01*
X87378Y-62123D01*
X87492Y-62142D01*
X87692Y-62142D01*
X87807Y-62123D01*
X87864Y-62085D01*
X87892Y-62047D01*
X87892Y-61971D01*
X87492Y-62485D02*
X87892Y-62485D01*
X87264Y-62390D02*
X87692Y-62295D01*
X87692Y-62542D01*
X87130Y-59342D02*
X86902Y-59342D01*
X87016Y-59942D02*
X87016Y-59342D01*
X86769Y-59942D02*
X86769Y-59342D01*
X86578Y-59942D02*
X86578Y-59342D01*
X86426Y-59342D01*
X86388Y-59371D01*
X86369Y-59400D01*
X86350Y-59457D01*
X86350Y-59542D01*
X86369Y-59600D01*
X86388Y-59628D01*
X86426Y-59657D01*
X86578Y-59657D01*
X85969Y-59942D02*
X86197Y-59942D01*
X86083Y-59942D02*
X86083Y-59342D01*
X86121Y-59428D01*
X86159Y-59485D01*
X86197Y-59514D01*
X85816Y-59400D02*
X85797Y-59371D01*
X85759Y-59342D01*
X85664Y-59342D01*
X85626Y-59371D01*
X85607Y-59400D01*
X85588Y-59457D01*
X85588Y-59514D01*
X85607Y-59600D01*
X85835Y-59942D01*
X85588Y-59942D01*
X85454Y-59342D02*
X85188Y-59342D01*
X85359Y-59942D01*
X27093Y-55005D02*
X27064Y-54967D01*
X27007Y-54929D01*
X26921Y-54871D01*
X26893Y-54833D01*
X26893Y-54795D01*
X27036Y-54814D02*
X27007Y-54776D01*
X26950Y-54738D01*
X26836Y-54719D01*
X26636Y-54719D01*
X26521Y-54738D01*
X26464Y-54776D01*
X26436Y-54814D01*
X26436Y-54890D01*
X26464Y-54929D01*
X26521Y-54967D01*
X26636Y-54986D01*
X26836Y-54986D01*
X26950Y-54967D01*
X27007Y-54929D01*
X27036Y-54890D01*
X27036Y-54814D01*
X26436Y-55348D02*
X26436Y-55157D01*
X26721Y-55138D01*
X26693Y-55157D01*
X26664Y-55195D01*
X26664Y-55290D01*
X26693Y-55329D01*
X26721Y-55348D01*
X26779Y-55367D01*
X26921Y-55367D01*
X26979Y-55348D01*
X27007Y-55329D01*
X27036Y-55290D01*
X27036Y-55195D01*
X27007Y-55157D01*
X26979Y-55138D01*
X26274Y-52186D02*
X26045Y-52186D01*
X26159Y-52786D02*
X26159Y-52186D01*
X25912Y-52786D02*
X25912Y-52186D01*
X25721Y-52786D02*
X25721Y-52186D01*
X25569Y-52186D01*
X25531Y-52214D01*
X25512Y-52243D01*
X25493Y-52300D01*
X25493Y-52386D01*
X25512Y-52443D01*
X25531Y-52471D01*
X25569Y-52500D01*
X25721Y-52500D01*
X25112Y-52786D02*
X25340Y-52786D01*
X25226Y-52786D02*
X25226Y-52186D01*
X25264Y-52271D01*
X25302Y-52329D01*
X25340Y-52357D01*
X24959Y-52243D02*
X24940Y-52214D01*
X24902Y-52186D01*
X24807Y-52186D01*
X24769Y-52214D01*
X24750Y-52243D01*
X24731Y-52300D01*
X24731Y-52357D01*
X24750Y-52443D01*
X24979Y-52786D01*
X24731Y-52786D01*
X24598Y-52186D02*
X24331Y-52186D01*
X24502Y-52786D01*
X33150Y-60461D02*
X33121Y-60423D01*
X33064Y-60385D01*
X32978Y-60328D01*
X32950Y-60290D01*
X32950Y-60252D01*
X33092Y-60271D02*
X33064Y-60233D01*
X33007Y-60195D01*
X32892Y-60176D01*
X32692Y-60176D01*
X32578Y-60195D01*
X32521Y-60233D01*
X32492Y-60271D01*
X32492Y-60347D01*
X32521Y-60385D01*
X32578Y-60423D01*
X32692Y-60442D01*
X32892Y-60442D01*
X33007Y-60423D01*
X33064Y-60385D01*
X33092Y-60347D01*
X33092Y-60271D01*
X32492Y-60785D02*
X32492Y-60709D01*
X32521Y-60671D01*
X32550Y-60652D01*
X32635Y-60614D01*
X32750Y-60595D01*
X32978Y-60595D01*
X33035Y-60614D01*
X33064Y-60633D01*
X33092Y-60671D01*
X33092Y-60747D01*
X33064Y-60785D01*
X33035Y-60804D01*
X32978Y-60823D01*
X32835Y-60823D01*
X32778Y-60804D01*
X32750Y-60785D01*
X32721Y-60747D01*
X32721Y-60671D01*
X32750Y-60633D01*
X32778Y-60614D01*
X32835Y-60595D01*
X32330Y-57642D02*
X32102Y-57642D01*
X32216Y-58242D02*
X32216Y-57642D01*
X31969Y-58242D02*
X31969Y-57642D01*
X31778Y-58242D02*
X31778Y-57642D01*
X31626Y-57642D01*
X31588Y-57671D01*
X31569Y-57700D01*
X31550Y-57757D01*
X31550Y-57842D01*
X31569Y-57900D01*
X31588Y-57928D01*
X31626Y-57957D01*
X31778Y-57957D01*
X31169Y-58242D02*
X31397Y-58242D01*
X31283Y-58242D02*
X31283Y-57642D01*
X31321Y-57728D01*
X31359Y-57785D01*
X31397Y-57814D01*
X31016Y-57700D02*
X30997Y-57671D01*
X30959Y-57642D01*
X30864Y-57642D01*
X30826Y-57671D01*
X30807Y-57700D01*
X30788Y-57757D01*
X30788Y-57814D01*
X30807Y-57900D01*
X31035Y-58242D01*
X30788Y-58242D01*
X30654Y-57642D02*
X30388Y-57642D01*
X30559Y-58242D01*
X39200Y-60461D02*
X39171Y-60423D01*
X39114Y-60385D01*
X39028Y-60328D01*
X39000Y-60290D01*
X39000Y-60252D01*
X39142Y-60271D02*
X39114Y-60233D01*
X39057Y-60195D01*
X38942Y-60176D01*
X38742Y-60176D01*
X38628Y-60195D01*
X38571Y-60233D01*
X38542Y-60271D01*
X38542Y-60347D01*
X38571Y-60385D01*
X38628Y-60423D01*
X38742Y-60442D01*
X38942Y-60442D01*
X39057Y-60423D01*
X39114Y-60385D01*
X39142Y-60347D01*
X39142Y-60271D01*
X38542Y-60576D02*
X38542Y-60842D01*
X39142Y-60671D01*
X38380Y-57642D02*
X38152Y-57642D01*
X38266Y-58242D02*
X38266Y-57642D01*
X38019Y-58242D02*
X38019Y-57642D01*
X37828Y-58242D02*
X37828Y-57642D01*
X37676Y-57642D01*
X37638Y-57671D01*
X37619Y-57700D01*
X37600Y-57757D01*
X37600Y-57842D01*
X37619Y-57900D01*
X37638Y-57928D01*
X37676Y-57957D01*
X37828Y-57957D01*
X37219Y-58242D02*
X37447Y-58242D01*
X37333Y-58242D02*
X37333Y-57642D01*
X37371Y-57728D01*
X37409Y-57785D01*
X37447Y-57814D01*
X37066Y-57700D02*
X37047Y-57671D01*
X37009Y-57642D01*
X36914Y-57642D01*
X36876Y-57671D01*
X36857Y-57700D01*
X36838Y-57757D01*
X36838Y-57814D01*
X36857Y-57900D01*
X37085Y-58242D01*
X36838Y-58242D01*
X36704Y-57642D02*
X36438Y-57642D01*
X36609Y-58242D01*
M02*
